<svg width="393" height="150" viewBox="0 0 393 150" fill="none" xmlns="http://www.w3.org/2000/svg">
<path d="M193.551 0V2.91262M193.551 2.91262V5.82524M193.551 2.91262H190.64M193.551 2.91262L196.463 2.91262M193.551 13.1068V16.0194M193.551 16.0194V18.932M193.551 16.0194H190.64M193.551 16.0194H196.463M193.551 26.2136V29.1262M193.551 29.1262V32.0388M193.551 29.1262H190.64M193.551 29.1262H196.463M193.551 39.3204V42.233M193.551 42.233V45.1456M193.551 42.233H190.64M193.551 42.233H196.463M193.551 52.4272V55.3398M193.551 55.3398V58.2524M193.551 55.3398H190.64M193.551 55.3398H196.463M193.551 65.534V68.4466M193.551 68.4466V71.3592M193.551 68.4466H190.64M193.551 68.4466H196.463M193.551 78.6408V81.5534M193.551 81.5534V84.466M193.551 81.5534H190.64M193.551 81.5534H196.463M193.551 91.7476V94.6602M193.551 94.6602V97.5728M193.551 94.6602H190.64M193.551 94.6602H196.463M193.551 104.854V107.767M193.551 107.767V110.68M193.551 107.767H190.64M193.551 107.767H196.463M193.551 117.961V120.874M193.551 120.874V123.786M193.551 120.874H190.64M193.551 120.874H196.463M193.551 131.068V133.981M193.551 133.981V136.893M193.551 133.981H190.64M193.551 133.981H196.463M193.551 144.175V147.087M193.551 147.087V150M193.551 147.087H190.64M193.551 147.087H196.463M206.654 0V2.91262M206.654 2.91262V5.82524M206.654 2.91262H203.742M206.654 2.91262L209.565 2.91262M206.654 13.1068V16.0194M206.654 16.0194V18.932M206.654 16.0194H203.742M206.654 16.0194H209.565M206.654 26.2136V29.1262M206.654 29.1262V32.0388M206.654 29.1262H203.742M206.654 29.1262H209.565M206.654 39.3204V42.233M206.654 42.233V45.1456M206.654 42.233H203.742M206.654 42.233H209.565M206.654 52.4272V55.3398M206.654 55.3398V58.2524M206.654 55.3398H203.742M206.654 55.3398H209.565M206.654 65.534V68.4466M206.654 68.4466V71.3592M206.654 68.4466H203.742M206.654 68.4466H209.565M206.654 78.6408V81.5534M206.654 81.5534V84.466M206.654 81.5534H203.742M206.654 81.5534H209.565M206.654 91.7476V94.6602M206.654 94.6602V97.5728M206.654 94.6602H203.742M206.654 94.6602H209.565M206.654 104.854V107.767M206.654 107.767V110.68M206.654 107.767H203.742M206.654 107.767H209.565M206.654 117.961V120.874M206.654 120.874V123.786M206.654 120.874H203.742M206.654 120.874H209.565M206.654 131.068V133.981M206.654 133.981V136.893M206.654 133.981H203.742M206.654 133.981H209.565M206.654 144.175V147.087M206.654 147.087V150M206.654 147.087H203.742M206.654 147.087H209.565M219.756 0V2.91262M219.756 2.91262V5.82524M219.756 2.91262H216.845M219.756 2.91262L222.668 2.91262M219.756 13.1068V16.0194M219.756 16.0194V18.932M219.756 16.0194H216.845M219.756 16.0194H222.668M219.756 26.2136V29.1262M219.756 29.1262V32.0388M219.756 29.1262H216.845M219.756 29.1262H222.668M219.756 39.3204V42.233M219.756 42.233V45.1456M219.756 42.233H216.845M219.756 42.233H222.668M219.756 52.4272V55.3398M219.756 55.3398V58.2524M219.756 55.3398H216.845M219.756 55.3398H222.668M219.756 65.534V68.4466M219.756 68.4466V71.3592M219.756 68.4466H216.845M219.756 68.4466H222.668M219.756 78.6408V81.5534M219.756 81.5534V84.466M219.756 81.5534H216.845M219.756 81.5534H222.668M219.756 91.7476V94.6602M219.756 94.6602V97.5728M219.756 94.6602H216.845M219.756 94.6602H222.668M219.756 104.854V107.767M219.756 107.767V110.68M219.756 107.767H216.845M219.756 107.767H222.668M219.756 117.961V120.874M219.756 120.874V123.786M219.756 120.874H216.845M219.756 120.874H222.668M219.756 131.068V133.981M219.756 133.981V136.893M219.756 133.981H216.845M219.756 133.981H222.668M219.756 144.175V147.087M219.756 147.087V150M219.756 147.087H216.845M219.756 147.087H222.668M232.859 0V2.91262M232.859 2.91262V5.82524M232.859 2.91262H229.947M232.859 2.91262L235.77 2.91262M232.859 13.1068V16.0194M232.859 16.0194V18.932M232.859 16.0194H229.947M232.859 16.0194H235.77M232.859 26.2136V29.1262M232.859 29.1262V32.0388M232.859 29.1262H229.947M232.859 29.1262H235.77M232.859 39.3204V42.233M232.859 42.233V45.1456M232.859 42.233H229.947M232.859 42.233H235.77M232.859 52.4272V55.3398M232.859 55.3398V58.2524M232.859 55.3398H229.947M232.859 55.3398H235.77M232.859 65.534V68.4466M232.859 68.4466V71.3592M232.859 68.4466H229.947M232.859 68.4466H235.77M232.859 78.6408V81.5534M232.859 81.5534V84.466M232.859 81.5534H229.947M232.859 81.5534H235.77M232.859 91.7476V94.6602M232.859 94.6602V97.5728M232.859 94.6602H229.947M232.859 94.6602H235.77M232.859 104.854V107.767M232.859 107.767V110.68M232.859 107.767H229.947M232.859 107.767H235.77M232.859 117.961V120.874M232.859 120.874V123.786M232.859 120.874H229.947M232.859 120.874H235.77M232.859 131.068V133.981M232.859 133.981V136.893M232.859 133.981H229.947M232.859 133.981H235.77M232.859 144.175V147.087M232.859 147.087V150M232.859 147.087H229.947M232.859 147.087H235.77M245.961 0V2.91262M245.961 2.91262V5.82524M245.961 2.91262H243.049M245.961 2.91262L248.873 2.91262M245.961 13.1068V16.0194M245.961 16.0194V18.932M245.961 16.0194H243.049M245.961 16.0194H248.873M245.961 26.2136V29.1262M245.961 29.1262V32.0388M245.961 29.1262H243.049M245.961 29.1262H248.873M245.961 39.3204V42.233M245.961 42.233V45.1456M245.961 42.233H243.049M245.961 42.233H248.873M245.961 52.4272V55.3398M245.961 55.3398V58.2524M245.961 55.3398H243.049M245.961 55.3398H248.873M245.961 65.534V68.4466M245.961 68.4466V71.3592M245.961 68.4466H243.049M245.961 68.4466H248.873M245.961 78.6408V81.5534M245.961 81.5534V84.466M245.961 81.5534H243.049M245.961 81.5534H248.873M245.961 91.7476V94.6602M245.961 94.6602V97.5728M245.961 94.6602H243.049M245.961 94.6602H248.873M245.961 104.854V107.767M245.961 107.767V110.68M245.961 107.767H243.049M245.961 107.767H248.873M245.961 117.961V120.874M245.961 120.874V123.786M245.961 120.874H243.049M245.961 120.874H248.873M245.961 131.068V133.981M245.961 133.981V136.893M245.961 133.981H243.049M245.961 133.981H248.873M245.961 144.175V147.087M245.961 147.087V150M245.961 147.087H243.049M245.961 147.087H248.873M259.064 0V2.91262M259.064 2.91262V5.82524M259.064 2.91262H256.152M259.064 2.91262L261.975 2.91262M259.064 13.1068V16.0194M259.064 16.0194V18.932M259.064 16.0194H256.152M259.064 16.0194H261.975M259.064 26.2136V29.1262M259.064 29.1262V32.0388M259.064 29.1262H256.152M259.064 29.1262H261.975M259.064 39.3204V42.233M259.064 42.233V45.1456M259.064 42.233H256.152M259.064 42.233H261.975M259.064 52.4272V55.3398M259.064 55.3398V58.2524M259.064 55.3398H256.152M259.064 55.3398H261.975M259.064 65.534V68.4466M259.064 68.4466V71.3592M259.064 68.4466H256.152M259.064 68.4466H261.975M259.064 78.6408V81.5534M259.064 81.5534V84.466M259.064 81.5534H256.152M259.064 81.5534H261.975M259.064 91.7476V94.6602M259.064 94.6602V97.5728M259.064 94.6602H256.152M259.064 94.6602H261.975M259.064 104.854V107.767M259.064 107.767V110.68M259.064 107.767H256.152M259.064 107.767H261.975M259.064 117.961V120.874M259.064 120.874V123.786M259.064 120.874H256.152M259.064 120.874H261.975M259.064 131.068V133.981M259.064 133.981V136.893M259.064 133.981H256.152M259.064 133.981H261.975M259.064 144.175V147.087M259.064 147.087V150M259.064 147.087H256.152M259.064 147.087H261.975M272.166 0V2.91262M272.166 2.91262V5.82524M272.166 2.91262H269.254M272.166 2.91262L275.078 2.91262M272.166 13.1068V16.0194M272.166 16.0194V18.932M272.166 16.0194H269.254M272.166 16.0194H275.078M272.166 26.2136V29.1262M272.166 29.1262V32.0388M272.166 29.1262H269.254M272.166 29.1262H275.078M272.166 39.3204V42.233M272.166 42.233V45.1456M272.166 42.233H269.254M272.166 42.233H275.078M272.166 52.4272V55.3398M272.166 55.3398V58.2524M272.166 55.3398H269.254M272.166 55.3398H275.078M272.166 65.534V68.4466M272.166 68.4466V71.3592M272.166 68.4466H269.254M272.166 68.4466H275.078M272.166 78.6408V81.5534M272.166 81.5534V84.466M272.166 81.5534H269.254M272.166 81.5534H275.078M272.166 91.7476V94.6602M272.166 94.6602V97.5728M272.166 94.6602H269.254M272.166 94.6602H275.078M272.166 104.854V107.767M272.166 107.767V110.68M272.166 107.767H269.254M272.166 107.767H275.078M272.166 117.961V120.874M272.166 120.874V123.786M272.166 120.874H269.254M272.166 120.874H275.078M272.166 131.068V133.981M272.166 133.981V136.893M272.166 133.981H269.254M272.166 133.981H275.078M272.166 144.175V147.087M272.166 147.087V150M272.166 147.087H269.254M272.166 147.087H275.078M285.269 0V2.91262M285.269 2.91262V5.82524M285.269 2.91262H282.357M285.269 2.91262L288.18 2.91262M285.269 13.1068V16.0194M285.269 16.0194V18.932M285.269 16.0194H282.357M285.269 16.0194H288.18M285.269 26.2136V29.1262M285.269 29.1262V32.0388M285.269 29.1262H282.357M285.269 29.1262H288.18M285.269 39.3204V42.233M285.269 42.233V45.1456M285.269 42.233H282.357M285.269 42.233H288.18M285.269 52.4272V55.3398M285.269 55.3398V58.2524M285.269 55.3398H282.357M285.269 55.3398H288.18M285.269 65.534V68.4466M285.269 68.4466V71.3592M285.269 68.4466H282.357M285.269 68.4466H288.18M285.269 78.6408V81.5534M285.269 81.5534V84.466M285.269 81.5534H282.357M285.269 81.5534H288.18M285.269 91.7476V94.6602M285.269 94.6602V97.5728M285.269 94.6602H282.357M285.269 94.6602H288.18M285.269 104.854V107.767M285.269 107.767V110.68M285.269 107.767H282.357M285.269 107.767H288.18M285.269 117.961V120.874M285.269 120.874V123.786M285.269 120.874H282.357M285.269 120.874H288.18M285.269 131.068V133.981M285.269 133.981V136.893M285.269 133.981H282.357M285.269 133.981H288.18M285.269 144.175V147.087M285.269 147.087V150M285.269 147.087H282.357M285.269 147.087H288.18M298.371 0V2.91262M298.371 2.91262V5.82524M298.371 2.91262H295.459M298.371 2.91262L301.283 2.91262M298.371 13.1068V16.0194M298.371 16.0194V18.932M298.371 16.0194H295.459M298.371 16.0194H301.283M298.371 26.2136V29.1262M298.371 29.1262V32.0388M298.371 29.1262H295.459M298.371 29.1262H301.283M298.371 39.3204V42.233M298.371 42.233V45.1456M298.371 42.233H295.459M298.371 42.233H301.283M298.371 52.4272V55.3398M298.371 55.3398V58.2524M298.371 55.3398H295.459M298.371 55.3398H301.283M298.371 65.534V68.4466M298.371 68.4466V71.3592M298.371 68.4466H295.459M298.371 68.4466H301.283M298.371 78.6408V81.5534M298.371 81.5534V84.466M298.371 81.5534H295.459M298.371 81.5534H301.283M298.371 91.7476V94.6602M298.371 94.6602V97.5728M298.371 94.6602H295.459M298.371 94.6602H301.283M298.371 104.854V107.767M298.371 107.767V110.68M298.371 107.767H295.459M298.371 107.767H301.283M298.371 117.961V120.874M298.371 120.874V123.786M298.371 120.874H295.459M298.371 120.874H301.283M298.371 131.068V133.981M298.371 133.981V136.893M298.371 133.981H295.459M298.371 133.981H301.283M298.371 144.175V147.087M298.371 147.087V150M298.371 147.087H295.459M298.371 147.087H301.283M311.473 0V2.91262M311.473 2.91262V5.82524M311.473 2.91262H308.562M311.473 2.91262L314.385 2.91262M311.473 13.1068V16.0194M311.473 16.0194V18.932M311.473 16.0194H308.562M311.473 16.0194H314.385M311.473 26.2136V29.1262M311.473 29.1262V32.0388M311.473 29.1262H308.562M311.473 29.1262H314.385M311.473 39.3204V42.233M311.473 42.233V45.1456M311.473 42.233H308.562M311.473 42.233H314.385M311.473 52.4272V55.3398M311.473 55.3398V58.2524M311.473 55.3398H308.562M311.473 55.3398H314.385M311.473 65.534V68.4466M311.473 68.4466V71.3592M311.473 68.4466H308.562M311.473 68.4466H314.385M311.473 78.6408V81.5534M311.473 81.5534V84.466M311.473 81.5534H308.562M311.473 81.5534H314.385M311.473 91.7476V94.6602M311.473 94.6602V97.5728M311.473 94.6602H308.562M311.473 94.6602H314.385M311.473 104.854V107.767M311.473 107.767V110.68M311.473 107.767H308.562M311.473 107.767H314.385M311.473 117.961V120.874M311.473 120.874V123.786M311.473 120.874H308.562M311.473 120.874H314.385M311.473 131.068V133.981M311.473 133.981V136.893M311.473 133.981H308.562M311.473 133.981H314.385M311.473 144.175V147.087M311.473 147.087V150M311.473 147.087H308.562M311.473 147.087H314.385M324.576 0V2.91262M324.576 2.91262V5.82524M324.576 2.91262H321.664M324.576 2.91262L327.488 2.91262M324.576 13.1068V16.0194M324.576 16.0194V18.932M324.576 16.0194H321.664M324.576 16.0194H327.488M324.576 26.2136V29.1262M324.576 29.1262V32.0388M324.576 29.1262H321.664M324.576 29.1262H327.488M324.576 39.3204V42.233M324.576 42.233V45.1456M324.576 42.233H321.664M324.576 42.233H327.488M324.576 52.4272V55.3398M324.576 55.3398V58.2524M324.576 55.3398H321.664M324.576 55.3398H327.488M324.576 65.534V68.4466M324.576 68.4466V71.3592M324.576 68.4466H321.664M324.576 68.4466H327.488M324.576 78.6408V81.5534M324.576 81.5534V84.466M324.576 81.5534H321.664M324.576 81.5534H327.488M324.576 91.7476V94.6602M324.576 94.6602V97.5728M324.576 94.6602H321.664M324.576 94.6602H327.488M324.576 104.854V107.767M324.576 107.767V110.68M324.576 107.767H321.664M324.576 107.767H327.488M324.576 117.961V120.874M324.576 120.874V123.786M324.576 120.874H321.664M324.576 120.874H327.488M324.576 131.068V133.981M324.576 133.981V136.893M324.576 133.981H321.664M324.576 133.981H327.488M324.576 144.175V147.087M324.576 147.087V150M324.576 147.087H321.664M324.576 147.087H327.488M337.678 0V2.91262M337.678 2.91262V5.82524M337.678 2.91262H334.767M337.678 2.91262L340.59 2.91262M337.678 13.1068V16.0194M337.678 16.0194V18.932M337.678 16.0194H334.767M337.678 16.0194H340.59M337.678 26.2136V29.1262M337.678 29.1262V32.0388M337.678 29.1262H334.767M337.678 29.1262H340.59M337.678 39.3204V42.233M337.678 42.233V45.1456M337.678 42.233H334.767M337.678 42.233H340.59M337.678 52.4272V55.3398M337.678 55.3398V58.2524M337.678 55.3398H334.767M337.678 55.3398H340.59M337.678 65.534V68.4466M337.678 68.4466V71.3592M337.678 68.4466H334.767M337.678 68.4466H340.59M337.678 78.6408V81.5534M337.678 81.5534V84.466M337.678 81.5534H334.767M337.678 81.5534H340.59M337.678 91.7476V94.6602M337.678 94.6602V97.5728M337.678 94.6602H334.767M337.678 94.6602H340.59M337.678 104.854V107.767M337.678 107.767V110.68M337.678 107.767H334.767M337.678 107.767H340.59M337.678 117.961V120.874M337.678 120.874V123.786M337.678 120.874H334.767M337.678 120.874H340.59M337.678 131.068V133.981M337.678 133.981V136.893M337.678 133.981H334.767M337.678 133.981H340.59M337.678 144.175V147.087M337.678 147.087V150M337.678 147.087H334.767M337.678 147.087H340.59M350.781 0V2.91262M350.781 2.91262V5.82524M350.781 2.91262H347.869M350.781 2.91262L353.693 2.91262M350.781 13.1068V16.0194M350.781 16.0194V18.932M350.781 16.0194H347.869M350.781 16.0194H353.693M350.781 26.2136V29.1262M350.781 29.1262V32.0388M350.781 29.1262H347.869M350.781 29.1262H353.693M350.781 39.3204V42.233M350.781 42.233V45.1456M350.781 42.233H347.869M350.781 42.233H353.693M350.781 52.4272V55.3398M350.781 55.3398V58.2524M350.781 55.3398H347.869M350.781 55.3398H353.693M350.781 65.534V68.4466M350.781 68.4466V71.3592M350.781 68.4466H347.869M350.781 68.4466H353.693M350.781 78.6408V81.5534M350.781 81.5534V84.466M350.781 81.5534H347.869M350.781 81.5534H353.693M350.781 91.7476V94.6602M350.781 94.6602V97.5728M350.781 94.6602H347.869M350.781 94.6602H353.693M350.781 104.854V107.767M350.781 107.767V110.68M350.781 107.767H347.869M350.781 107.767H353.693M350.781 117.961V120.874M350.781 120.874V123.786M350.781 120.874H347.869M350.781 120.874H353.693M350.781 131.068V133.981M350.781 133.981V136.893M350.781 133.981H347.869M350.781 133.981H353.693M350.781 144.175V147.087M350.781 147.087V150M350.781 147.087H347.869M350.781 147.087H353.693M363.883 0V2.91262M363.883 2.91262V5.82524M363.883 2.91262H360.972M363.883 2.91262L366.795 2.91262M363.883 13.1068V16.0194M363.883 16.0194V18.932M363.883 16.0194H360.972M363.883 16.0194H366.795M363.883 26.2136V29.1262M363.883 29.1262V32.0388M363.883 29.1262H360.972M363.883 29.1262H366.795M363.883 39.3204V42.233M363.883 42.233V45.1456M363.883 42.233H360.972M363.883 42.233H366.795M363.883 52.4272V55.3398M363.883 55.3398V58.2524M363.883 55.3398H360.972M363.883 55.3398H366.795M363.883 65.534V68.4466M363.883 68.4466V71.3592M363.883 68.4466H360.972M363.883 68.4466H366.795M363.883 78.6408V81.5534M363.883 81.5534V84.466M363.883 81.5534H360.972M363.883 81.5534H366.795M363.883 91.7476V94.6602M363.883 94.6602V97.5728M363.883 94.6602H360.972M363.883 94.6602H366.795M363.883 104.854V107.767M363.883 107.767V110.68M363.883 107.767H360.972M363.883 107.767H366.795M363.883 117.961V120.874M363.883 120.874V123.786M363.883 120.874H360.972M363.883 120.874H366.795M363.883 131.068V133.981M363.883 133.981V136.893M363.883 133.981H360.972M363.883 133.981H366.795M363.883 144.175V147.087M363.883 147.087V150M363.883 147.087H360.972M363.883 147.087H366.795M376.986 0V2.91262M376.986 2.91262V5.82524M376.986 2.91262H374.074M376.986 2.91262L379.898 2.91262M376.986 13.1068V16.0194M376.986 16.0194V18.932M376.986 16.0194H374.074M376.986 16.0194H379.898M376.986 26.2136V29.1262M376.986 29.1262V32.0388M376.986 29.1262H374.074M376.986 29.1262H379.898M376.986 39.3204V42.233M376.986 42.233V45.1456M376.986 42.233H374.074M376.986 42.233H379.898M376.986 52.4272V55.3398M376.986 55.3398V58.2524M376.986 55.3398H374.074M376.986 55.3398H379.898M376.986 65.534V68.4466M376.986 68.4466V71.3592M376.986 68.4466H374.074M376.986 68.4466H379.898M376.986 78.6408V81.5534M376.986 81.5534V84.466M376.986 81.5534H374.074M376.986 81.5534H379.898M376.986 91.7476V94.6602M376.986 94.6602V97.5728M376.986 94.6602H374.074M376.986 94.6602H379.898M376.986 104.854V107.767M376.986 107.767V110.68M376.986 107.767H374.074M376.986 107.767H379.898M376.986 117.961V120.874M376.986 120.874V123.786M376.986 120.874H374.074M376.986 120.874H379.898M376.986 131.068V133.981M376.986 133.981V136.893M376.986 133.981H374.074M376.986 133.981H379.898M376.986 144.175V147.087M376.986 147.087V150M376.986 147.087H374.074M376.986 147.087H379.898M390.088 0V2.91262M390.088 2.91262V5.82524M390.088 2.91262H387.177M390.088 2.91262L393 2.91262M390.088 13.1068V16.0194M390.088 16.0194V18.932M390.088 16.0194H387.177M390.088 16.0194H393M390.088 26.2136V29.1262M390.088 29.1262V32.0388M390.088 29.1262H387.177M390.088 29.1262H393M390.088 39.3204V42.233M390.088 42.233V45.1456M390.088 42.233H387.177M390.088 42.233H393M390.088 52.4272V55.3398M390.088 55.3398V58.2524M390.088 55.3398H387.177M390.088 55.3398H393M390.088 65.534V68.4466M390.088 68.4466V71.3592M390.088 68.4466H387.177M390.088 68.4466H393M390.088 78.6408V81.5534M390.088 81.5534V84.466M390.088 81.5534H387.177M390.088 81.5534H393M390.088 91.7476V94.6602M390.088 94.6602V97.5728M390.088 94.6602H387.177M390.088 94.6602H393M390.088 104.854V107.767M390.088 107.767V110.68M390.088 107.767H387.177M390.088 107.767H393M390.088 117.961V120.874M390.088 120.874V123.786M390.088 120.874H387.177M390.088 120.874H393M390.088 131.068V133.981M390.088 133.981V136.893M390.088 133.981H387.177M390.088 133.981H393M390.088 144.175V147.087M390.088 147.087V150M390.088 147.087H387.177M390.088 147.087H393M-16.0883 0V2.91262M-16.0883 2.91262V5.82524M-16.0883 2.91262H-19M-16.0883 2.91262L-13.1767 2.91262M-16.0883 13.1068V16.0194M-16.0883 16.0194V18.932M-16.0883 16.0194H-19M-16.0883 16.0194H-13.1767M-16.0883 26.2136V29.1262M-16.0883 29.1262V32.0388M-16.0883 29.1262H-19M-16.0883 29.1262H-13.1767M-16.0883 39.3204V42.233M-16.0883 42.233V45.1456M-16.0883 42.233H-19M-16.0883 42.233H-13.1767M-16.0883 52.4272V55.3398M-16.0883 55.3398V58.2524M-16.0883 55.3398H-19M-16.0883 55.3398H-13.1767M-16.0883 65.534V68.4466M-16.0883 68.4466V71.3592M-16.0883 68.4466H-19M-16.0883 68.4466H-13.1767M-16.0883 78.6408V81.5534M-16.0883 81.5534V84.466M-16.0883 81.5534H-19M-16.0883 81.5534H-13.1767M-16.0883 91.7476V94.6602M-16.0883 94.6602V97.5728M-16.0883 94.6602H-19M-16.0883 94.6602H-13.1767M-16.0883 104.854V107.767M-16.0883 107.767V110.68M-16.0883 107.767H-19M-16.0883 107.767H-13.1767M-16.0883 117.961V120.874M-16.0883 120.874V123.786M-16.0883 120.874H-19M-16.0883 120.874H-13.1767M-16.0883 131.068V133.981M-16.0883 133.981V136.893M-16.0883 133.981H-19M-16.0883 133.981H-13.1767M-16.0883 144.175V147.087M-16.0883 147.087V150M-16.0883 147.087H-19M-16.0883 147.087H-13.1767M-2.98587 0V2.91262M-2.98587 2.91262V5.82524M-2.98587 2.91262H-5.89753M-2.98587 2.91262L-0.0742056 2.91262M-2.98587 13.1068V16.0194M-2.98587 16.0194V18.932M-2.98587 16.0194H-5.89753M-2.98587 16.0194H-0.0742056M-2.98587 26.2136V29.1262M-2.98587 29.1262V32.0388M-2.98587 29.1262H-5.89753M-2.98587 29.1262H-0.0742056M-2.98587 39.3204V42.233M-2.98587 42.233V45.1456M-2.98587 42.233H-5.89753M-2.98587 42.233H-0.0742056M-2.98587 52.4272V55.3398M-2.98587 55.3398V58.2524M-2.98587 55.3398H-5.89753M-2.98587 55.3398H-0.0742056M-2.98587 65.534V68.4466M-2.98587 68.4466V71.3592M-2.98587 68.4466H-5.89753M-2.98587 68.4466H-0.0742056M-2.98587 78.6408V81.5534M-2.98587 81.5534V84.466M-2.98587 81.5534H-5.89753M-2.98587 81.5534H-0.0742056M-2.98587 91.7476V94.6602M-2.98587 94.6602V97.5728M-2.98587 94.6602H-5.89753M-2.98587 94.6602H-0.0742056M-2.98587 104.854V107.767M-2.98587 107.767V110.68M-2.98587 107.767H-5.89753M-2.98587 107.767H-0.0742056M-2.98587 117.961V120.874M-2.98587 120.874V123.786M-2.98587 120.874H-5.89753M-2.98587 120.874H-0.0742056M-2.98587 131.068V133.981M-2.98587 133.981V136.893M-2.98587 133.981H-5.89753M-2.98587 133.981H-0.0742056M-2.98587 144.175V147.087M-2.98587 147.087V150M-2.98587 147.087H-5.89753M-2.98587 147.087H-0.0742056M10.1166 0V2.91262M10.1166 2.91262V5.82524M10.1166 2.91262H7.20495M10.1166 2.91262L13.0283 2.91262M10.1166 13.1068V16.0194M10.1166 16.0194V18.932M10.1166 16.0194H7.20495M10.1166 16.0194H13.0283M10.1166 26.2136V29.1262M10.1166 29.1262V32.0388M10.1166 29.1262H7.20495M10.1166 29.1262H13.0283M10.1166 39.3204V42.233M10.1166 42.233V45.1456M10.1166 42.233H7.20495M10.1166 42.233H13.0283M10.1166 52.4272V55.3398M10.1166 55.3398V58.2524M10.1166 55.3398H7.20495M10.1166 55.3398H13.0283M10.1166 65.534V68.4466M10.1166 68.4466V71.3592M10.1166 68.4466H7.20495M10.1166 68.4466H13.0283M10.1166 78.6408V81.5534M10.1166 81.5534V84.466M10.1166 81.5534H7.20495M10.1166 81.5534H13.0283M10.1166 91.7476V94.6602M10.1166 94.6602V97.5728M10.1166 94.6602H7.20495M10.1166 94.6602H13.0283M10.1166 104.854V107.767M10.1166 107.767V110.68M10.1166 107.767H7.20495M10.1166 107.767H13.0283M10.1166 117.961V120.874M10.1166 120.874V123.786M10.1166 120.874H7.20495M10.1166 120.874H13.0283M10.1166 131.068V133.981M10.1166 133.981V136.893M10.1166 133.981H7.20495M10.1166 133.981H13.0283M10.1166 144.175V147.087M10.1166 147.087V150M10.1166 147.087H7.20495M10.1166 147.087H13.0283M23.2191 0V2.91262M23.2191 2.91262V5.82524M23.2191 2.91262H20.3074M23.2191 2.91262L26.1307 2.91262M23.2191 13.1068V16.0194M23.2191 16.0194V18.932M23.2191 16.0194H20.3074M23.2191 16.0194H26.1307M23.2191 26.2136V29.1262M23.2191 29.1262V32.0388M23.2191 29.1262H20.3074M23.2191 29.1262H26.1307M23.2191 39.3204V42.233M23.2191 42.233V45.1456M23.2191 42.233H20.3074M23.2191 42.233H26.1307M23.2191 52.4272V55.3398M23.2191 55.3398V58.2524M23.2191 55.3398H20.3074M23.2191 55.3398H26.1307M23.2191 65.534V68.4466M23.2191 68.4466V71.3592M23.2191 68.4466H20.3074M23.2191 68.4466H26.1307M23.2191 78.6408V81.5534M23.2191 81.5534V84.466M23.2191 81.5534H20.3074M23.2191 81.5534H26.1307M23.2191 91.7476V94.6602M23.2191 94.6602V97.5728M23.2191 94.6602H20.3074M23.2191 94.6602H26.1307M23.2191 104.854V107.767M23.2191 107.767V110.68M23.2191 107.767H20.3074M23.2191 107.767H26.1307M23.2191 117.961V120.874M23.2191 120.874V123.786M23.2191 120.874H20.3074M23.2191 120.874H26.1307M23.2191 131.068V133.981M23.2191 133.981V136.893M23.2191 133.981H20.3074M23.2191 133.981H26.1307M23.2191 144.175V147.087M23.2191 147.087V150M23.2191 147.087H20.3074M23.2191 147.087H26.1307M36.3216 0V2.91262M36.3216 2.91262V5.82524M36.3216 2.91262H33.4099M36.3216 2.91262L39.2332 2.91262M36.3216 13.1068V16.0194M36.3216 16.0194V18.932M36.3216 16.0194H33.4099M36.3216 16.0194H39.2332M36.3216 26.2136V29.1262M36.3216 29.1262V32.0388M36.3216 29.1262H33.4099M36.3216 29.1262H39.2332M36.3216 39.3204V42.233M36.3216 42.233V45.1456M36.3216 42.233H33.4099M36.3216 42.233H39.2332M36.3216 52.4272V55.3398M36.3216 55.3398V58.2524M36.3216 55.3398H33.4099M36.3216 55.3398H39.2332M36.3216 65.534V68.4466M36.3216 68.4466V71.3592M36.3216 68.4466H33.4099M36.3216 68.4466H39.2332M36.3216 78.6408V81.5534M36.3216 81.5534V84.466M36.3216 81.5534H33.4099M36.3216 81.5534H39.2332M36.3216 91.7476V94.6602M36.3216 94.6602V97.5728M36.3216 94.6602H33.4099M36.3216 94.6602H39.2332M36.3216 104.854V107.767M36.3216 107.767V110.68M36.3216 107.767H33.4099M36.3216 107.767H39.2332M36.3216 117.961V120.874M36.3216 120.874V123.786M36.3216 120.874H33.4099M36.3216 120.874H39.2332M36.3216 131.068V133.981M36.3216 133.981V136.893M36.3216 133.981H33.4099M36.3216 133.981H39.2332M36.3216 144.175V147.087M36.3216 147.087V150M36.3216 147.087H33.4099M36.3216 147.087H39.2332M49.424 0V2.91262M49.424 2.91262V5.82524M49.424 2.91262H46.5124M49.424 2.91262L52.3357 2.91262M49.424 13.1068V16.0194M49.424 16.0194V18.932M49.424 16.0194H46.5124M49.424 16.0194H52.3357M49.424 26.2136V29.1262M49.424 29.1262V32.0388M49.424 29.1262H46.5124M49.424 29.1262H52.3357M49.424 39.3204V42.233M49.424 42.233V45.1456M49.424 42.233H46.5124M49.424 42.233H52.3357M49.424 52.4272V55.3398M49.424 55.3398V58.2524M49.424 55.3398H46.5124M49.424 55.3398H52.3357M49.424 65.534V68.4466M49.424 68.4466V71.3592M49.424 68.4466H46.5124M49.424 68.4466H52.3357M49.424 78.6408V81.5534M49.424 81.5534V84.466M49.424 81.5534H46.5124M49.424 81.5534H52.3357M49.424 91.7476V94.6602M49.424 94.6602V97.5728M49.424 94.6602H46.5124M49.424 94.6602H52.3357M49.424 104.854V107.767M49.424 107.767V110.68M49.424 107.767H46.5124M49.424 107.767H52.3357M49.424 117.961V120.874M49.424 120.874V123.786M49.424 120.874H46.5124M49.424 120.874H52.3357M49.424 131.068V133.981M49.424 133.981V136.893M49.424 133.981H46.5124M49.424 133.981H52.3357M49.424 144.175V147.087M49.424 147.087V150M49.424 147.087H46.5124M49.424 147.087H52.3357M62.5265 0V2.91262M62.5265 2.91262V5.82524M62.5265 2.91262H59.6148M62.5265 2.91262L65.4382 2.91262M62.5265 13.1068V16.0194M62.5265 16.0194V18.932M62.5265 16.0194H59.6148M62.5265 16.0194H65.4382M62.5265 26.2136V29.1262M62.5265 29.1262V32.0388M62.5265 29.1262H59.6148M62.5265 29.1262H65.4382M62.5265 39.3204V42.233M62.5265 42.233V45.1456M62.5265 42.233H59.6148M62.5265 42.233H65.4382M62.5265 52.4272V55.3398M62.5265 55.3398V58.2524M62.5265 55.3398H59.6148M62.5265 55.3398H65.4382M62.5265 65.534V68.4466M62.5265 68.4466V71.3592M62.5265 68.4466H59.6148M62.5265 68.4466H65.4382M62.5265 78.6408V81.5534M62.5265 81.5534V84.466M62.5265 81.5534H59.6148M62.5265 81.5534H65.4382M62.5265 91.7476V94.6602M62.5265 94.6602V97.5728M62.5265 94.6602H59.6148M62.5265 94.6602H65.4382M62.5265 104.854V107.767M62.5265 107.767V110.68M62.5265 107.767H59.6148M62.5265 107.767H65.4382M62.5265 117.961V120.874M62.5265 120.874V123.786M62.5265 120.874H59.6148M62.5265 120.874H65.4382M62.5265 131.068V133.981M62.5265 133.981V136.893M62.5265 133.981H59.6148M62.5265 133.981H65.4382M62.5265 144.175V147.087M62.5265 147.087V150M62.5265 147.087H59.6148M62.5265 147.087H65.4382M75.629 0V2.91262M75.629 2.91262V5.82524M75.629 2.91262H72.7173M75.629 2.91262L78.5406 2.91262M75.629 13.1068V16.0194M75.629 16.0194V18.932M75.629 16.0194H72.7173M75.629 16.0194H78.5406M75.629 26.2136V29.1262M75.629 29.1262V32.0388M75.629 29.1262H72.7173M75.629 29.1262H78.5406M75.629 39.3204V42.233M75.629 42.233V45.1456M75.629 42.233H72.7173M75.629 42.233H78.5406M75.629 52.4272V55.3398M75.629 55.3398V58.2524M75.629 55.3398H72.7173M75.629 55.3398H78.5406M75.629 65.534V68.4466M75.629 68.4466V71.3592M75.629 68.4466H72.7173M75.629 68.4466H78.5406M75.629 78.6408V81.5534M75.629 81.5534V84.466M75.629 81.5534H72.7173M75.629 81.5534H78.5406M75.629 91.7476V94.6602M75.629 94.6602V97.5728M75.629 94.6602H72.7173M75.629 94.6602H78.5406M75.629 104.854V107.767M75.629 107.767V110.68M75.629 107.767H72.7173M75.629 107.767H78.5406M75.629 117.961V120.874M75.629 120.874V123.786M75.629 120.874H72.7173M75.629 120.874H78.5406M75.629 131.068V133.981M75.629 133.981V136.893M75.629 133.981H72.7173M75.629 133.981H78.5406M75.629 144.175V147.087M75.629 147.087V150M75.629 147.087H72.7173M75.629 147.087H78.5406M88.7314 0V2.91262M88.7314 2.91262V5.82524M88.7314 2.91262H85.8198M88.7314 2.91262L91.6431 2.91262M88.7314 13.1068V16.0194M88.7314 16.0194V18.932M88.7314 16.0194H85.8198M88.7314 16.0194H91.6431M88.7314 26.2136V29.1262M88.7314 29.1262V32.0388M88.7314 29.1262H85.8198M88.7314 29.1262H91.6431M88.7314 39.3204V42.233M88.7314 42.233V45.1456M88.7314 42.233H85.8198M88.7314 42.233H91.6431M88.7314 52.4272V55.3398M88.7314 55.3398V58.2524M88.7314 55.3398H85.8198M88.7314 55.3398H91.6431M88.7314 65.534V68.4466M88.7314 68.4466V71.3592M88.7314 68.4466H85.8198M88.7314 68.4466H91.6431M88.7314 78.6408V81.5534M88.7314 81.5534V84.466M88.7314 81.5534H85.8198M88.7314 81.5534H91.6431M88.7314 91.7476V94.6602M88.7314 94.6602V97.5728M88.7314 94.6602H85.8198M88.7314 94.6602H91.6431M88.7314 104.854V107.767M88.7314 107.767V110.68M88.7314 107.767H85.8198M88.7314 107.767H91.6431M88.7314 117.961V120.874M88.7314 120.874V123.786M88.7314 120.874H85.8198M88.7314 120.874H91.6431M88.7314 131.068V133.981M88.7314 133.981V136.893M88.7314 133.981H85.8198M88.7314 133.981H91.6431M88.7314 144.175V147.087M88.7314 147.087V150M88.7314 147.087H85.8198M88.7314 147.087H91.6431M101.834 0V2.91262M101.834 2.91262V5.82524M101.834 2.91262H98.9223M101.834 2.91262L104.746 2.91262M101.834 13.1068V16.0194M101.834 16.0194V18.932M101.834 16.0194H98.9223M101.834 16.0194H104.746M101.834 26.2136V29.1262M101.834 29.1262V32.0388M101.834 29.1262H98.9223M101.834 29.1262H104.746M101.834 39.3204V42.233M101.834 42.233V45.1456M101.834 42.233H98.9223M101.834 42.233H104.746M101.834 52.4272V55.3398M101.834 55.3398V58.2524M101.834 55.3398H98.9223M101.834 55.3398H104.746M101.834 65.534V68.4466M101.834 68.4466V71.3592M101.834 68.4466H98.9223M101.834 68.4466H104.746M101.834 78.6408V81.5534M101.834 81.5534V84.466M101.834 81.5534H98.9223M101.834 81.5534H104.746M101.834 91.7476V94.6602M101.834 94.6602V97.5728M101.834 94.6602H98.9223M101.834 94.6602H104.746M101.834 104.854V107.767M101.834 107.767V110.68M101.834 107.767H98.9223M101.834 107.767H104.746M101.834 117.961V120.874M101.834 120.874V123.786M101.834 120.874H98.9223M101.834 120.874H104.746M101.834 131.068V133.981M101.834 133.981V136.893M101.834 133.981H98.9223M101.834 133.981H104.746M101.834 144.175V147.087M101.834 147.087V150M101.834 147.087H98.9223M101.834 147.087H104.746M114.936 0V2.91262M114.936 2.91262V5.82524M114.936 2.91262H112.025M114.936 2.91262L117.848 2.91262M114.936 13.1068V16.0194M114.936 16.0194V18.932M114.936 16.0194H112.025M114.936 16.0194H117.848M114.936 26.2136V29.1262M114.936 29.1262V32.0388M114.936 29.1262H112.025M114.936 29.1262H117.848M114.936 39.3204V42.233M114.936 42.233V45.1456M114.936 42.233H112.025M114.936 42.233H117.848M114.936 52.4272V55.3398M114.936 55.3398V58.2524M114.936 55.3398H112.025M114.936 55.3398H117.848M114.936 65.534V68.4466M114.936 68.4466V71.3592M114.936 68.4466H112.025M114.936 68.4466H117.848M114.936 78.6408V81.5534M114.936 81.5534V84.466M114.936 81.5534H112.025M114.936 81.5534H117.848M114.936 91.7476V94.6602M114.936 94.6602V97.5728M114.936 94.6602H112.025M114.936 94.6602H117.848M114.936 104.854V107.767M114.936 107.767V110.68M114.936 107.767H112.025M114.936 107.767H117.848M114.936 117.961V120.874M114.936 120.874V123.786M114.936 120.874H112.025M114.936 120.874H117.848M114.936 131.068V133.981M114.936 133.981V136.893M114.936 133.981H112.025M114.936 133.981H117.848M114.936 144.175V147.087M114.936 147.087V150M114.936 147.087H112.025M114.936 147.087H117.848M128.039 0V2.91262M128.039 2.91262V5.82524M128.039 2.91262H125.127M128.039 2.91262L130.951 2.91262M128.039 13.1068V16.0194M128.039 16.0194V18.932M128.039 16.0194H125.127M128.039 16.0194H130.951M128.039 26.2136V29.1262M128.039 29.1262V32.0388M128.039 29.1262H125.127M128.039 29.1262H130.951M128.039 39.3204V42.233M128.039 42.233V45.1456M128.039 42.233H125.127M128.039 42.233H130.951M128.039 52.4272V55.3398M128.039 55.3398V58.2524M128.039 55.3398H125.127M128.039 55.3398H130.951M128.039 65.534V68.4466M128.039 68.4466V71.3592M128.039 68.4466H125.127M128.039 68.4466H130.951M128.039 78.6408V81.5534M128.039 81.5534V84.466M128.039 81.5534H125.127M128.039 81.5534H130.951M128.039 91.7476V94.6602M128.039 94.6602V97.5728M128.039 94.6602H125.127M128.039 94.6602H130.951M128.039 104.854V107.767M128.039 107.767V110.68M128.039 107.767H125.127M128.039 107.767H130.951M128.039 117.961V120.874M128.039 120.874V123.786M128.039 120.874H125.127M128.039 120.874H130.951M128.039 131.068V133.981M128.039 133.981V136.893M128.039 133.981H125.127M128.039 133.981H130.951M128.039 144.175V147.087M128.039 147.087V150M128.039 147.087H125.127M128.039 147.087H130.951M141.141 0V2.91262M141.141 2.91262V5.82524M141.141 2.91262H138.23M141.141 2.91262L144.053 2.91262M141.141 13.1068V16.0194M141.141 16.0194V18.932M141.141 16.0194H138.23M141.141 16.0194H144.053M141.141 26.2136V29.1262M141.141 29.1262V32.0388M141.141 29.1262H138.23M141.141 29.1262H144.053M141.141 39.3204V42.233M141.141 42.233V45.1456M141.141 42.233H138.23M141.141 42.233H144.053M141.141 52.4272V55.3398M141.141 55.3398V58.2524M141.141 55.3398H138.23M141.141 55.3398H144.053M141.141 65.534V68.4466M141.141 68.4466V71.3592M141.141 68.4466H138.23M141.141 68.4466H144.053M141.141 78.6408V81.5534M141.141 81.5534V84.466M141.141 81.5534H138.23M141.141 81.5534H144.053M141.141 91.7476V94.6602M141.141 94.6602V97.5728M141.141 94.6602H138.23M141.141 94.6602H144.053M141.141 104.854V107.767M141.141 107.767V110.68M141.141 107.767H138.23M141.141 107.767H144.053M141.141 117.961V120.874M141.141 120.874V123.786M141.141 120.874H138.23M141.141 120.874H144.053M141.141 131.068V133.981M141.141 133.981V136.893M141.141 133.981H138.23M141.141 133.981H144.053M141.141 144.175V147.087M141.141 147.087V150M141.141 147.087H138.23M141.141 147.087H144.053M154.244 0V2.91262M154.244 2.91262V5.82524M154.244 2.91262H151.332M154.244 2.91262L157.155 2.91262M154.244 13.1068V16.0194M154.244 16.0194V18.932M154.244 16.0194H151.332M154.244 16.0194H157.155M154.244 26.2136V29.1262M154.244 29.1262V32.0388M154.244 29.1262H151.332M154.244 29.1262H157.155M154.244 39.3204V42.233M154.244 42.233V45.1456M154.244 42.233H151.332M154.244 42.233H157.155M154.244 52.4272V55.3398M154.244 55.3398V58.2524M154.244 55.3398H151.332M154.244 55.3398H157.155M154.244 65.534V68.4466M154.244 68.4466V71.3592M154.244 68.4466H151.332M154.244 68.4466H157.155M154.244 78.6408V81.5534M154.244 81.5534V84.466M154.244 81.5534H151.332M154.244 81.5534H157.155M154.244 91.7476V94.6602M154.244 94.6602V97.5728M154.244 94.6602H151.332M154.244 94.6602H157.155M154.244 104.854V107.767M154.244 107.767V110.68M154.244 107.767H151.332M154.244 107.767H157.155M154.244 117.961V120.874M154.244 120.874V123.786M154.244 120.874H151.332M154.244 120.874H157.155M154.244 131.068V133.981M154.244 133.981V136.893M154.244 133.981H151.332M154.244 133.981H157.155M154.244 144.175V147.087M154.244 147.087V150M154.244 147.087H151.332M154.244 147.087H157.155M167.346 0V2.91262M167.346 2.91262V5.82524M167.346 2.91262H164.435M167.346 2.91262L170.258 2.91262M167.346 13.1068V16.0194M167.346 16.0194V18.932M167.346 16.0194H164.435M167.346 16.0194H170.258M167.346 26.2136V29.1262M167.346 29.1262V32.0388M167.346 29.1262H164.435M167.346 29.1262H170.258M167.346 39.3204V42.233M167.346 42.233V45.1456M167.346 42.233H164.435M167.346 42.233H170.258M167.346 52.4272V55.3398M167.346 55.3398V58.2524M167.346 55.3398H164.435M167.346 55.3398H170.258M167.346 65.534V68.4466M167.346 68.4466V71.3592M167.346 68.4466H164.435M167.346 68.4466H170.258M167.346 78.6408V81.5534M167.346 81.5534V84.466M167.346 81.5534H164.435M167.346 81.5534H170.258M167.346 91.7476V94.6602M167.346 94.6602V97.5728M167.346 94.6602H164.435M167.346 94.6602H170.258M167.346 104.854V107.767M167.346 107.767V110.68M167.346 107.767H164.435M167.346 107.767H170.258M167.346 117.961V120.874M167.346 120.874V123.786M167.346 120.874H164.435M167.346 120.874H170.258M167.346 131.068V133.981M167.346 133.981V136.893M167.346 133.981H164.435M167.346 133.981H170.258M167.346 144.175V147.087M167.346 147.087V150M167.346 147.087H164.435M167.346 147.087H170.258M180.449 0V2.91262M180.449 2.91262V5.82524M180.449 2.91262H177.537M180.449 2.91262L183.36 2.91262M180.449 13.1068V16.0194M180.449 16.0194V18.932M180.449 16.0194H177.537M180.449 16.0194H183.36M180.449 26.2136V29.1262M180.449 29.1262V32.0388M180.449 29.1262H177.537M180.449 29.1262H183.36M180.449 39.3204V42.233M180.449 42.233V45.1456M180.449 42.233H177.537M180.449 42.233H183.36M180.449 52.4272V55.3398M180.449 55.3398V58.2524M180.449 55.3398H177.537M180.449 55.3398H183.36M180.449 65.534V68.4466M180.449 68.4466V71.3592M180.449 68.4466H177.537M180.449 68.4466H183.36M180.449 78.6408V81.5534M180.449 81.5534V84.466M180.449 81.5534H177.537M180.449 81.5534H183.36M180.449 91.7476V94.6602M180.449 94.6602V97.5728M180.449 94.6602H177.537M180.449 94.6602H183.36M180.449 104.854V107.767M180.449 107.767V110.68M180.449 107.767H177.537M180.449 107.767H183.36M180.449 117.961V120.874M180.449 120.874V123.786M180.449 120.874H177.537M180.449 120.874H183.36M180.449 131.068V133.981M180.449 133.981V136.893M180.449 133.981H177.537M180.449 133.981H183.36M180.449 144.175V147.087M180.449 147.087V150M180.449 147.087H177.537M180.449 147.087H183.36" stroke="white" stroke-opacity="0.3"/>
</svg>
