<svg width="54" height="54" viewBox="0 0 54 54" fill="none" xmlns="http://www.w3.org/2000/svg">
<path d="M20.7893 17.9512H18.9941V19.7463H20.7893V17.9512Z" fill="white"/>
<path d="M20.7893 21.5417H18.9941V23.3369H20.7893V21.5417Z" fill="white"/>
<path d="M20.7893 25.1321H18.9941V26.9272H20.7893V25.1321Z" fill="white"/>
<path d="M20.7893 28.7222H18.9941V30.5173H20.7893V28.7222Z" fill="white"/>
<path d="M24.3801 17.9512H22.585V19.7463H24.3801V17.9512Z" fill="white"/>
<path d="M24.3801 21.5417H22.585V23.3369H24.3801V21.5417Z" fill="white"/>
<path d="M24.3801 25.1321H22.585V26.9272H24.3801V25.1321Z" fill="white"/>
<path d="M24.3801 28.7222H22.585V30.5173H24.3801V28.7222Z" fill="white"/>
<path d="M27.9699 17.9512H26.1748V19.7463H27.9699V17.9512Z" fill="white"/>
<path d="M27.9699 21.5417H26.1748V23.3369H27.9699V21.5417Z" fill="white"/>
<path d="M27.9699 25.1321H26.1748V26.9272H27.9699V25.1321Z" fill="white"/>
<path d="M27.9699 28.7222H26.1748V30.5173H27.9699V28.7222Z" fill="white"/>
<path d="M31.5608 17.9512H29.7656V19.7463H31.5608V17.9512Z" fill="white"/>
<path d="M24.3801 14.3613H22.585V16.1565H24.3801V14.3613Z" fill="white"/>
<path d="M27.9699 14.3613H26.1748V16.1565H27.9699V14.3613Z" fill="white"/>
<path d="M31.5608 14.3613H29.7656V16.1565H31.5608V14.3613Z" fill="white"/>
<path d="M31.5608 21.5417H29.7656V23.3369H31.5608V21.5417Z" fill="white"/>
<path d="M31.5608 25.1321H29.7656V26.9272H31.5608V25.1321Z" fill="white"/>
<path d="M31.5608 28.7222H29.7656V30.5173H31.5608V28.7222Z" fill="white"/>
<path d="M35.1506 17.9512H33.3555V19.7463H35.1506V17.9512Z" fill="white"/>
<path d="M35.1506 21.5417H33.3555V23.3369H35.1506V21.5417Z" fill="white"/>
<path d="M35.1506 25.1321H33.3555V26.9272H35.1506V25.1321Z" fill="white"/>
<path d="M35.1506 28.7222H33.3555V30.5173H35.1506V28.7222Z" fill="white"/>
<path d="M53.1031 13.4635C53.1028 13.4635 53.1024 13.4635 53.1021 13.4635H39.6386V0.89757C39.6389 0.402111 39.2375 0.0003368 38.742 2.11507e-07C38.7417 2.11507e-07 38.7413 2.11507e-07 38.741 2.11507e-07H15.4042C14.9087 -0.000336377 14.507 0.401102 14.5066 0.89656C14.5066 0.896897 14.5066 0.897233 14.5066 0.89757V13.4635H1.04308C0.547619 13.4632 0.145845 13.8646 0.145508 14.3601C0.145508 14.3604 0.145508 14.3608 0.145508 14.3611V46.6736C0.145171 47.1691 0.546609 47.5708 1.04207 47.5712C1.0424 47.5712 1.04274 47.5712 1.04308 47.5712H2.91933C2.86728 47.8676 2.84012 48.1678 2.83822 48.4688V52.9566C2.83788 53.4521 3.23932 53.8538 3.73478 53.8542C3.73511 53.8542 3.73545 53.8542 3.73579 53.8542H50.4094C50.9049 53.8545 51.3066 53.4531 51.307 52.9576C51.307 52.9573 51.307 52.9569 51.307 52.9566V48.4688C51.3052 48.1678 51.278 47.8676 51.2259 47.5712H53.1021C53.5976 47.5715 53.9993 47.1701 53.9997 46.6746C53.9997 46.6743 53.9997 46.674 53.9997 46.6736V14.3611C54 13.8657 53.5986 13.4639 53.1031 13.4635ZM38.741 38.5955C38.741 39.587 37.9373 40.3906 36.9459 40.3906C35.9544 40.3906 35.1507 39.587 35.1507 38.5955C35.1507 37.604 35.9544 36.8004 36.9459 36.8004C37.9368 36.8016 38.7398 37.6046 38.741 38.5955ZM17.1993 36.8004C18.1908 36.8004 18.9945 37.604 18.9945 38.5955C18.9945 39.587 18.1908 40.3906 17.1993 40.3906C16.2078 40.3906 15.4042 39.587 15.4042 38.5955C15.4054 37.6046 16.2084 36.8016 17.1993 36.8004ZM11.8139 52.059H4.63336V48.4688C4.63336 46.4859 6.24079 44.8785 8.22363 44.8785C10.2065 44.8785 11.8139 46.4859 11.8139 48.4688V52.059ZM6.42849 41.2882C6.42849 40.2967 7.23216 39.4931 8.22363 39.4931C9.21511 39.4931 10.0188 40.2967 10.0188 41.2882C10.0188 42.2797 9.21511 43.0833 8.22363 43.0833C7.23272 43.0821 6.42973 42.2791 6.42849 41.2882ZM11.9499 44.5896C11.6114 44.2631 11.2318 43.9821 10.8208 43.7538C12.1898 42.3195 12.1369 40.0469 10.7026 38.6777C9.26829 37.3086 6.99565 37.3616 5.62652 38.7959C4.30226 40.1832 4.30226 42.3664 5.62652 43.7537C4.76979 44.2292 4.05801 44.9281 3.56682 45.7759H1.94065V15.2587H14.5066V36.2457C13.274 37.6287 13.3157 39.7281 14.6022 41.0611C13.2559 41.8058 12.2911 43.0893 11.9499 44.5896ZM20.7896 52.059H13.609V45.776C13.609 43.7932 15.2165 42.1858 17.1993 42.1858C19.1822 42.1858 20.7896 43.7932 20.7896 45.776V52.059ZM31.5604 52.059H22.5847V45.776C22.5847 43.2975 24.5941 41.2882 27.0726 41.2882C29.5511 41.2882 31.5604 43.2975 31.5604 45.776V52.059ZM24.3799 36.8004C24.3799 35.3132 25.5854 34.1076 27.0726 34.1076C28.5598 34.1076 29.7653 35.3132 29.7653 36.8004C29.7653 38.2875 28.5598 39.4931 27.0726 39.4931C25.5861 39.4915 24.3815 38.2868 24.3799 36.8004ZM32.539 42.6901C31.938 41.6305 31.0438 40.7672 29.9638 40.2038C31.8596 38.607 32.1019 35.7758 30.5052 33.88C28.9085 31.9842 26.0772 31.7419 24.1814 33.3385C22.2856 34.9353 22.0433 37.7666 23.6399 39.6624C23.8047 39.8579 23.9857 40.039 24.1814 40.2038C23.1014 40.7672 22.2072 41.6305 21.6062 42.6901C21.1343 42.0169 20.5154 41.4599 19.7964 41.0611C21.1725 39.6534 21.1469 37.3966 19.7391 36.0205C18.8327 35.1343 17.5239 34.7964 16.3018 35.1327V1.79514H37.8434V35.1327C37.5509 35.052 37.2492 35.0091 36.9459 35.0052C34.9683 34.9999 33.3609 36.5988 33.3556 38.5765C33.3531 39.5019 33.7091 40.3924 34.3487 41.0611C33.6298 41.4599 33.0109 42.0169 32.539 42.6901ZM40.5361 48.4688V52.059H33.3556V45.776C33.3556 43.7932 34.963 42.1858 36.9459 42.1858C38.9287 42.1858 40.5361 43.7932 40.5361 45.776V48.4688ZM49.5118 52.059H42.3313V48.4688C42.3313 46.4859 43.9387 44.8785 45.9216 44.8785C47.9044 44.8785 49.5118 46.4859 49.5118 48.4688V52.059ZM44.1264 41.2882C44.1264 40.2967 44.9301 39.4931 45.9216 39.4931C46.913 39.4931 47.7167 40.2967 47.7167 41.2882C47.7167 42.2797 46.913 43.0833 45.9216 43.0833C44.9306 43.0821 44.1276 42.2791 44.1264 41.2882ZM52.2045 45.776H50.5784C50.0872 44.9282 49.3754 44.2293 48.5187 43.7538C49.8877 42.3195 49.8348 40.0469 48.4005 38.6777C46.9662 37.3087 44.6936 37.3616 43.3244 38.7959C42.0002 40.1832 42.0002 42.3664 43.3244 43.7537C42.9133 43.982 42.5337 44.263 42.1953 44.5895C41.8542 43.0892 40.8893 41.8056 39.543 41.061C40.8295 39.728 40.8713 37.6286 39.6387 36.2455V15.2587H52.2047V45.776H52.2045Z" fill="white"/>
<path d="M44.1262 20.6443H42.3311V35.0054H44.1262V20.6443Z" fill="white"/>
<path d="M49.5119 20.6443H47.7168V35.0054H49.5119V20.6443Z" fill="white"/>
<path d="M6.42893 20.6443H4.63379V35.0054H6.42893V20.6443Z" fill="white"/>
<path d="M11.8137 20.6443H10.0186V35.0054H11.8137V20.6443Z" fill="white"/>
<path d="M32.4595 3.59009C32.4591 3.59009 32.4588 3.59009 32.4584 3.59009H21.6876C21.1922 3.58975 20.7904 3.99119 20.79 4.48665C20.79 4.48698 20.79 4.48732 20.79 4.48766V11.6682C20.7897 12.1637 21.1911 12.5654 21.6866 12.5658C21.6869 12.5658 21.6873 12.5658 21.6876 12.5658H32.4584C32.9539 12.5661 33.3557 12.1647 33.356 11.6692C33.356 11.6689 33.356 11.6685 33.356 11.6682V4.48766C33.3563 3.9922 32.9549 3.59042 32.4595 3.59009ZM31.5609 10.7706H22.5852V5.38523H31.5609V10.7706Z" fill="white"/>
</svg>
