<svg width="52" height="52" viewBox="0 0 52 52" fill="none" xmlns="http://www.w3.org/2000/svg">
<path d="M44.497 45.5056C43.9413 45.5056 43.4902 45.9567 43.4902 46.5124C43.4902 47.0681 43.9413 47.5192 44.497 47.5192C45.0527 47.5192 45.5038 47.0681 45.5038 46.5124C45.5038 45.9567 45.0527 45.5056 44.497 45.5056Z" fill="white"/>
<path d="M38.1542 45.5056C37.5985 45.5056 37.1475 45.9567 37.1475 46.5124C37.1475 47.0681 37.5985 47.5192 38.1542 47.5192C38.7099 47.5192 39.161 47.0681 39.161 46.5124C39.161 45.9567 38.7099 45.5056 38.1542 45.5056Z" fill="white"/>
<path d="M32.1142 45.5056C31.5585 45.5056 31.1074 45.9567 31.1074 46.5124C31.1074 47.0681 31.5585 47.5192 32.1142 47.5192C32.6699 47.5192 33.121 47.0681 33.121 46.5124C33.121 45.9567 32.6699 45.5056 32.1142 45.5056Z" fill="white"/>
<path d="M25.4697 45.5056C24.914 45.5056 24.4629 45.9567 24.4629 46.5124C24.4629 47.0681 24.914 47.5192 25.4697 47.5192C26.0254 47.5192 26.4764 47.0681 26.4764 46.5124C26.4764 45.9567 26.0254 45.5056 25.4697 45.5056Z" fill="white"/>
<path d="M19.4287 45.5056C18.8729 45.5056 18.4219 45.9567 18.4219 46.5124C18.4219 47.0681 18.8729 47.5192 19.4287 47.5192C19.9844 47.5192 20.4354 47.0681 20.4354 46.5124C20.4354 45.9567 19.9844 45.5056 19.4287 45.5056Z" fill="white"/>
<path d="M13.3876 45.5056C12.8319 45.5056 12.3809 45.9567 12.3809 46.5124C12.3809 47.0681 12.8319 47.5192 13.3876 47.5192C13.9433 47.5192 14.3944 47.0681 14.3944 46.5124C14.3944 45.9567 13.9433 45.5056 13.3876 45.5056Z" fill="white"/>
<path d="M7.3476 45.5056C6.79189 45.5056 6.34082 45.9567 6.34082 46.5124C6.34082 47.0681 6.79189 47.5192 7.3476 47.5192C7.9033 47.5192 8.35438 47.0681 8.35438 46.5124C8.35438 45.9567 7.9033 45.5056 7.3476 45.5056Z" fill="white"/>
<path d="M46.8125 41.4705H45.5037V31.2097C45.5037 30.6537 45.053 30.2029 44.497 30.2029H36.1408C35.5848 30.2029 35.134 30.6537 35.134 31.2097V41.4705H26.4759V28.1894C26.4759 26.4193 25.9126 24.7396 24.8468 23.3319C23.8676 22.0385 22.4962 21.0573 20.9648 20.5473L14.3572 14.2609L34.9287 11.7585C35.2906 12.1617 35.6958 12.5197 36.1407 12.8294V16.1082H35.1339C34.7526 16.1082 34.404 16.3237 34.2335 16.6648L32.22 20.6918C32.0262 21.0794 32.1021 21.5475 32.4085 21.8538L36.4355 25.8808C36.8287 26.274 37.4661 26.274 37.8594 25.8808C38.2526 25.4877 38.2526 24.8502 37.8594 24.4569L34.3454 20.943L35.7562 18.1216H44.5794L45.9903 20.943L42.4763 24.4569C42.0831 24.8501 42.0831 25.4876 42.4763 25.8808C42.6728 26.0774 42.9306 26.1757 43.1882 26.1757C43.4458 26.1757 43.7035 26.0774 43.9001 25.8808L47.9271 21.8538C48.2334 21.5474 48.3095 21.0793 48.1156 20.6918L46.1021 16.6648C45.9316 16.3237 45.5829 16.1082 45.2016 16.1082H44.1948V12.8298C46.071 11.5198 47.2151 9.35567 47.2151 7.04734C47.2151 3.16143 44.0536 0 40.1677 0C37.5516 0 35.1835 1.43509 33.9623 3.70616L9.42913 4.22873C9.34081 4.23064 9.25601 4.24494 9.17494 4.268C8.58026 4.10899 7.96765 4.02711 7.34749 4.02711C3.46158 4.02711 0.30015 7.18854 0.30015 11.0745C0.30015 14.8289 3.2514 17.9064 6.95574 18.1103L11.533 24.0176C10.7694 25.272 10.3678 26.6991 10.3678 28.1894V41.4705H5.33394C3.98767 41.4705 2.72167 41.995 1.76918 42.9476C0.81658 43.9002 0.291992 45.1661 0.291992 46.5125C0.291992 49.2926 2.55379 51.5544 5.33394 51.5544H46.8125C48.1588 51.5544 49.4248 51.0299 50.3773 50.0773C51.3299 49.1248 51.8545 47.8588 51.8545 46.5125C51.8545 43.7323 49.5927 41.4705 46.8125 41.4705ZM42.1814 16.1082H38.1544V13.801C38.8046 13.9945 39.4831 14.0947 40.1679 14.0947C40.8527 14.0947 41.5312 13.9945 42.1815 13.801V16.1082H42.1814ZM35.5279 5.0916C35.5279 5.09149 35.528 5.09139 35.528 5.09129C36.3175 3.22165 38.1387 2.01366 40.1678 2.01366C42.9434 2.01366 45.2016 4.27183 45.2016 7.04745C45.2016 8.83904 44.2369 10.51 42.6838 11.4082C41.923 11.8486 41.053 12.0812 40.1678 12.0812C39.2827 12.0812 38.4126 11.8485 37.6516 11.4081C37.0658 11.0692 36.562 10.6242 36.1537 10.0845C35.4867 9.20512 35.1341 8.15483 35.1341 7.04745C35.1342 6.36787 35.2667 5.70984 35.5279 5.0916ZM37.1476 32.2165H43.4902V41.4787H37.1476V32.2165ZM20.1474 22.3995C20.148 22.3997 20.1487 22.3999 20.1494 22.4001C22.6888 23.1555 24.4624 25.5361 24.4624 28.1895C24.4624 31.5203 21.7527 34.23 18.4219 34.23C15.091 34.23 12.3813 31.5202 12.3813 28.1895C12.3813 26.8753 12.7959 25.6266 13.5804 24.5777C14.7335 23.0341 16.4982 22.1489 18.4219 22.1489C19.012 22.1488 19.5925 22.2331 20.1474 22.3995ZM24.4624 33.5083V41.4787H12.3813V33.5083C13.8583 35.1837 16.0181 36.2435 18.4219 36.2435C20.8256 36.2435 22.9854 35.1836 24.4624 33.5083ZM33.2438 5.73542C33.1629 6.16484 33.1206 6.60272 33.1206 7.04734C33.1206 8.03741 33.3229 8.99463 33.7117 9.87815L14.2974 12.2399C14.361 11.8574 14.3948 11.4685 14.3948 11.0745C14.3948 9.2036 13.6582 7.46377 12.419 6.17894L33.2438 5.73542ZM7.14366 16.103C4.46221 15.9957 2.3136 13.7817 2.3136 11.0745C2.3136 8.29884 4.57178 6.04067 7.34739 6.04067C7.89958 6.04067 8.4433 6.12959 8.96335 6.30493C11.0077 6.99739 12.3812 8.91407 12.3812 11.0745C12.3812 11.754 12.2487 12.4121 11.9871 13.0308C11.9183 13.1937 11.8382 13.3582 11.75 13.5176C10.9184 15.0125 9.37465 15.9826 7.67238 16.0952C7.49997 16.0512 7.31748 16.053 7.14366 16.103ZM9.2975 17.8453C10.6597 17.4509 11.8819 16.6503 12.7902 15.5491L17.6509 20.1735C15.8406 20.3501 14.133 21.1423 12.8268 22.4L9.2975 17.8453ZM48.9419 48.642C48.3728 49.2111 47.6165 49.5246 46.8125 49.5246H5.33394C3.67296 49.5246 2.32186 48.1734 2.32186 46.5124C2.32186 45.7084 2.63537 44.9521 3.20457 44.3829C3.77367 43.8138 4.52999 43.5003 5.33394 43.5003H11.3745C11.4162 43.5003 11.4571 43.4971 11.4975 43.4922H25.3463C25.3867 43.4971 25.4276 43.5003 25.4693 43.5003H36.1409C36.1826 43.5003 36.2235 43.4971 36.2639 43.4922H44.3743C44.4147 43.4971 44.4556 43.5003 44.4973 43.5003H46.8128C48.4737 43.5003 49.8249 44.8515 49.8249 46.5125C49.8246 47.3164 49.5111 48.0728 48.9419 48.642Z" fill="white"/>
<path d="M40.1678 4.02734C38.5024 4.02734 37.1475 5.38227 37.1475 7.04768C37.1475 8.71309 38.5024 10.0679 40.1678 10.0679C41.8332 10.0679 43.188 8.71299 43.188 7.04768C43.188 5.38227 41.8331 4.02734 40.1678 4.02734ZM40.1678 8.05446C39.6127 8.05446 39.161 7.60278 39.161 7.04768C39.161 6.49257 39.6127 6.0409 40.1678 6.0409C40.7229 6.0409 41.1746 6.49257 41.1746 7.04768C41.1746 7.60278 40.7229 8.05446 40.1678 8.05446Z" fill="white"/>
<path d="M7.34748 8.0542C5.68207 8.0542 4.32715 9.40913 4.32715 11.0745C4.32715 12.7399 5.68207 14.0948 7.34748 14.0948C9.01289 14.0948 10.3678 12.7398 10.3678 11.0745C10.3677 9.40902 9.01289 8.0542 7.34748 8.0542ZM7.34748 12.0812C6.79238 12.0812 6.3407 11.6295 6.3407 11.0744C6.3407 10.5193 6.79238 10.0677 7.34748 10.0677C7.90258 10.0677 8.35426 10.5193 8.35426 11.0744C8.35426 11.6295 7.90258 12.0812 7.34748 12.0812Z" fill="white"/>
<path d="M18.4215 24.1624C16.201 24.1624 14.3945 25.9688 14.3945 28.1894C14.3945 30.4099 16.201 32.2164 18.4215 32.2164C20.6421 32.2164 22.4486 30.4099 22.4486 28.1894C22.4486 25.9689 20.6421 24.1624 18.4215 24.1624ZM18.4215 30.2029C17.3112 30.2029 16.408 29.2997 16.408 28.1894C16.408 27.0792 17.3112 26.1758 18.4215 26.1758C19.5317 26.1758 20.4351 27.0791 20.4351 28.1894C20.4351 29.2997 19.5318 30.2029 18.4215 30.2029Z" fill="white"/>
</svg>
