<svg width="55" height="55" viewBox="0 0 55 55" fill="none" xmlns="http://www.w3.org/2000/svg">
<path d="M2.33309 31.2136H6.31756C6.83974 33.5445 7.75164 35.7452 9.03242 37.7657L6.21444 40.5837C5.30265 41.4957 5.30254 42.9713 6.21444 43.8834L9.38863 47.0575C10.3006 47.9693 11.7762 47.9694 12.6883 47.0575L15.5062 44.2395C17.5268 45.5202 19.7273 46.4318 22.0585 46.9543V50.9388C22.0585 52.2254 23.1051 53.2719 24.3915 53.2719H28.8806C30.1672 53.2719 31.2137 52.2253 31.2137 50.9388V46.9541C31.983 46.7813 32.746 46.562 33.4947 46.3009C34.4093 50.5572 37.809 53.9365 42.2462 54.7094C42.6825 54.7857 43.1017 54.4938 43.1783 54.0539C43.2546 53.6156 42.9612 53.1983 42.5228 53.1218C38.0515 52.343 34.8604 48.4738 34.8604 43.9961C34.8604 38.8877 39.0162 34.732 44.1244 34.732C49.2219 34.732 53.3885 38.8794 53.3885 43.9961C53.3885 48.3821 50.2743 52.1998 45.9836 53.0735C45.5476 53.1623 45.2661 53.5877 45.3548 54.024C45.4437 54.46 45.8705 54.7414 46.3052 54.6527C51.3433 53.6266 55 49.145 55 43.9962C55 38.7624 51.2835 34.3806 46.3511 33.3502C46.59 32.6484 46.7924 31.9338 46.9542 31.2136H50.9387C52.2253 31.2136 53.2719 30.167 53.2719 28.8805V28.4893C53.2719 28.0443 52.9113 27.6837 52.4662 27.6837C52.0212 27.6837 51.6606 28.0443 51.6606 28.4893V28.8805C51.6606 29.2784 51.3368 29.6021 50.9388 29.6021H46.5529C46.0255 29.6021 45.5658 29.9782 45.4601 30.4963C45.2781 31.3889 45.0296 32.2746 44.7195 33.1369C44.7195 33.1369 44.4433 33.1205 44.1245 33.1205C42.9287 33.1205 41.7778 33.315 40.7007 33.6732C45.8569 23.4621 38.4439 10.9372 26.6669 10.9372C18.0713 10.9372 10.9889 17.9021 10.9687 26.6005C10.9687 26.6035 10.9683 26.6064 10.9683 26.6094C10.9683 26.6132 10.9685 26.6171 10.9685 26.621C10.9685 26.626 10.9683 26.631 10.9683 26.6359C10.9683 38.3558 23.4214 45.9376 33.783 40.6296C33.437 41.6902 33.249 42.8214 33.249 43.9961C33.249 44.2373 33.2633 44.561 33.27 44.6706C32.3647 45.0037 31.4343 45.2685 30.4964 45.4598C29.9784 45.5655 29.6023 46.025 29.6023 46.5526V50.9386C29.6023 51.3365 29.2786 51.6603 28.8807 51.6603H24.3917C23.9938 51.6603 23.67 51.3365 23.67 50.9386V46.5526C23.67 46.0252 23.2939 45.5655 22.7757 45.4598C20.369 44.969 18.1079 44.0321 16.0551 42.6751C15.6145 42.3841 15.0236 42.4433 14.6507 42.8159L11.5488 45.9178C11.267 46.1998 10.8103 46.2 10.5282 45.9178L7.35396 42.7436C7.07209 42.462 7.07177 42.0052 7.35396 41.7229L10.4558 38.6211C10.8286 38.2482 10.8878 37.6573 10.5965 37.2163C9.23953 35.1637 8.30282 32.9028 7.81201 30.496C7.70631 29.978 7.24676 29.6019 6.71921 29.6019H2.33309C1.9352 29.6019 1.61143 29.2781 1.61143 28.8803V24.3915C1.61143 23.9935 1.9352 23.6698 2.33309 23.6698H6.7191C7.24644 23.6698 7.70609 23.2938 7.8119 22.7755C8.3025 20.3693 9.23943 18.1081 10.5965 16.0551C10.8878 15.6141 10.8285 15.0233 10.4557 14.6505L7.35375 11.5485C7.07188 11.2666 7.07166 10.81 7.35386 10.5279L10.5281 7.35375C10.8094 7.0722 11.2672 7.0722 11.5487 7.35375L14.6506 10.4555C15.0235 10.8285 15.6145 10.8875 16.0554 10.5963C18.1079 9.23932 20.3689 8.3026 22.7756 7.8118C23.2937 7.70609 23.6699 7.24644 23.6699 6.71889V2.33319C23.6699 1.9353 23.9937 1.61154 24.3915 1.61154H28.8806C29.2785 1.61154 29.6022 1.9353 29.6022 2.33319V6.7191C29.6022 7.24654 29.9783 7.7062 30.4966 7.81201C32.9029 8.3026 35.1639 9.23953 37.2165 10.5963C37.6577 10.8881 38.2487 10.8288 38.6216 10.4558L41.7235 7.35396C42.0052 7.07198 42.462 7.07177 42.7441 7.35396L45.9184 10.5282C46.2002 10.81 46.2005 11.2666 45.9183 11.5487L42.8164 14.6506C42.4433 15.0237 42.3843 15.6148 42.6757 16.0554C44.0327 18.1081 44.9694 20.3691 45.4602 22.776C45.566 23.2939 46.0256 23.67 46.5531 23.67H50.939C51.3369 23.67 51.6607 23.9938 51.6607 24.3917V29.0265C51.6607 29.4715 52.0213 29.8321 52.4664 29.8321C52.9114 29.8321 53.272 29.4715 53.272 29.0265V24.3917C53.272 23.1051 52.2254 22.0586 50.9389 22.0586H46.9545C46.4323 19.7278 45.5205 17.5271 44.2396 15.5063L47.0576 12.6883C47.9693 11.7764 47.9696 10.3008 47.0576 9.38874L43.8835 6.21455C42.9716 5.30286 41.4959 5.30254 40.5839 6.21455L37.7658 9.03253C35.7449 7.75164 33.5445 6.83995 31.2137 6.31767V2.33309C31.2137 1.0465 30.1671 0 28.8806 0H24.3915C23.105 0 22.0585 1.04661 22.0585 2.33309V6.31756C19.7277 6.83974 17.5268 7.75164 15.5063 9.03242L12.6883 6.21444C11.7784 5.30479 10.2985 5.30479 9.38863 6.21444L6.21444 9.38863C5.30275 10.3005 5.30243 11.7763 6.21444 12.6881L9.03242 15.5062C7.75142 17.5272 6.83985 19.7276 6.31756 22.0585H2.33298C1.04661 22.0583 0 23.105 0 24.3915V28.8805C0 30.167 1.04661 31.2136 2.33309 31.2136ZM27.4416 14.3835V12.5704C27.4574 12.5712 27.473 12.5725 27.4888 12.5734C29.3437 12.6821 31.2219 13.1615 32.9758 14.0432L32.0691 15.6136C30.6254 14.9043 29.0503 14.4856 27.4416 14.3835ZM25.8302 14.3878C24.2243 14.4976 22.6541 14.9227 21.2161 15.6371L20.3792 14.1876L20.3106 14.0687C22.0179 13.2025 23.8901 12.694 25.8036 12.576C25.8125 12.5755 25.8214 12.5749 25.8303 12.5743L25.8302 14.3878ZM19.8232 16.4477C18.4934 17.3438 17.3474 18.4939 16.4551 19.8279C15.6859 19.3838 16.0681 19.6044 14.8854 18.9215C15.9728 17.2782 17.3264 15.9301 18.9169 14.8782L19.3389 15.6091L19.8232 16.4477ZM12.6043 27.4418H14.4178C14.5251 29.0469 14.9375 30.5833 15.6488 32.0228L14.0779 32.9296C13.2193 31.2295 12.7173 29.3589 12.6043 27.4418ZM15.6493 21.2231C14.9471 22.6496 14.5286 24.2079 14.4188 25.8038H12.6047C12.7147 23.9436 13.1889 22.0818 14.079 20.3166L15.6258 21.2097L15.6493 21.2231ZM34.3702 14.8511C35.9615 15.8993 37.3358 17.2361 38.4307 18.8959C37.859 19.2259 37.4241 19.4769 36.8759 19.7936C36.0252 18.5366 34.6205 17.1926 33.4709 16.4088L34.3702 14.8511ZM40.7285 25.8037H38.915C38.8059 24.2008 38.3825 22.6328 37.6701 21.1955L39.2393 20.2894C40.1072 22.0035 40.6172 23.8915 40.7285 25.8037ZM38.9148 27.4418H40.7285C40.6178 29.3423 40.1115 31.2335 39.2393 32.9558L37.6703 32.0498C38.3811 30.617 38.8051 29.0418 38.9148 27.4418ZM14.8729 34.3313L16.6556 33.302C17.2889 32.9364 17.5209 32.139 17.1836 31.4871C16.4036 29.9787 16.0057 28.3424 16.0009 26.6233C16.0112 22.7276 18.1091 19.2813 21.3142 17.4137C21.3145 17.4136 21.3148 17.4133 21.3148 17.4133C22.9258 16.4745 24.7666 15.9757 26.6379 15.9707C26.6379 15.9707 26.6383 15.9707 26.6385 15.9707L26.6666 15.9703C29.2871 15.9703 30.8969 16.8492 32.0174 17.4112C33.1322 17.9686 35.1665 19.8596 35.8733 21.2544C35.8755 21.2587 35.8942 21.2934 35.8942 21.2934C36.8331 22.9083 37.33 24.7512 37.332 26.6235C37.33 28.3383 36.9311 29.977 36.1456 31.494C35.8025 32.1573 36.0376 32.968 36.6812 33.3395L38.4414 34.3559C38.2923 34.582 38.1387 34.8059 37.9756 35.025C36.8476 35.7988 35.8879 36.764 35.1197 37.8966C28.6257 42.7874 19.3488 41.1676 14.8729 34.3313Z" fill="white"/>
</svg>
