<svg width="86" height="81" viewBox="0 0 86 81" fill="none" xmlns="http://www.w3.org/2000/svg">
<path d="M61.4981 18.5128L61.4982 18.5128C62.2121 18.3797 62.8997 18.8512 63.0333 19.5667C63.1663 20.2818 62.6939 20.9692 61.9799 21.1028C61.9798 21.1028 61.9798 21.1028 61.9797 21.1028L58.7406 21.7058L57.7042 21.8987L58.5094 22.5792C70.9566 33.0988 71.6762 52.0561 60.11 63.5215C59.5934 64.0332 58.7603 64.0293 58.2484 63.5123L58.2483 63.5122C57.7363 62.9954 57.7402 62.1612 58.2564 61.6497L58.2564 61.6496C68.5216 51.4733 68.1555 34.5934 57.2131 24.9393L56.1251 23.9794L56.3908 25.4058L56.9494 28.4044C56.9494 28.4044 56.9494 28.4045 56.9494 28.4045C57.076 29.0849 56.6547 29.7411 55.998 29.9174C55.2528 30.117 54.5012 29.6389 54.3609 28.886L52.9743 21.4394L52.9743 21.4392C52.8411 20.7255 53.3131 20.0387 54.0277 19.9034C54.0279 19.9034 54.0281 19.9033 54.0283 19.9033L61.4981 18.5128Z" fill="#C91226" stroke="white"/>
<path d="M8.41395 38.4262L8.41384 38.4261C7.92907 37.8855 7.97456 37.0529 8.51635 36.567C9.05815 36.0816 9.89091 36.1279 10.3761 36.6685C10.3762 36.6686 10.3762 36.6686 10.3762 36.6686L12.5749 39.1224L13.2784 39.9076L13.4413 38.866C15.9588 22.7646 31.7804 12.2967 47.587 16.2188C48.2927 16.3942 48.7224 17.1079 48.5468 17.8139L48.5468 17.814C48.3714 18.52 47.6567 18.9503 46.9514 18.7752L46.9513 18.7752C32.9221 15.2946 18.6916 24.3807 16.1313 38.7467L15.8767 40.1753L16.9573 39.2068L19.2286 37.1711C19.2286 37.1711 19.2287 37.171 19.2287 37.171C19.7443 36.7092 20.5239 36.7281 21.0158 37.1975C21.5736 37.7304 21.5558 38.621 20.9854 39.1322L15.3444 44.1872L15.3442 44.1873C14.8037 44.672 13.9717 44.6258 13.4847 44.0855C13.4845 44.0854 13.4844 44.0852 13.4843 44.0851L8.41395 38.4262Z" fill="#C91226" stroke="white"/>
<path d="M52.4005 74.2523L52.4005 74.2525C52.1588 74.9372 51.4067 75.2969 50.7203 75.0549C50.0344 74.8126 49.6753 74.0598 49.9167 73.3746C49.9167 73.3746 49.9167 73.3745 49.9168 73.3745L51.0141 70.2678L51.3652 69.2738L50.3733 69.6309C35.0395 75.1507 18.2622 66.2953 14.116 50.5459C13.9311 49.8426 14.351 49.1231 15.0547 48.9383L15.0548 48.9382C15.7583 48.7532 16.4788 49.1737 16.6638 49.8765L16.6638 49.8765C20.3442 63.8547 35.1456 71.9776 48.9775 67.3282L50.3529 66.8659L48.9846 66.3828L46.1085 65.3673C46.1085 65.3673 46.1085 65.3673 46.1084 65.3673C45.4559 65.1366 45.0982 64.4436 45.2739 63.7868C45.4737 63.0416 46.2635 62.6298 46.9857 62.8848L54.1279 65.4073L54.1281 65.4073C54.8128 65.6489 55.1716 66.401 54.9314 67.0875C54.9314 67.0877 54.9313 67.0879 54.9312 67.0881L52.4005 74.2523Z" fill="#C91226" stroke="white"/>
<g clip-path="url(#clip0_681_1732)">
<mask id="path-4-outside-1_681_1732" maskUnits="userSpaceOnUse" x="21.201" y="24.1954" width="39.598" height="39.598" fill="black">
<rect fill="white" x="21.201" y="24.1954" width="39.598" height="39.598"/>
<path d="M30.7113 37.7912L32.4313 39.5112C32.7078 39.7877 32.7834 40.1676 32.6339 40.5288C32.4844 40.8901 32.1617 41.1052 31.7712 41.1056L29.3393 41.1052C28.9818 41.1052 28.6454 41.2448 28.3928 41.4974C28.1398 41.7504 28.0006 42.0864 28.0003 42.4443L28.0003 45.5445C28.0003 46.2594 28.623 46.8835 29.3393 46.8835L31.7708 46.8835C32.1613 46.8838 32.4855 47.099 32.6339 47.4599C32.7834 47.8211 32.7078 48.2011 32.4313 48.4775L30.7113 50.1975C30.1894 50.7195 30.1894 51.5686 30.7113 52.0905L32.9039 54.283C33.4258 54.805 34.2749 54.805 34.7968 54.283L36.5168 52.563C36.7933 52.2866 37.1732 52.211 37.5345 52.3605C37.8957 52.5086 38.1105 52.833 38.1109 53.2235L38.1109 55.6551C38.1109 56.3714 38.7349 56.9941 39.4499 56.9941L42.5501 56.9941C42.9076 56.9941 43.244 56.8545 43.4969 56.6016C43.7495 56.3489 43.8888 56.0129 43.8891 55.6551L43.8888 53.2232C43.8891 52.8327 44.1046 52.5103 44.4655 52.3605C44.8264 52.2107 45.2067 52.2866 45.4832 52.563L47.2032 54.283C47.7251 54.805 48.5742 54.805 49.0961 54.283L51.2883 52.0908C51.8106 51.5686 51.8106 50.7195 51.2887 50.1975L49.5687 48.4775C49.2922 48.2011 49.2166 47.8211 49.3661 47.4599C49.5156 47.0987 49.8383 46.8835 50.2288 46.8832L52.6607 46.8835C53.0182 46.8835 53.3546 46.7439 53.6072 46.4913C53.8602 46.2383 53.9994 45.9023 53.9997 45.5445L53.9997 42.4443C53.9997 41.7286 53.3774 41.1049 52.6607 41.1052L50.2288 41.1056C49.8383 41.1052 49.5159 40.8904 49.3661 40.5288C49.2166 40.1676 49.2922 39.7877 49.5687 39.5112L51.2887 37.7912C51.8106 37.2693 51.8106 36.4202 51.2887 35.8983L49.0964 33.706C48.5745 33.1841 47.7254 33.1841 47.2035 33.706L45.4835 35.426C45.207 35.7025 44.8271 35.7781 44.4659 35.6286C44.104 35.4792 43.8895 35.1564 43.8891 34.7659L43.8895 32.334C43.8895 31.6177 43.2654 30.995 42.5504 30.995L39.4502 30.995C39.0927 30.995 38.7564 31.1346 38.5034 31.3875C38.2508 31.6401 38.1115 31.9762 38.1112 32.334L38.1115 34.7659C38.1112 35.1564 37.8957 35.4788 37.5348 35.6286C37.1739 35.7784 36.7933 35.7022 36.5168 35.4257L34.7968 33.7057C34.2749 33.1838 33.4258 33.1838 32.9039 33.7057L30.7113 35.8983C30.1894 36.4202 30.1894 37.2693 30.7113 37.7912ZM33.5848 34.3866C33.7312 34.2402 33.9695 34.2402 34.1159 34.3866L35.8359 36.1066C36.3888 36.6595 37.1811 36.8172 37.9032 36.5179C38.6256 36.219 39.0747 35.5472 39.0744 34.7652L39.074 32.3333C39.074 32.1256 39.2425 31.9571 39.4499 31.9575L42.5501 31.9575C42.7571 31.9575 42.9263 32.1253 42.926 32.3333L42.9256 34.7652C42.9256 35.5476 43.375 36.2183 44.0968 36.5179C44.8189 36.8172 45.6112 36.6595 46.1641 36.1066L47.8841 34.3866C48.0305 34.2402 48.2688 34.2402 48.4152 34.3866L50.6077 36.5792C50.7541 36.7256 50.7541 36.9639 50.6077 37.1103L48.8877 38.8303C48.3348 39.3832 48.1772 40.1754 48.4765 40.8976C48.5766 41.14 48.7182 41.351 48.8925 41.5254C49.2377 41.8706 49.7086 42.0691 50.2288 42.0691L52.6607 42.0687C52.8691 42.0687 53.0369 42.2379 53.0366 42.4446L53.0366 45.5448C53.0366 45.7525 52.8681 45.921 52.6607 45.9207L50.2288 45.9203C49.4471 45.9203 48.7751 46.3691 48.4761 47.0915C48.1772 47.8133 48.3348 48.6055 48.8877 49.1585L50.6077 50.8784C50.7541 51.0248 50.7541 51.2632 50.6077 51.4096L48.4152 53.6021C48.2688 53.7485 48.0305 53.7485 47.8841 53.6021L46.1641 51.8821C45.6112 51.3292 44.8189 51.1716 44.0968 51.4708C43.3744 51.7698 42.9253 52.4415 42.9256 53.2235L42.926 55.6554C42.926 55.8631 42.7574 56.0316 42.5501 56.0313L39.4499 56.0313C39.2426 56.0316 39.074 55.8631 39.074 55.6554L39.074 53.2239C39.074 52.4429 38.626 51.7708 37.9028 51.4712C37.1811 51.1716 36.3888 51.3292 35.8359 51.8821L34.1159 53.6021C33.9695 53.7485 33.7312 53.7485 33.5848 53.6021L31.3926 51.4099C31.2459 51.2632 31.2459 51.0248 31.3923 50.8785L33.1122 49.1585C33.6652 48.6055 33.8228 47.8133 33.5235 47.0912C33.2239 46.3681 32.5525 45.92 31.7708 45.92L29.3393 45.92C29.1313 45.9197 28.9627 45.7511 28.9634 45.5441L28.9634 42.4439C28.9634 42.2362 29.1319 42.0677 29.3393 42.0681L31.7712 42.0684C32.5529 42.0684 33.2249 41.6197 33.5239 40.8972C33.8231 40.1751 33.6655 39.3829 33.1126 38.83L31.3926 37.11C31.2459 36.9639 31.2459 36.7256 31.3922 36.5792L33.5848 34.3866Z"/>
</mask>
<path d="M30.7113 37.7912L32.4313 39.5112C32.7078 39.7877 32.7834 40.1676 32.6339 40.5288C32.4844 40.8901 32.1617 41.1052 31.7712 41.1056L29.3393 41.1052C28.9818 41.1052 28.6454 41.2448 28.3928 41.4974C28.1398 41.7504 28.0006 42.0864 28.0003 42.4443L28.0003 45.5445C28.0003 46.2594 28.623 46.8835 29.3393 46.8835L31.7708 46.8835C32.1613 46.8838 32.4855 47.099 32.6339 47.4599C32.7834 47.8211 32.7078 48.2011 32.4313 48.4775L30.7113 50.1975C30.1894 50.7195 30.1894 51.5686 30.7113 52.0905L32.9039 54.283C33.4258 54.805 34.2749 54.805 34.7968 54.283L36.5168 52.563C36.7933 52.2866 37.1732 52.211 37.5345 52.3605C37.8957 52.5086 38.1105 52.833 38.1109 53.2235L38.1109 55.6551C38.1109 56.3714 38.7349 56.9941 39.4499 56.9941L42.5501 56.9941C42.9076 56.9941 43.244 56.8545 43.4969 56.6016C43.7495 56.3489 43.8888 56.0129 43.8891 55.6551L43.8888 53.2232C43.8891 52.8327 44.1046 52.5103 44.4655 52.3605C44.8264 52.2107 45.2067 52.2866 45.4832 52.563L47.2032 54.283C47.7251 54.805 48.5742 54.805 49.0961 54.283L51.2883 52.0908C51.8106 51.5686 51.8106 50.7195 51.2887 50.1975L49.5687 48.4775C49.2922 48.2011 49.2166 47.8211 49.3661 47.4599C49.5156 47.0987 49.8383 46.8835 50.2288 46.8832L52.6607 46.8835C53.0182 46.8835 53.3546 46.7439 53.6072 46.4913C53.8602 46.2383 53.9994 45.9023 53.9997 45.5445L53.9997 42.4443C53.9997 41.7286 53.3774 41.1049 52.6607 41.1052L50.2288 41.1056C49.8383 41.1052 49.5159 40.8904 49.3661 40.5288C49.2166 40.1676 49.2922 39.7877 49.5687 39.5112L51.2887 37.7912C51.8106 37.2693 51.8106 36.4202 51.2887 35.8983L49.0964 33.706C48.5745 33.1841 47.7254 33.1841 47.2035 33.706L45.4835 35.426C45.207 35.7025 44.8271 35.7781 44.4659 35.6286C44.104 35.4792 43.8895 35.1564 43.8891 34.7659L43.8895 32.334C43.8895 31.6177 43.2654 30.995 42.5504 30.995L39.4502 30.995C39.0927 30.995 38.7564 31.1346 38.5034 31.3875C38.2508 31.6401 38.1115 31.9762 38.1112 32.334L38.1115 34.7659C38.1112 35.1564 37.8957 35.4788 37.5348 35.6286C37.1739 35.7784 36.7933 35.7022 36.5168 35.4257L34.7968 33.7057C34.2749 33.1838 33.4258 33.1838 32.9039 33.7057L30.7113 35.8983C30.1894 36.4202 30.1894 37.2693 30.7113 37.7912ZM33.5848 34.3866C33.7312 34.2402 33.9695 34.2402 34.1159 34.3866L35.8359 36.1066C36.3888 36.6595 37.1811 36.8172 37.9032 36.5179C38.6256 36.219 39.0747 35.5472 39.0744 34.7652L39.074 32.3333C39.074 32.1256 39.2425 31.9571 39.4499 31.9575L42.5501 31.9575C42.7571 31.9575 42.9263 32.1253 42.926 32.3333L42.9256 34.7652C42.9256 35.5476 43.375 36.2183 44.0968 36.5179C44.8189 36.8172 45.6112 36.6595 46.1641 36.1066L47.8841 34.3866C48.0305 34.2402 48.2688 34.2402 48.4152 34.3866L50.6077 36.5792C50.7541 36.7256 50.7541 36.9639 50.6077 37.1103L48.8877 38.8303C48.3348 39.3832 48.1772 40.1754 48.4765 40.8976C48.5766 41.14 48.7182 41.351 48.8925 41.5254C49.2377 41.8706 49.7086 42.0691 50.2288 42.0691L52.6607 42.0687C52.8691 42.0687 53.0369 42.2379 53.0366 42.4446L53.0366 45.5448C53.0366 45.7525 52.8681 45.921 52.6607 45.9207L50.2288 45.9203C49.4471 45.9203 48.7751 46.3691 48.4761 47.0915C48.1772 47.8133 48.3348 48.6055 48.8877 49.1585L50.6077 50.8784C50.7541 51.0248 50.7541 51.2632 50.6077 51.4096L48.4152 53.6021C48.2688 53.7485 48.0305 53.7485 47.8841 53.6021L46.1641 51.8821C45.6112 51.3292 44.8189 51.1716 44.0968 51.4708C43.3744 51.7698 42.9253 52.4415 42.9256 53.2235L42.926 55.6554C42.926 55.8631 42.7574 56.0316 42.5501 56.0313L39.4499 56.0313C39.2426 56.0316 39.074 55.8631 39.074 55.6554L39.074 53.2239C39.074 52.4429 38.626 51.7708 37.9028 51.4712C37.1811 51.1716 36.3888 51.3292 35.8359 51.8821L34.1159 53.6021C33.9695 53.7485 33.7312 53.7485 33.5848 53.6021L31.3926 51.4099C31.2459 51.2632 31.2459 51.0248 31.3923 50.8785L33.1122 49.1585C33.6652 48.6055 33.8228 47.8133 33.5235 47.0912C33.2239 46.3681 32.5525 45.92 31.7708 45.92L29.3393 45.92C29.1313 45.9197 28.9627 45.7511 28.9634 45.5441L28.9634 42.4439C28.9634 42.2362 29.1319 42.0677 29.3393 42.0681L31.7712 42.0684C32.5529 42.0684 33.2249 41.6197 33.5239 40.8972C33.8231 40.1751 33.6655 39.3829 33.1126 38.83L31.3926 37.11C31.2459 36.9639 31.2459 36.7256 31.3922 36.5792L33.5848 34.3866Z" fill="#C91226"/>
<path d="M30.7113 37.7912L32.4313 39.5112C32.7078 39.7877 32.7834 40.1676 32.6339 40.5288C32.4844 40.8901 32.1617 41.1052 31.7712 41.1056L29.3393 41.1052C28.9818 41.1052 28.6454 41.2448 28.3928 41.4974C28.1398 41.7504 28.0006 42.0864 28.0003 42.4443L28.0003 45.5445C28.0003 46.2594 28.623 46.8835 29.3393 46.8835L31.7708 46.8835C32.1613 46.8838 32.4855 47.099 32.6339 47.4599C32.7834 47.8211 32.7078 48.2011 32.4313 48.4775L30.7113 50.1975C30.1894 50.7195 30.1894 51.5686 30.7113 52.0905L32.9039 54.283C33.4258 54.805 34.2749 54.805 34.7968 54.283L36.5168 52.563C36.7933 52.2866 37.1732 52.211 37.5345 52.3605C37.8957 52.5086 38.1105 52.833 38.1109 53.2235L38.1109 55.6551C38.1109 56.3714 38.7349 56.9941 39.4499 56.9941L42.5501 56.9941C42.9076 56.9941 43.244 56.8545 43.4969 56.6016C43.7495 56.3489 43.8888 56.0129 43.8891 55.6551L43.8888 53.2232C43.8891 52.8327 44.1046 52.5103 44.4655 52.3605C44.8264 52.2107 45.2067 52.2866 45.4832 52.563L47.2032 54.283C47.7251 54.805 48.5742 54.805 49.0961 54.283L51.2883 52.0908C51.8106 51.5686 51.8106 50.7195 51.2887 50.1975L49.5687 48.4775C49.2922 48.2011 49.2166 47.8211 49.3661 47.4599C49.5156 47.0987 49.8383 46.8835 50.2288 46.8832L52.6607 46.8835C53.0182 46.8835 53.3546 46.7439 53.6072 46.4913C53.8602 46.2383 53.9994 45.9023 53.9997 45.5445L53.9997 42.4443C53.9997 41.7286 53.3774 41.1049 52.6607 41.1052L50.2288 41.1056C49.8383 41.1052 49.5159 40.8904 49.3661 40.5288C49.2166 40.1676 49.2922 39.7877 49.5687 39.5112L51.2887 37.7912C51.8106 37.2693 51.8106 36.4202 51.2887 35.8983L49.0964 33.706C48.5745 33.1841 47.7254 33.1841 47.2035 33.706L45.4835 35.426C45.207 35.7025 44.8271 35.7781 44.4659 35.6286C44.104 35.4792 43.8895 35.1564 43.8891 34.7659L43.8895 32.334C43.8895 31.6177 43.2654 30.995 42.5504 30.995L39.4502 30.995C39.0927 30.995 38.7564 31.1346 38.5034 31.3875C38.2508 31.6401 38.1115 31.9762 38.1112 32.334L38.1115 34.7659C38.1112 35.1564 37.8957 35.4788 37.5348 35.6286C37.1739 35.7784 36.7933 35.7022 36.5168 35.4257L34.7968 33.7057C34.2749 33.1838 33.4258 33.1838 32.9039 33.7057L30.7113 35.8983C30.1894 36.4202 30.1894 37.2693 30.7113 37.7912ZM33.5848 34.3866C33.7312 34.2402 33.9695 34.2402 34.1159 34.3866L35.8359 36.1066C36.3888 36.6595 37.1811 36.8172 37.9032 36.5179C38.6256 36.219 39.0747 35.5472 39.0744 34.7652L39.074 32.3333C39.074 32.1256 39.2425 31.9571 39.4499 31.9575L42.5501 31.9575C42.7571 31.9575 42.9263 32.1253 42.926 32.3333L42.9256 34.7652C42.9256 35.5476 43.375 36.2183 44.0968 36.5179C44.8189 36.8172 45.6112 36.6595 46.1641 36.1066L47.8841 34.3866C48.0305 34.2402 48.2688 34.2402 48.4152 34.3866L50.6077 36.5792C50.7541 36.7256 50.7541 36.9639 50.6077 37.1103L48.8877 38.8303C48.3348 39.3832 48.1772 40.1754 48.4765 40.8976C48.5766 41.14 48.7182 41.351 48.8925 41.5254C49.2377 41.8706 49.7086 42.0691 50.2288 42.0691L52.6607 42.0687C52.8691 42.0687 53.0369 42.2379 53.0366 42.4446L53.0366 45.5448C53.0366 45.7525 52.8681 45.921 52.6607 45.9207L50.2288 45.9203C49.4471 45.9203 48.7751 46.3691 48.4761 47.0915C48.1772 47.8133 48.3348 48.6055 48.8877 49.1585L50.6077 50.8784C50.7541 51.0248 50.7541 51.2632 50.6077 51.4096L48.4152 53.6021C48.2688 53.7485 48.0305 53.7485 47.8841 53.6021L46.1641 51.8821C45.6112 51.3292 44.8189 51.1716 44.0968 51.4708C43.3744 51.7698 42.9253 52.4415 42.9256 53.2235L42.926 55.6554C42.926 55.8631 42.7574 56.0316 42.5501 56.0313L39.4499 56.0313C39.2426 56.0316 39.074 55.8631 39.074 55.6554L39.074 53.2239C39.074 52.4429 38.626 51.7708 37.9028 51.4712C37.1811 51.1716 36.3888 51.3292 35.8359 51.8821L34.1159 53.6021C33.9695 53.7485 33.7312 53.7485 33.5848 53.6021L31.3926 51.4099C31.2459 51.2632 31.2459 51.0248 31.3923 50.8785L33.1122 49.1585C33.6652 48.6055 33.8228 47.8133 33.5235 47.0912C33.2239 46.3681 32.5525 45.92 31.7708 45.92L29.3393 45.92C29.1313 45.9197 28.9627 45.7511 28.9634 45.5441L28.9634 42.4439C28.9634 42.2362 29.1319 42.0677 29.3393 42.0681L31.7712 42.0684C32.5529 42.0684 33.2249 41.6197 33.5239 40.8972C33.8231 40.1751 33.6655 39.3829 33.1126 38.83L31.3926 37.11C31.2459 36.9639 31.2459 36.7256 31.3922 36.5792L33.5848 34.3866Z" stroke="#C91226" stroke-width="0.4" mask="url(#path-4-outside-1_681_1732)"/>
<path d="M37.8652 47.1294C39.5939 48.8581 42.4061 48.8581 44.1348 47.1294C45.8636 45.4006 45.8636 42.5885 44.1348 40.8597C42.4061 39.131 39.5939 39.131 37.8652 40.8597C36.1364 42.5885 36.1364 45.4006 37.8652 47.1294ZM43.3125 41.682C44.5873 42.9568 44.5873 45.0323 43.3125 46.307C42.0377 47.5818 39.9623 47.5818 38.6875 46.307C37.4127 45.0323 37.4127 42.9568 38.6875 41.682C39.9623 40.4073 42.0377 40.4073 43.3125 41.682Z" fill="#C91226" stroke="#C91226" stroke-width="0.2"/>
</g>
<defs>
<clipPath id="clip0_681_1732">
<rect width="26" height="26" fill="white" transform="translate(58.7583 39.2358) rotate(120)"/>
</clipPath>
</defs>
</svg>
