<svg width="70" height="70" viewBox="0 0 70 70" fill="none" xmlns="http://www.w3.org/2000/svg">
<g clip-path="url(#clip0_681_113)">
<path d="M36.0292 28.2258V28.3258H36.1292H36.6937C38.7843 28.3258 40.4908 29.9995 40.544 32.0775H38.4845C38.4324 31.1347 37.6492 30.3839 36.6937 30.3839H33.3066C32.3175 30.3839 31.513 31.1883 31.513 32.1775C31.513 33.1666 32.3175 33.971 33.3066 33.971H36.6937C38.8177 33.971 40.5453 35.6986 40.5453 37.8226C40.5453 39.9466 38.8177 41.6742 36.6937 41.6742H36.1292H36.0292V41.7742V43.9323H33.9711V41.7742V41.6742H33.8711H33.3066C31.216 41.6742 29.5095 40.0006 29.4563 37.9226H31.5158C31.5678 38.8654 32.351 39.6162 33.3066 39.6162H36.6937C37.6828 39.6162 38.4872 38.8117 38.4872 37.8226C38.4872 36.8335 37.6828 36.0291 36.6937 36.0291H33.3066C31.1826 36.0291 29.455 34.3015 29.455 32.1775C29.455 30.0534 31.1826 28.3258 33.3066 28.3258H33.8711H33.9711V28.2258V26.0678H36.0292V28.2258Z" fill="#C91226" stroke="#F8F8F8" stroke-width="0.2"/>
<mask id="path-2-inside-1_681_113" fill="white">
<path d="M67.7419 27.0968H56.4516C55.2063 27.0968 54.1936 28.1095 54.1936 29.3548V31.6129H51.5661C50.9691 28.6955 49.6173 26.0444 47.7187 23.8778L53.8716 17.7249C54.3132 17.9372 54.8011 18.0645 55.3226 18.0645C57.1898 18.0645 58.7097 16.5446 58.7097 14.6774C58.7097 12.8102 57.1898 11.2903 55.3226 11.2903C53.4554 11.2903 51.9355 12.8102 51.9355 14.6774C51.9355 15.1989 52.0628 15.6868 52.2751 16.1284L46.1222 22.2813C43.9545 20.3827 41.3045 19.032 38.3871 18.4361V15.8065H40.6452C41.8905 15.8065 42.9032 14.7937 42.9032 13.5484V2.25806C42.9032 1.01271 41.8905 0 40.6452 0H29.3548C28.1095 0 27.0968 1.01271 27.0968 2.25806V13.5484C27.0968 14.7937 28.1095 15.8065 29.3548 15.8065H31.6129V18.4361C28.6966 19.032 26.0455 20.3827 23.8778 22.2813L17.7249 16.1284C17.9372 15.6868 18.0645 15.1989 18.0645 14.6774C18.0645 12.8102 16.5446 11.2903 14.6774 11.2903C12.8102 11.2903 11.2903 12.8102 11.2903 14.6774C11.2903 16.5446 12.8102 18.0645 14.6774 18.0645C15.1989 18.0645 15.6868 17.9372 16.1284 17.7249L22.2813 23.8778C20.3827 26.0444 19.0309 28.6955 18.4339 31.6129H15.8065V29.3548C15.8065 28.1095 14.7937 27.0968 13.5484 27.0968H2.25806C1.01271 27.0968 0 28.1095 0 29.3548V40.6452C0 41.8905 1.01271 42.9032 2.25806 42.9032H13.5484C14.7937 42.9032 15.8065 41.8905 15.8065 40.6452V38.3871H18.4361C19.032 41.3034 20.3827 43.9545 22.2813 46.1222L16.1284 52.2751C15.6868 52.0628 15.1989 51.9355 14.6774 51.9355C12.8102 51.9355 11.2903 53.4554 11.2903 55.3226C11.2903 57.1898 12.8102 58.7097 14.6774 58.7097C16.5446 58.7097 18.0645 57.1898 18.0645 55.3226C18.0645 54.8011 17.9372 54.3132 17.7249 53.8716L23.8778 47.7187C26.0444 49.6173 28.6955 50.9691 31.6129 51.5661V54.1936H29.3548C28.1095 54.1936 27.0968 55.2063 27.0968 56.4516V67.7419C27.0968 68.9873 28.1095 70 29.3548 70H40.6452C41.8905 70 42.9032 68.9873 42.9032 67.7419V56.4516C42.9032 55.2063 41.8905 54.1936 40.6452 54.1936H38.3871V51.5639C41.3034 50.968 43.9545 49.6173 46.1222 47.7187L52.2751 53.8716C52.0628 54.3132 51.9355 54.8011 51.9355 55.3226C51.9355 57.1898 53.4554 58.7097 55.3226 58.7097C57.1898 58.7097 58.7097 57.1898 58.7097 55.3226C58.7097 53.4554 57.1898 51.9355 55.3226 51.9355C54.8011 51.9355 54.3132 52.0628 53.8716 52.2751L47.7187 46.1222C49.6173 43.9556 50.9691 41.3045 51.5661 38.3871H54.1936V40.6452C54.1936 41.8905 55.2063 42.9032 56.4516 42.9032H67.7419C68.9873 42.9032 70 41.8905 70 40.6452V29.3548C70 28.1095 68.9873 27.0968 67.7419 27.0968ZM48.5484 35C48.5484 34.3782 49.0556 33.871 49.6774 33.871H57.5806C58.2025 33.871 58.7097 34.3782 58.7097 35C58.7097 35.6218 58.2025 36.129 57.5806 36.129H49.6774C49.0556 36.129 48.5484 35.6218 48.5484 35ZM55.3226 13.5484C55.9444 13.5484 56.4516 14.0556 56.4516 14.6774C56.4516 15.2993 55.9444 15.8065 55.3226 15.8065C54.7007 15.8065 54.1936 15.2993 54.1936 14.6774C54.1936 14.0556 54.7007 13.5484 55.3226 13.5484ZM29.3548 13.5484V2.25806H40.6452V13.5484H38.3871V12.4194C38.3871 10.5522 36.8672 9.03226 35 9.03226C33.1328 9.03226 31.6129 10.5522 31.6129 12.4194V13.5484H29.3548ZM36.129 12.4194V20.3226C36.129 20.9444 35.6218 21.4516 35 21.4516C34.3782 21.4516 33.871 20.9444 33.871 20.3226V12.4194C33.871 11.7975 34.3782 11.2903 35 11.2903C35.6218 11.2903 36.129 11.7975 36.129 12.4194ZM13.5484 14.6774C13.5484 14.0556 14.0556 13.5484 14.6774 13.5484C15.2993 13.5484 15.8065 14.0556 15.8065 14.6774C15.8065 15.2993 15.2993 15.8065 14.6774 15.8065C14.0556 15.8065 13.5484 15.2993 13.5484 14.6774ZM20.3226 36.129H12.4194C11.7975 36.129 11.2903 35.6218 11.2903 35C11.2903 34.3782 11.7975 33.871 12.4194 33.871H20.3226C20.9444 33.871 21.4516 34.3782 21.4516 35C21.4516 35.6218 20.9444 36.129 20.3226 36.129ZM13.5484 40.6452H2.25806V29.3548H13.5484V31.6129H12.4194C10.5522 31.6129 9.03226 33.1328 9.03226 35C9.03226 36.8672 10.5522 38.3871 12.4194 38.3871H13.5484V40.6452ZM14.6774 56.4516C14.0556 56.4516 13.5484 55.9444 13.5484 55.3226C13.5484 54.7007 14.0556 54.1936 14.6774 54.1936C15.2993 54.1936 15.8065 54.7007 15.8065 55.3226C15.8065 55.9444 15.2993 56.4516 14.6774 56.4516ZM40.6452 56.4516V67.7419H29.3548V56.4516H31.6129V57.5806C31.6129 59.4478 33.1328 60.9677 35 60.9677C36.8672 60.9677 38.3871 59.4478 38.3871 57.5806V56.4516H40.6452ZM33.871 57.5806V49.6774C33.871 49.0556 34.3782 48.5484 35 48.5484C35.6218 48.5484 36.129 49.0556 36.129 49.6774V57.5806C36.129 58.2025 35.6218 58.7097 35 58.7097C34.3782 58.7097 33.871 58.2025 33.871 57.5806ZM38.3463 49.2711C38.1423 47.5969 36.7283 46.2903 35 46.2903C33.2701 46.2903 31.8555 47.598 31.6537 49.2733C26.266 48.0076 21.9935 43.734 20.7289 38.3452C22.4031 38.1423 23.7097 36.7283 23.7097 35C23.7097 33.2701 22.402 31.8555 20.7267 31.6537C21.9924 26.266 26.266 21.9935 31.6548 20.7289C31.8577 22.4031 33.2717 23.7097 35 23.7097C36.7283 23.7097 38.1423 22.4031 38.3463 20.7289C43.734 21.9935 48.0076 26.266 49.2744 31.6537C47.598 31.8555 46.2903 33.2701 46.2903 35C46.2903 36.7299 47.598 38.1445 49.2733 38.3463C48.0076 43.734 43.734 48.0065 38.3463 49.2711ZM56.4516 55.3226C56.4516 55.9444 55.9444 56.4516 55.3226 56.4516C54.7007 56.4516 54.1936 55.9444 54.1936 55.3226C54.1936 54.7007 54.7007 54.1936 55.3226 54.1936C55.9444 54.1936 56.4516 54.7007 56.4516 55.3226ZM67.7419 40.6452H56.4516V38.3871H57.5806C59.4478 38.3871 60.9677 36.8672 60.9677 35C60.9677 33.1328 59.4478 31.6129 57.5806 31.6129H56.4516V29.3548H67.7419V40.6452Z"/>
</mask>
<path d="M67.7419 27.0968H56.4516C55.2063 27.0968 54.1936 28.1095 54.1936 29.3548V31.6129H51.5661C50.9691 28.6955 49.6173 26.0444 47.7187 23.8778L53.8716 17.7249C54.3132 17.9372 54.8011 18.0645 55.3226 18.0645C57.1898 18.0645 58.7097 16.5446 58.7097 14.6774C58.7097 12.8102 57.1898 11.2903 55.3226 11.2903C53.4554 11.2903 51.9355 12.8102 51.9355 14.6774C51.9355 15.1989 52.0628 15.6868 52.2751 16.1284L46.1222 22.2813C43.9545 20.3827 41.3045 19.032 38.3871 18.4361V15.8065H40.6452C41.8905 15.8065 42.9032 14.7937 42.9032 13.5484V2.25806C42.9032 1.01271 41.8905 0 40.6452 0H29.3548C28.1095 0 27.0968 1.01271 27.0968 2.25806V13.5484C27.0968 14.7937 28.1095 15.8065 29.3548 15.8065H31.6129V18.4361C28.6966 19.032 26.0455 20.3827 23.8778 22.2813L17.7249 16.1284C17.9372 15.6868 18.0645 15.1989 18.0645 14.6774C18.0645 12.8102 16.5446 11.2903 14.6774 11.2903C12.8102 11.2903 11.2903 12.8102 11.2903 14.6774C11.2903 16.5446 12.8102 18.0645 14.6774 18.0645C15.1989 18.0645 15.6868 17.9372 16.1284 17.7249L22.2813 23.8778C20.3827 26.0444 19.0309 28.6955 18.4339 31.6129H15.8065V29.3548C15.8065 28.1095 14.7937 27.0968 13.5484 27.0968H2.25806C1.01271 27.0968 0 28.1095 0 29.3548V40.6452C0 41.8905 1.01271 42.9032 2.25806 42.9032H13.5484C14.7937 42.9032 15.8065 41.8905 15.8065 40.6452V38.3871H18.4361C19.032 41.3034 20.3827 43.9545 22.2813 46.1222L16.1284 52.2751C15.6868 52.0628 15.1989 51.9355 14.6774 51.9355C12.8102 51.9355 11.2903 53.4554 11.2903 55.3226C11.2903 57.1898 12.8102 58.7097 14.6774 58.7097C16.5446 58.7097 18.0645 57.1898 18.0645 55.3226C18.0645 54.8011 17.9372 54.3132 17.7249 53.8716L23.8778 47.7187C26.0444 49.6173 28.6955 50.9691 31.6129 51.5661V54.1936H29.3548C28.1095 54.1936 27.0968 55.2063 27.0968 56.4516V67.7419C27.0968 68.9873 28.1095 70 29.3548 70H40.6452C41.8905 70 42.9032 68.9873 42.9032 67.7419V56.4516C42.9032 55.2063 41.8905 54.1936 40.6452 54.1936H38.3871V51.5639C41.3034 50.968 43.9545 49.6173 46.1222 47.7187L52.2751 53.8716C52.0628 54.3132 51.9355 54.8011 51.9355 55.3226C51.9355 57.1898 53.4554 58.7097 55.3226 58.7097C57.1898 58.7097 58.7097 57.1898 58.7097 55.3226C58.7097 53.4554 57.1898 51.9355 55.3226 51.9355C54.8011 51.9355 54.3132 52.0628 53.8716 52.2751L47.7187 46.1222C49.6173 43.9556 50.9691 41.3045 51.5661 38.3871H54.1936V40.6452C54.1936 41.8905 55.2063 42.9032 56.4516 42.9032H67.7419C68.9873 42.9032 70 41.8905 70 40.6452V29.3548C70 28.1095 68.9873 27.0968 67.7419 27.0968ZM48.5484 35C48.5484 34.3782 49.0556 33.871 49.6774 33.871H57.5806C58.2025 33.871 58.7097 34.3782 58.7097 35C58.7097 35.6218 58.2025 36.129 57.5806 36.129H49.6774C49.0556 36.129 48.5484 35.6218 48.5484 35ZM55.3226 13.5484C55.9444 13.5484 56.4516 14.0556 56.4516 14.6774C56.4516 15.2993 55.9444 15.8065 55.3226 15.8065C54.7007 15.8065 54.1936 15.2993 54.1936 14.6774C54.1936 14.0556 54.7007 13.5484 55.3226 13.5484ZM29.3548 13.5484V2.25806H40.6452V13.5484H38.3871V12.4194C38.3871 10.5522 36.8672 9.03226 35 9.03226C33.1328 9.03226 31.6129 10.5522 31.6129 12.4194V13.5484H29.3548ZM36.129 12.4194V20.3226C36.129 20.9444 35.6218 21.4516 35 21.4516C34.3782 21.4516 33.871 20.9444 33.871 20.3226V12.4194C33.871 11.7975 34.3782 11.2903 35 11.2903C35.6218 11.2903 36.129 11.7975 36.129 12.4194ZM13.5484 14.6774C13.5484 14.0556 14.0556 13.5484 14.6774 13.5484C15.2993 13.5484 15.8065 14.0556 15.8065 14.6774C15.8065 15.2993 15.2993 15.8065 14.6774 15.8065C14.0556 15.8065 13.5484 15.2993 13.5484 14.6774ZM20.3226 36.129H12.4194C11.7975 36.129 11.2903 35.6218 11.2903 35C11.2903 34.3782 11.7975 33.871 12.4194 33.871H20.3226C20.9444 33.871 21.4516 34.3782 21.4516 35C21.4516 35.6218 20.9444 36.129 20.3226 36.129ZM13.5484 40.6452H2.25806V29.3548H13.5484V31.6129H12.4194C10.5522 31.6129 9.03226 33.1328 9.03226 35C9.03226 36.8672 10.5522 38.3871 12.4194 38.3871H13.5484V40.6452ZM14.6774 56.4516C14.0556 56.4516 13.5484 55.9444 13.5484 55.3226C13.5484 54.7007 14.0556 54.1936 14.6774 54.1936C15.2993 54.1936 15.8065 54.7007 15.8065 55.3226C15.8065 55.9444 15.2993 56.4516 14.6774 56.4516ZM40.6452 56.4516V67.7419H29.3548V56.4516H31.6129V57.5806C31.6129 59.4478 33.1328 60.9677 35 60.9677C36.8672 60.9677 38.3871 59.4478 38.3871 57.5806V56.4516H40.6452ZM33.871 57.5806V49.6774C33.871 49.0556 34.3782 48.5484 35 48.5484C35.6218 48.5484 36.129 49.0556 36.129 49.6774V57.5806C36.129 58.2025 35.6218 58.7097 35 58.7097C34.3782 58.7097 33.871 58.2025 33.871 57.5806ZM38.3463 49.2711C38.1423 47.5969 36.7283 46.2903 35 46.2903C33.2701 46.2903 31.8555 47.598 31.6537 49.2733C26.266 48.0076 21.9935 43.734 20.7289 38.3452C22.4031 38.1423 23.7097 36.7283 23.7097 35C23.7097 33.2701 22.402 31.8555 20.7267 31.6537C21.9924 26.266 26.266 21.9935 31.6548 20.7289C31.8577 22.4031 33.2717 23.7097 35 23.7097C36.7283 23.7097 38.1423 22.4031 38.3463 20.7289C43.734 21.9935 48.0076 26.266 49.2744 31.6537C47.598 31.8555 46.2903 33.2701 46.2903 35C46.2903 36.7299 47.598 38.1445 49.2733 38.3463C48.0076 43.734 43.734 48.0065 38.3463 49.2711ZM56.4516 55.3226C56.4516 55.9444 55.9444 56.4516 55.3226 56.4516C54.7007 56.4516 54.1936 55.9444 54.1936 55.3226C54.1936 54.7007 54.7007 54.1936 55.3226 54.1936C55.9444 54.1936 56.4516 54.7007 56.4516 55.3226ZM67.7419 40.6452H56.4516V38.3871H57.5806C59.4478 38.3871 60.9677 36.8672 60.9677 35C60.9677 33.1328 59.4478 31.6129 57.5806 31.6129H56.4516V29.3548H67.7419V40.6452Z" fill="#C91226" stroke="#F8F8F8" stroke-width="0.4" mask="url(#path-2-inside-1_681_113)"/>
</g>
<defs>
<clipPath id="clip0_681_113">
<rect width="70" height="70" fill="white"/>
</clipPath>
</defs>
</svg>
