<svg width="60" height="60" viewBox="0 0 60 60" fill="none" xmlns="http://www.w3.org/2000/svg">
<g clip-path="url(#clip0_681_1744)">
<path d="M59.1476 37.7408C59.6393 37.7408 60.0375 37.3421 60.0375 36.8509V10.5487C60.0375 7.4556 57.6361 4.91455 54.5998 4.68658C52.9404 1.81824 49.8409 -0.117188 46.2955 -0.117188C42.7579 -0.117188 39.6634 1.81 38.0017 4.66782H29.2003C27.8641 2.94754 25.778 1.83746 23.4361 1.83746C19.4124 1.83746 16.1389 5.11093 16.1389 9.13422V11.2701H11.5617C11.1058 11.2701 10.724 11.6144 10.6769 12.068L7.73392 40.3894H1.89697V10.5487C1.89697 8.28735 3.73673 6.44806 5.99762 6.44806H22.1718C22.6635 6.44806 23.0617 6.04935 23.0617 5.55771C23.0617 5.06653 22.6635 4.66782 22.1718 4.66782H5.99762C2.75528 4.66782 0.117188 7.30591 0.117188 10.5487V41.8721C0.117188 45.1447 2.77908 47.807 6.05118 47.807H12.2507C12.7423 47.807 11.9664 47.4088 11.9664 46.9171C11.9664 46.4259 12.7423 46.0272 12.2507 46.0272H6.05118C3.86032 46.0272 2.06177 44.3221 1.90887 42.1692H58.2459C58.093 44.3221 56.2939 46.0272 54.1026 46.0272H11.6945C11.2029 46.0272 10.8046 46.4259 10.8046 46.9171C10.8046 47.4088 11.2029 47.807 11.6945 47.807H18.8287L17.6472 52.7568H15.1859C12.6288 52.7568 10.5487 54.8373 10.5487 57.3944V58.9929C10.5487 59.4846 10.947 59.8828 11.4386 59.8828H48.7152C49.2069 59.8828 49.6051 59.4846 49.6051 58.9929V57.3944C49.6051 54.8373 47.525 52.7568 44.968 52.7568H42.5066L41.3251 47.807H54.1026C57.3752 47.807 60.0375 45.1447 60.0375 41.8721V37.4689C60.0375 36.9777 59.6393 36.579 59.1476 36.579C58.656 36.579 58.2578 36.9777 58.2578 37.4689V40.3894H44.9039L42.8856 21.4801C42.8375 21.0274 42.4558 20.6845 42.0007 20.6845H37.0912L36.1954 12.0676C36.1482 11.6144 35.7664 11.2701 35.3105 11.2701H30.7329V9.13422C30.7329 8.18573 30.5489 7.27982 30.2184 6.4476H37.1974C36.8806 7.39929 36.7062 8.41553 36.7062 9.47205C36.7062 14.7597 41.0078 19.0613 46.2955 19.0613C51.5826 19.0613 55.8847 14.7597 55.8847 9.47205C55.8847 8.49472 55.7369 7.55173 55.464 6.66275C57.0863 7.20978 58.2578 8.74466 58.2578 10.5482V36.8504C58.2578 37.3421 58.656 37.7408 59.1476 37.7408ZM47.8253 57.3944V58.103H12.3285V57.3944C12.3285 55.8188 13.6102 54.5366 15.1859 54.5366H44.968C46.5436 54.5366 47.8253 55.8188 47.8253 57.3944ZM40.6769 52.7568H19.4769L20.6584 47.807H39.4954L40.6769 52.7568ZM43.114 40.3889H24.38L26.293 22.4643H36.2769H36.302H41.2006L43.114 40.3889ZM34.5081 13.0499L35.3018 20.6845H25.4929C25.0383 20.6845 24.6565 21.0278 24.608 21.4801L22.5897 40.3889H9.52332L12.3637 13.0499H16.1389V15.0069C16.1389 15.4985 16.5372 15.8968 17.0288 15.8968C17.5204 15.8968 17.9187 15.4985 17.9187 15.0069V13.0499H28.9531V15.0069C28.9531 15.4985 29.3513 15.8968 29.843 15.8968C30.3346 15.8968 30.7329 15.4985 30.7329 15.0069V13.0499H34.5081ZM28.9531 9.13422V11.2701H17.9192V9.13422C17.9192 6.09192 20.3938 3.61725 23.4361 3.61725C24.6432 3.61725 25.7602 4.00772 26.6693 4.66782H21.1784C20.6868 4.66782 20.2885 5.06653 20.2885 5.55771C20.2885 6.04935 20.6868 6.44806 21.1784 6.44806H28.2523C28.6981 7.24319 28.9531 8.15964 28.9531 9.13422ZM46.2955 17.2815C41.9893 17.2815 38.486 13.7782 38.486 9.47205C38.486 5.16586 41.9893 1.6626 46.2955 1.6626C50.6017 1.6626 54.1049 5.16586 54.1049 9.47205C54.1049 13.7782 50.6017 17.2815 46.2955 17.2815Z" fill="#C91226"/>
<path d="M33.7466 31.9307C32.1275 31.9307 30.8101 30.6137 30.8101 28.9942V25.1677C30.8101 24.6765 30.4118 24.2778 29.9202 24.2778C29.4285 24.2778 29.0303 24.6765 29.0303 25.1677V28.9942C29.0303 31.5947 31.1461 33.7105 33.7466 33.7105C36.3472 33.7105 38.4629 31.5947 38.4629 28.9942V25.1677C38.4629 24.6765 38.0647 24.2778 37.573 24.2778C37.0814 24.2778 36.6832 24.6765 36.6832 25.1677V28.9942C36.6832 30.6137 35.3662 31.9307 33.7466 31.9307Z" fill="#C91226"/>
<path d="M49.9263 4.51301C49.4837 4.29832 48.9513 4.48234 48.7366 4.92408L45.3317 11.9292L43.7891 9.1529C43.5506 8.72306 43.009 8.56834 42.5792 8.80683C42.1494 9.04579 41.9946 9.58732 42.2331 10.0172L44.6062 14.2886C44.7636 14.5715 45.0617 14.7463 45.3844 14.7463C45.3922 14.7463 45.4004 14.7463 45.4086 14.7459C45.7405 14.7372 46.0394 14.544 46.1845 14.2455L50.3374 5.70228C50.5525 5.26054 50.3681 4.7277 49.9263 4.51301Z" fill="#C91226"/>
</g>
<defs>
<clipPath id="clip0_681_1744">
<rect width="60" height="60" fill="white"/>
</clipPath>
</defs>
</svg>
