<svg width="62" height="62" viewBox="0 0 62 62" fill="none" xmlns="http://www.w3.org/2000/svg">
<path d="M11.2705 11.792C9.75684 10.7928 7.76158 10.8478 6.30543 11.9285C5.90267 12.2275 5.81851 12.7964 6.11749 13.199C6.29574 13.4392 6.56978 13.5659 6.84745 13.5659C7.03563 13.5659 7.22538 13.5077 7.38801 13.387C8.23312 12.7597 9.39114 12.728 10.2697 13.3079C10.6883 13.5842 11.2516 13.4691 11.528 13.0504C11.8043 12.6318 11.689 12.0685 11.2705 11.792Z" fill="#C91226"/>
<path d="M14.0141 8.13415C10.905 5.93835 6.74642 5.96499 3.66592 8.20026C3.25989 8.49488 3.16967 9.06281 3.46417 9.46884C3.64182 9.71369 3.91888 9.84375 4.20006 9.84375C4.38497 9.84375 4.57157 9.78744 4.73263 9.67046C7.18369 7.89184 10.4926 7.87089 12.9663 9.61791C13.3758 9.9072 13.9425 9.8096 14.232 9.40006C14.5214 8.99028 14.4238 8.42368 14.0141 8.13415Z" fill="#C91226"/>
<path d="M16.627 4.38785C11.9568 1.1004 5.69889 1.12559 1.0553 4.4507C0.647459 4.74266 0.553612 5.3101 0.84569 5.71782C1.02309 5.96558 1.30185 6.09745 1.58485 6.09745C1.76782 6.09745 1.95273 6.04223 2.11281 5.92756C6.12925 3.05146 11.5419 3.02966 15.5815 5.87319C15.9916 6.16187 16.5583 6.06343 16.8469 5.65328C17.1356 5.24314 17.0371 4.67654 16.627 4.38785Z" fill="#C91226"/>
<path d="M47.5019 40.7716H9.58203V16.4414C9.58203 15.9398 9.1754 15.5332 8.67382 15.5332C8.17225 15.5332 7.76562 15.9398 7.76562 16.4414V40.7716H3.82027C1.71372 40.7716 0 42.4853 0 44.5918V52.3574C0 54.1511 1.24266 55.6591 2.91206 56.0679V58.1818C2.91206 59.2179 3.75488 60.0607 4.79095 60.0607H6.73233C7.76841 60.0607 8.61122 59.2179 8.61122 58.1818V56.178H9.64403C10.1456 56.178 10.5522 55.7713 10.5522 55.2698C10.5522 54.7682 10.1457 54.3614 9.64415 54.3614H3.82027C2.71529 54.3614 1.81641 53.4624 1.81641 52.3574V44.5918C1.81641 43.4868 2.71529 42.588 3.82027 42.588H47.5019C48.0035 42.588 48.4101 42.1813 48.4101 41.6798C48.4101 41.1781 48.0035 40.7716 47.5019 40.7716ZM4.72847 56.1778H6.79481V58.1817H6.79493C6.79493 58.2162 6.76696 58.2442 6.73245 58.2442H4.79095C4.75644 58.2442 4.72847 58.2162 4.72847 58.1817V56.1778Z" fill="#C91226"/>
<path d="M58.1798 40.7716H54.2345V16.4414C54.2345 15.9398 53.8278 15.5332 53.3263 15.5332C52.8247 15.5332 52.4181 15.9398 52.4181 16.4414V40.7716H41.3844C40.8828 40.7716 40.4762 41.1781 40.4762 41.6798C40.4762 42.1813 40.8828 42.588 41.3844 42.588H58.1797C59.2847 42.588 60.1836 43.4868 60.1836 44.5918V52.3574C60.1836 53.4624 59.2847 54.3614 58.1797 54.3614H3.52734C3.02577 54.3614 2.61914 54.7681 2.61914 55.2696C2.61914 55.7712 3.02577 56.1778 3.52734 56.1778H53.3887V58.1817C53.3887 59.2178 54.2316 60.0606 55.2676 60.0606H57.209C58.2451 60.0606 59.0879 59.2178 59.0879 58.1817V56.0678C60.7574 55.6591 62.0001 54.1511 62.0001 52.3574V44.5918C62.0001 42.4853 60.2864 40.7716 58.1798 40.7716ZM57.2716 58.1817C57.2716 58.2162 57.2435 58.2442 57.2091 58.2442H55.2678C55.2332 58.2442 55.2053 58.2162 55.2053 58.1817V56.1778H57.2716V58.1817Z" fill="#C91226"/>
<path d="M23.2348 45.6245C21.6636 45.6245 20.3853 46.9029 20.3853 48.4741C20.3853 50.0454 21.6636 51.3237 23.2348 51.3237C24.806 51.3237 26.0844 50.0453 26.0844 48.4741C26.0844 46.9029 24.806 45.6245 23.2348 45.6245ZM23.2348 49.5074C22.6652 49.5074 22.2017 49.044 22.2017 48.4742C22.2017 47.9046 22.6652 47.441 23.2348 47.441C23.8045 47.441 24.268 47.9046 24.268 48.4742C24.268 49.0438 23.8045 49.5074 23.2348 49.5074Z" fill="#C91226"/>
<path d="M38.7661 45.6245C37.1949 45.6245 35.9165 46.9029 35.9165 48.4741C35.9165 50.0454 37.1949 51.3237 38.7661 51.3237C40.3373 51.3237 41.6157 50.0453 41.6157 48.4741C41.6157 46.9029 40.3373 45.6245 38.7661 45.6245ZM38.7661 49.5074C38.1965 49.5074 37.7329 49.044 37.7329 48.4742C37.7329 47.9046 38.1965 47.441 38.7661 47.441C39.3357 47.441 39.7993 47.9046 39.7993 48.4742C39.7993 49.0438 39.3357 49.5074 38.7661 49.5074Z" fill="#C91226"/>
<path d="M31.0004 45.625C29.4291 45.625 28.1509 46.9034 28.1509 48.4746C28.1509 50.0459 29.4293 51.3242 31.0004 51.3242C32.5716 51.3242 33.85 50.0458 33.85 48.4746C33.85 46.9033 32.5718 45.625 31.0004 45.625ZM31.0004 49.5078C30.4308 49.5078 29.9673 49.0443 29.9673 48.4746C29.9673 47.905 30.4308 47.4414 31.0004 47.4414C31.5701 47.4414 32.0336 47.905 32.0336 48.4746C32.0336 49.0442 31.5701 49.5078 31.0004 49.5078Z" fill="#C91226"/>
<path d="M55.9227 11.792C54.4092 10.7928 52.4139 10.8478 50.9578 11.9285C50.555 12.2275 50.4709 12.7964 50.7698 13.199C50.9481 13.4392 51.2221 13.5659 51.4998 13.5659C51.688 13.5659 51.8777 13.5077 52.0404 13.387C52.8853 12.7597 54.0434 12.728 54.9219 13.3079C55.3405 13.5842 55.9039 13.4691 56.1802 13.0504C56.4565 12.6318 56.3412 12.0685 55.9227 11.792Z" fill="#C91226"/>
<path d="M58.6661 8.13468C55.557 5.93888 51.3984 5.9654 48.3178 8.20079C47.9117 8.49541 47.8215 9.06334 48.116 9.46937C48.2937 9.71422 48.5707 9.84428 48.8519 9.84428C49.0368 9.84428 49.2234 9.78797 49.3845 9.67099C51.8357 7.89249 55.1444 7.87142 57.6181 9.61844C58.0278 9.90761 58.5946 9.81001 58.8839 9.40047C59.1733 8.99081 59.0757 8.42421 58.6661 8.13468Z" fill="#C91226"/>
<path d="M61.2794 4.38784C56.609 1.10038 50.3512 1.12557 45.7076 4.45081C45.2998 4.74276 45.206 5.31021 45.498 5.71793C45.6753 5.96557 45.9542 6.09744 46.2372 6.09744C46.4203 6.09744 46.6051 6.04222 46.7652 5.92754C50.7815 3.05157 56.1941 3.02965 60.2338 5.87317C60.644 6.16186 61.2106 6.06341 61.4993 5.65327C61.7879 5.24312 61.6895 4.67652 61.2794 4.38784Z" fill="#C91226"/>
</svg>
