<svg width="59" height="72" viewBox="0 0 59 72" fill="none" xmlns="http://www.w3.org/2000/svg">
<path d="M35.85 13.25V15.75C35.85 19.1077 33.0066 21.85 29.5 21.85C25.9934 21.85 23.15 19.1077 23.15 15.75V13.25C23.15 9.89169 25.9933 7.15 29.5 7.15C33.0067 7.15 35.85 9.89169 35.85 13.25ZM29.5 19.65C31.7272 19.65 33.55 17.9056 33.55 15.75V13.25C33.55 11.0938 31.7272 9.35 29.5 9.35C27.2728 9.35 25.45 11.0938 25.45 13.25V15.75C25.45 17.9056 27.2728 19.65 29.5 19.65Z" fill="#C91226" stroke="#F8F8F8" stroke-width="0.3"/>
<path d="M23.2611 43.2667V43.1167H23.1111H19.2778C18.6543 43.1167 18.15 42.616 18.15 42V29.3333C18.15 25.9248 20.9479 23.15 24.3889 23.15H34.6111C38.0521 23.15 40.85 25.9248 40.85 29.3333V42C40.85 42.616 40.3457 43.1167 39.7222 43.1167H35.8889H35.7389V43.2667V59.7333C35.7389 60.3493 35.2346 60.85 34.6111 60.85H24.3889C23.7654 60.85 23.2611 60.3493 23.2611 59.7333V43.2667ZM30.6278 58.4667V58.6167H30.7778H33.3333H33.4833V58.4667V40.7333V40.5833H33.3333H25.6667H25.5167V40.7333V58.4667V58.6167H25.6667H28.2222H28.3722V58.4667V43.4167H30.6278V58.4667ZM38.4444 40.8833H38.5944V40.7333V29.3333C38.5944 27.1538 36.8059 25.3833 34.6111 25.3833H24.3889C22.1941 25.3833 20.4056 27.1538 20.4056 29.3333V40.7333V40.8833H20.5556H23.1111H23.2611V40.7333V30.75H25.5167V38.2V38.35H25.6667H33.3333H33.4833V38.2V30.75H35.7389V40.7333V40.8833H35.8889H38.4444Z" fill="#C91226" stroke="#F8F8F8" stroke-width="0.3"/>
<path d="M29.8605 71.7209L29.9036 71.8645L29.8605 71.7209C29.743 71.7561 29.6214 71.7738 29.5 71.7738C29.3786 71.7738 29.2572 71.7561 29.1395 71.721C11.752 66.5069 0.15 50.5575 0.15 32.7576V9.83333C0.15 9.14047 0.711895 8.57857 1.40476 8.57857C5.36053 8.57857 8.57857 5.36053 8.57857 1.40476C8.57857 0.711895 9.14047 0.15 9.83333 0.15H49.1667C49.8595 0.15 50.4214 0.711895 50.4214 1.40476C50.4214 5.36053 53.6395 8.57857 57.5952 8.57857C58.2881 8.57857 58.85 9.14047 58.85 9.83333V32.7576C58.85 50.9466 46.8717 66.618 29.8605 71.7209ZM29.4554 69.1933L29.5 69.2072L29.5446 69.1933C45.5905 64.1923 56.3405 49.6029 56.3405 32.7576V11.1381V11.0081L56.2118 10.9896C51.9776 10.3813 48.6187 7.02241 48.0104 2.78819L47.9919 2.65952H47.8619H11.1381H11.0081L10.9896 2.78819C10.3813 7.02241 7.02241 10.3813 2.78819 10.9896L2.65952 11.0081V11.1381V32.7576C2.65952 49.5111 13.537 64.2321 29.4554 69.1933Z" fill="#C91226" stroke="#F8F8F8" stroke-width="0.3"/>
</svg>
