<svg width="63" height="63" viewBox="0 0 63 63" fill="none" xmlns="http://www.w3.org/2000/svg">
<g clip-path="url(#clip0_681_1788)">
<mask id="path-1-inside-1_681_1788" fill="white">
<path d="M59.6797 37.1207H56.1709V16.731C56.1709 16.0509 55.6196 15.4996 54.9395 15.4996H49.164V14.0245C49.164 13.0795 48.8068 12.2162 48.2219 11.5626C48.8073 10.9094 49.164 10.0471 49.164 9.10307V3.68996C49.164 1.65536 47.5086 0 45.474 0H18.6877C16.6512 0 14.9939 1.65536 14.9939 3.68996V9.10307C14.9939 10.0475 15.3511 10.9094 15.937 11.5626C15.3511 12.2167 14.9939 13.0795 14.9939 14.0245V15.4996H9.22179C8.54166 15.4996 7.99036 16.0509 7.99036 16.731V37.1207H3.32034C1.48954 37.1207 0 38.6103 0 40.4411V55.6196C0 57.4509 1.48954 58.9404 3.32034 58.9404H10.0706L9.77021 60.5376H7.09394C6.4143 60.5376 5.86299 61.0889 5.86299 61.7686C5.86299 62.4487 6.41382 63 7.09394 63H21.8264C22.5065 63 23.0578 62.4487 23.0578 61.7686C23.0578 61.0889 22.5065 60.5376 21.8264 60.5376H19.1497L18.8478 58.9404H25.6C27.4313 58.9404 28.9208 57.4509 28.9208 55.6196V40.4411C28.9208 38.6098 27.4313 37.1203 25.6 37.1203H10.4527V17.962H14.9939V19.4342C14.9939 20.3792 15.3515 21.2424 15.9375 21.8966C15.3515 22.5503 14.9939 23.4135 14.9939 24.359V29.7682C14.9939 31.8047 16.6512 33.462 18.6877 33.462H45.474C47.5086 33.462 49.164 31.8047 49.164 29.7682V24.359C49.164 23.4135 48.8068 22.5503 48.2214 21.8966C48.8068 21.2424 49.164 20.3792 49.164 19.4342V17.962H53.7085V37.1203H37.3962C35.5673 37.1203 34.0792 38.6098 34.0792 40.4411V55.6196C34.0792 57.4509 35.5673 58.9404 37.3962 58.9404H44.1498L43.8494 60.5376H41.1736C40.4935 60.5376 39.9422 61.0889 39.9422 61.7686C39.9422 62.4487 40.4935 63 41.1736 63H55.9056C56.5857 63 57.137 62.4487 57.137 61.7686C57.137 61.0889 56.5857 60.5376 55.9056 60.5376H53.2288L52.927 58.9404H59.6797C61.5105 58.9404 63 57.4509 63 55.6196V40.4411C63 38.6103 61.5105 37.1207 59.6797 37.1207ZM16.644 60.5376H12.2758L12.5763 58.9404H16.3422L16.644 60.5376ZM26.4584 40.4411V52.3516H19.3501C18.6704 52.3516 18.1191 52.9029 18.1191 53.5831C18.1191 54.2627 18.6704 54.814 19.3501 54.814H26.4584V55.6196C26.4584 56.0849 26.0658 56.4776 25.6005 56.4776H3.32034C2.84738 56.4776 2.46238 56.093 2.46238 55.6196V54.814H9.52171C10.2018 54.814 10.7531 54.2627 10.7531 53.5831C10.7531 52.9029 10.2018 52.3516 9.52171 52.3516H2.46238V40.4411C2.46238 39.9676 2.84738 39.5826 3.32034 39.5826H25.6005C26.0734 39.5831 26.4584 39.9681 26.4584 40.4411ZM17.4563 19.4342V14.0245C17.4563 13.3453 18.0086 12.793 18.6877 12.793H45.474C46.1507 12.793 46.7016 13.3453 46.7016 14.0245V19.4342C46.7016 20.1129 46.1507 20.6651 45.474 20.6651H18.6877C18.0086 20.6651 17.4563 20.1129 17.4563 19.4342ZM17.4563 3.68996C17.4563 3.01321 18.0086 2.46238 18.6877 2.46238H45.474C46.1507 2.46238 46.7016 3.01321 46.7016 3.68996V9.10307C46.7016 9.7803 46.1507 10.3307 45.474 10.3307H18.6877C18.0091 10.3307 17.4563 9.7803 17.4563 9.10307V3.68996ZM46.7016 29.7682C46.7016 30.4474 46.1507 30.9996 45.474 30.9996H18.6877C18.0091 30.9996 17.4563 30.4474 17.4563 29.7682V24.359C17.4563 23.6798 18.0086 23.1275 18.6877 23.1275H45.474C46.1507 23.1275 46.7016 23.6798 46.7016 24.359V29.7682ZM50.7232 60.5376H46.355L46.6554 58.9404H50.4209L50.7232 60.5376ZM59.6797 56.4776H37.3962C36.9328 56.4776 36.5416 56.0849 36.5416 55.6196V54.814H43.6254C44.305 54.814 44.8564 54.2627 44.8564 53.5831C44.8564 52.9029 44.3055 52.3516 43.6254 52.3516H36.5416V40.4411C36.5416 39.9676 36.9251 39.5826 37.3962 39.5826H59.6797C60.1526 39.5826 60.5376 39.9676 60.5376 40.4411V52.3516H53.4504C52.7703 52.3516 52.219 52.9029 52.219 53.5831C52.219 54.2627 52.7703 54.814 53.4504 54.814H60.5376V55.6196C60.5376 56.0849 60.1449 56.4776 59.6797 56.4776Z"/>
</mask>
<path d="M59.6797 37.1207H56.1709V16.731C56.1709 16.0509 55.6196 15.4996 54.9395 15.4996H49.164V14.0245C49.164 13.0795 48.8068 12.2162 48.2219 11.5626C48.8073 10.9094 49.164 10.0471 49.164 9.10307V3.68996C49.164 1.65536 47.5086 0 45.474 0H18.6877C16.6512 0 14.9939 1.65536 14.9939 3.68996V9.10307C14.9939 10.0475 15.3511 10.9094 15.937 11.5626C15.3511 12.2167 14.9939 13.0795 14.9939 14.0245V15.4996H9.22179C8.54166 15.4996 7.99036 16.0509 7.99036 16.731V37.1207H3.32034C1.48954 37.1207 0 38.6103 0 40.4411V55.6196C0 57.4509 1.48954 58.9404 3.32034 58.9404H10.0706L9.77021 60.5376H7.09394C6.4143 60.5376 5.86299 61.0889 5.86299 61.7686C5.86299 62.4487 6.41382 63 7.09394 63H21.8264C22.5065 63 23.0578 62.4487 23.0578 61.7686C23.0578 61.0889 22.5065 60.5376 21.8264 60.5376H19.1497L18.8478 58.9404H25.6C27.4313 58.9404 28.9208 57.4509 28.9208 55.6196V40.4411C28.9208 38.6098 27.4313 37.1203 25.6 37.1203H10.4527V17.962H14.9939V19.4342C14.9939 20.3792 15.3515 21.2424 15.9375 21.8966C15.3515 22.5503 14.9939 23.4135 14.9939 24.359V29.7682C14.9939 31.8047 16.6512 33.462 18.6877 33.462H45.474C47.5086 33.462 49.164 31.8047 49.164 29.7682V24.359C49.164 23.4135 48.8068 22.5503 48.2214 21.8966C48.8068 21.2424 49.164 20.3792 49.164 19.4342V17.962H53.7085V37.1203H37.3962C35.5673 37.1203 34.0792 38.6098 34.0792 40.4411V55.6196C34.0792 57.4509 35.5673 58.9404 37.3962 58.9404H44.1498L43.8494 60.5376H41.1736C40.4935 60.5376 39.9422 61.0889 39.9422 61.7686C39.9422 62.4487 40.4935 63 41.1736 63H55.9056C56.5857 63 57.137 62.4487 57.137 61.7686C57.137 61.0889 56.5857 60.5376 55.9056 60.5376H53.2288L52.927 58.9404H59.6797C61.5105 58.9404 63 57.4509 63 55.6196V40.4411C63 38.6103 61.5105 37.1207 59.6797 37.1207ZM16.644 60.5376H12.2758L12.5763 58.9404H16.3422L16.644 60.5376ZM26.4584 40.4411V52.3516H19.3501C18.6704 52.3516 18.1191 52.9029 18.1191 53.5831C18.1191 54.2627 18.6704 54.814 19.3501 54.814H26.4584V55.6196C26.4584 56.0849 26.0658 56.4776 25.6005 56.4776H3.32034C2.84738 56.4776 2.46238 56.093 2.46238 55.6196V54.814H9.52171C10.2018 54.814 10.7531 54.2627 10.7531 53.5831C10.7531 52.9029 10.2018 52.3516 9.52171 52.3516H2.46238V40.4411C2.46238 39.9676 2.84738 39.5826 3.32034 39.5826H25.6005C26.0734 39.5831 26.4584 39.9681 26.4584 40.4411ZM17.4563 19.4342V14.0245C17.4563 13.3453 18.0086 12.793 18.6877 12.793H45.474C46.1507 12.793 46.7016 13.3453 46.7016 14.0245V19.4342C46.7016 20.1129 46.1507 20.6651 45.474 20.6651H18.6877C18.0086 20.6651 17.4563 20.1129 17.4563 19.4342ZM17.4563 3.68996C17.4563 3.01321 18.0086 2.46238 18.6877 2.46238H45.474C46.1507 2.46238 46.7016 3.01321 46.7016 3.68996V9.10307C46.7016 9.7803 46.1507 10.3307 45.474 10.3307H18.6877C18.0091 10.3307 17.4563 9.7803 17.4563 9.10307V3.68996ZM46.7016 29.7682C46.7016 30.4474 46.1507 30.9996 45.474 30.9996H18.6877C18.0091 30.9996 17.4563 30.4474 17.4563 29.7682V24.359C17.4563 23.6798 18.0086 23.1275 18.6877 23.1275H45.474C46.1507 23.1275 46.7016 23.6798 46.7016 24.359V29.7682ZM50.7232 60.5376H46.355L46.6554 58.9404H50.4209L50.7232 60.5376ZM59.6797 56.4776H37.3962C36.9328 56.4776 36.5416 56.0849 36.5416 55.6196V54.814H43.6254C44.305 54.814 44.8564 54.2627 44.8564 53.5831C44.8564 52.9029 44.3055 52.3516 43.6254 52.3516H36.5416V40.4411C36.5416 39.9676 36.9251 39.5826 37.3962 39.5826H59.6797C60.1526 39.5826 60.5376 39.9676 60.5376 40.4411V52.3516H53.4504C52.7703 52.3516 52.219 52.9029 52.219 53.5831C52.219 54.2627 52.7703 54.814 53.4504 54.814H60.5376V55.6196C60.5376 56.0849 60.1449 56.4776 59.6797 56.4776Z" fill="#C91226" stroke="#F8F8F8" stroke-width="0.8" mask="url(#path-1-inside-1_681_1788)"/>
<path d="M14.4605 54.6139H14.436C13.8664 54.6139 13.4051 54.1522 13.4051 53.583C13.4051 53.0132 13.8665 52.5516 14.436 52.5516H14.4605C15.0301 52.5516 15.4915 53.0132 15.4915 53.583C15.4915 54.1522 15.0297 54.6139 14.4605 54.6139Z" fill="#C91226" stroke="#F8F8F8" stroke-width="0.4"/>
<path d="M48.5395 52.5516H48.5607C49.1298 52.5516 49.5916 53.0133 49.5916 53.583C49.5916 54.1522 49.1299 54.6139 48.5607 54.6139H48.5395C47.9699 54.6139 47.5086 54.1522 47.5086 53.583C47.5086 53.0133 47.9704 52.5516 48.5395 52.5516Z" fill="#C91226" stroke="#F8F8F8" stroke-width="0.4"/>
<path d="M43.5697 7.42791H25.9702C25.4005 7.42791 24.9388 6.96614 24.9388 6.39648C24.9388 5.82734 25.4005 5.36553 25.9702 5.36553H43.5697C44.1394 5.36553 44.6007 5.82724 44.6007 6.39648C44.6007 6.96619 44.1389 7.42791 43.5697 7.42791Z" fill="#C91226" stroke="#F8F8F8" stroke-width="0.4"/>
<path d="M20.8706 7.42791H20.8428C20.2731 7.42791 19.8113 6.96614 19.8113 6.39648C19.8113 5.82734 20.273 5.36553 20.8428 5.36553H20.8706C21.4404 5.36553 21.9021 5.82734 21.9021 6.39648C21.9021 6.96614 21.4403 7.42791 20.8706 7.42791Z" fill="#C91226" stroke="#F8F8F8" stroke-width="0.4"/>
<path d="M25.9424 15.6995H43.5453C44.1149 15.6995 44.5762 16.1612 44.5762 16.7309C44.5762 17.3002 44.1149 17.7619 43.5453 17.7619H25.9424C25.3728 17.7619 24.9114 17.3002 24.9114 16.7309C24.9114 16.1612 25.3728 15.6995 25.9424 15.6995Z" fill="#C91226" stroke="#F8F8F8" stroke-width="0.4"/>
<path d="M20.8184 15.6995H20.8462C21.4159 15.6995 21.8777 16.1613 21.8777 16.7309C21.8777 17.3001 21.4159 17.7619 20.8462 17.7619H20.8184C20.2487 17.7619 19.7874 17.3002 19.7874 16.7309C19.7874 16.1612 20.2488 15.6995 20.8184 15.6995Z" fill="#C91226" stroke="#F8F8F8" stroke-width="0.4"/>
<path d="M25.7851 26.0306H43.3881C43.9578 26.0306 44.4195 26.4924 44.4195 27.0615C44.4195 27.6312 43.9577 28.0929 43.3881 28.0929H25.7851C25.216 28.0929 24.7542 27.6312 24.7542 27.0615C24.7542 26.4923 25.216 26.0306 25.7851 26.0306Z" fill="#C91226" stroke="#F8F8F8" stroke-width="0.4"/>
<path d="M20.6582 26.0306H20.6861C21.2553 26.0306 21.717 26.4923 21.717 27.0615C21.717 27.6312 21.2552 28.0929 20.6861 28.0929H20.6582C20.0885 28.0929 19.6268 27.6312 19.6268 27.0615C19.6268 26.4924 20.0885 26.0306 20.6582 26.0306Z" fill="#C91226" stroke="#F8F8F8" stroke-width="0.4"/>
</g>
<defs>
<clipPath id="clip0_681_1788">
<rect width="63" height="63" fill="white"/>
</clipPath>
</defs>
</svg>
