<svg width="59" height="50" viewBox="0 0 59 50" fill="none" xmlns="http://www.w3.org/2000/svg">
<path d="M58.3129 16.2571L58.225 16.2248L14.7974 0.282504L58.3129 16.2571ZM58.3129 16.2571L58.3132 16.257M58.3129 16.2571L58.3132 16.257M58.3132 16.257C58.4811 16.3388 58.6185 16.4723 58.7041 16.6382L58.7041 16.6383C58.9227 17.0611 58.7548 17.5807 58.3258 17.7985L58.3257 17.7986L51.8234 21.1068L51.6532 21.1934L51.7319 21.3675C52.2515 22.5165 52.4041 23.7954 52.1691 25.0328C51.5337 28.381 48.2776 30.5877 44.894 29.9568L44.7284 29.926L44.6698 30.084L44.2679 31.169C44.142 31.5081 43.8151 31.7349 43.448 31.7349C43.3451 31.7349 43.2437 31.7171 43.1475 31.6819L43.1472 31.6818L34.0851 28.387L33.8983 28.3191L33.8292 28.5054L33.0892 30.5014C32.7317 31.4655 32.0145 32.2573 31.0851 32.7139L30.9732 32.7688V32.8934V44.6672C30.9732 46.316 29.6236 47.6559 27.9552 47.6559C26.2868 47.6559 24.9377 46.316 24.9377 44.6672V43.6043V43.4043H24.7377H10.3054H10.1751L10.1224 43.5236C9.4502 45.0468 8.0741 46.1528 6.42952 46.4909L6.2698 46.5238V46.6868V48.9183C6.2698 49.3936 5.88123 49.7812 5.39713 49.7812H1.07267C0.588965 49.7812 0.2 49.3935 0.2 48.9183V31.9135C0.2 31.4387 0.589019 31.0506 1.07267 31.0506H5.39713C5.88118 31.0506 6.2698 31.4386 6.2698 31.9135V34.1454V34.3085L6.42957 34.3413C8.07408 34.679 9.4502 35.7855 10.1224 37.3082L10.1751 37.4275H10.3054H24.7377H24.9377V37.2275V31.8038V31.6995L24.8522 31.6398C23.353 30.5923 22.7561 28.6761 23.3962 26.9746L23.3965 26.9737L24.1365 24.9777L24.2065 24.789L24.0174 24.7202L13.9479 21.057C13.9479 21.057 13.9479 21.057 13.9479 21.057C13.4949 20.8919 13.2652 20.3965 13.4301 19.9509C13.4301 19.9509 13.4301 19.9509 13.4301 19.9508L14.5392 16.9567L14.6091 16.7681L14.4201 16.6993L9.38619 14.8679L9.36372 14.8597C8.9252 14.687 8.70524 14.1995 8.86793 13.761L8.86794 13.761L13.6603 0.835201L13.6609 0.834637L13.6762 0.793299C13.8422 0.346988 14.3439 0.116529 14.7973 0.282447L58.3132 16.257ZM26.9501 32.5839L26.6826 32.4878V32.7721V37.2275V37.4275H26.8826H29.0279H29.2279V37.2275V33.3354V33.1438L29.0364 33.1356C28.6275 33.1182 28.2232 33.0395 27.8379 32.9026C27.8378 32.9026 27.8377 32.9026 27.8376 32.9025L26.9501 32.5839ZM4.3249 48.0559H4.5249V47.8559V32.9764V32.7764H4.3249H2.14535H1.94535V32.9764V47.8559V48.0559H2.14535H4.3249ZM8.81515 41.4793V41.479V39.3532V39.353C8.81323 37.9163 7.89997 36.6375 6.53616 36.1579L6.2698 36.0642V36.3466V44.4857V44.7681L6.53621 44.6743C7.89995 44.1942 8.81323 42.9156 8.81515 41.4793ZM10.7938 39.1532H10.5938V39.3532V41.479V41.679H10.7938H29.0279H29.2279V41.479V39.3532V39.1532H29.0279H10.7938ZM26.8826 43.4043H26.6826V43.6043V44.6672C26.6826 45.3664 27.2541 45.9301 27.9552 45.9301C28.6563 45.9301 29.2279 45.3664 29.2279 44.6672V43.6043V43.4043H29.0279H26.8826ZM32.1908 27.9125L32.2608 27.7237L32.0715 27.655L31.4644 27.4347L31.4643 27.4347L26.0277 25.457L25.841 25.3891L25.7718 25.5754L25.0314 27.57L25.0188 27.6037V27.605C24.596 28.8033 25.2215 30.1181 26.4248 30.5559L26.4249 30.556L28.4424 31.2883C29.6562 31.7295 31.0033 31.1137 31.4508 29.9086L31.4508 29.9085L32.1908 27.9125ZM42.7436 29.6996L42.9304 29.7675L42.9995 29.5811L45.2178 23.595L45.2877 23.4063L45.0986 23.3375L36.6595 20.2662L36.5443 20.2243L36.4547 20.3079L33.4451 23.1151C33.2036 23.3388 32.8547 23.4094 32.5433 23.2972C32.5433 23.2972 32.5433 23.2972 32.5433 23.2972L16.4344 17.4357L16.2476 17.3677L16.1785 17.5541L15.438 19.55L15.368 19.7387L15.5572 19.8075L42.7436 29.6996ZM50.2514 25.4279L50.2519 25.4264C50.6363 24.3743 50.6033 23.2162 50.1595 22.1871L50.075 21.9912L49.885 22.0882L47.1778 23.4695L47.1083 23.505L47.0812 23.5782L45.4238 28.0519L45.3335 28.2956L45.5922 28.3204C47.6263 28.5159 49.5396 27.3293 50.2514 25.4279ZM46.4609 21.8822L46.4997 21.8788L46.5344 21.8611L55.3535 17.3696L55.7619 17.1616L55.3316 17.0037L15.1993 2.2709L15.0122 2.20219L14.9429 2.38914L10.8764 13.3605L10.8064 13.5492L10.9955 13.618L32.525 21.452L32.6401 21.4939L32.7298 21.4104L35.7433 18.6023C35.9842 18.3781 36.3327 18.3077 36.6438 18.4208L46.2069 21.9003L46.266 21.9218L46.3267 21.9056C46.3708 21.8939 46.4157 21.8861 46.4609 21.8822Z" fill="#F03146" stroke="#2E2E2E" stroke-width="0.4"/>
<path d="M21.7529 14.8422L20.1153 14.2461L20.7155 12.6253L22.3535 13.2215L21.7529 14.8422Z" fill="#F03146" stroke="#2E2E2E" stroke-width="0.4"/>
<path d="M25.7807 16.3071L24.1432 15.7113L24.7433 14.0907L26.3813 14.6868L25.7807 16.3071Z" fill="#F03146" stroke="#2E2E2E" stroke-width="0.4"/>
<path d="M29.8081 17.7729L28.1705 17.1769L28.7711 15.5567L30.4087 16.1527L29.8081 17.7729Z" fill="#F03146" stroke="#2E2E2E" stroke-width="0.4"/>
</svg>
