<svg width="54" height="54" viewBox="0 0 54 54" fill="none" xmlns="http://www.w3.org/2000/svg">
<path d="M51.7784 30.7819H51.8784V30.6819V3.87207C51.8784 3.05477 51.2138 2.39009 50.3965 2.39009H7.59917C7.19653 2.39009 6.87002 2.06366 6.87002 1.66094C6.87002 1.2582 7.19644 0.931787 7.59917 0.931787H50.3965C52.0177 0.931787 53.3367 2.25095 53.3368 3.87207V40.3555C53.3368 41.4016 52.7735 42.3776 51.8672 42.9019L51.9173 42.9884L51.8672 42.9019C51.7521 42.9685 51.6266 43 51.5028 43C51.2507 43 51.006 42.8693 50.8709 42.6359C50.6693 42.2873 50.7885 41.8413 51.137 41.6396C51.5943 41.3751 51.8784 40.8831 51.8784 40.3555V32.3402V32.2402H51.7784H47.0799C46.6772 32.2402 46.3507 31.9138 46.3507 31.511C46.3507 31.1083 46.6771 30.7819 47.0799 30.7819H51.7784Z" fill="#F03145" stroke="#C91226" stroke-width="0.2"/>
<path d="M47.0798 39.9793C45.4586 39.9793 44.1396 38.6602 44.1396 37.0391C44.1396 35.4179 45.4586 34.0988 47.0798 34.0988C48.7011 34.0988 50.0201 35.4179 50.0201 37.0391C50.0201 38.6602 48.7011 39.9793 47.0798 39.9793ZM48.5618 37.0392C48.5618 36.2219 47.8971 35.5572 47.0798 35.5572C46.2625 35.5572 45.5978 36.2219 45.5978 37.0392C45.5978 37.8565 46.2625 38.5211 47.0798 38.5211C47.8971 38.5211 48.5618 37.8565 48.5618 37.0392Z" fill="#F03145" stroke="#C91226" stroke-width="0.2"/>
<path d="M2.58017 32.24H2.48017V32.34V40.3553C2.48017 41.1726 3.14486 41.8373 3.96216 41.8373H18.3345C18.7372 41.8373 19.0637 42.1636 19.0637 42.5665C19.0637 42.9693 18.7372 43.2956 18.3344 43.2956H3.96216C2.34094 43.2956 1.02188 41.9764 1.02188 40.3553V3.87183C1.02188 2.2507 2.34094 0.931543 3.96216 0.931543H8.38442C8.78716 0.931543 9.11357 1.25796 9.11357 1.66069C9.11357 2.06342 8.78716 2.38984 8.38442 2.38984H3.96216C3.14486 2.38984 2.48017 3.05453 2.48017 3.87183V30.6817V30.7817H2.58017H22.7567C23.1593 30.7817 23.4858 31.1081 23.4858 31.5109C23.4858 31.9137 23.1594 32.24 22.7567 32.24H2.58017Z" fill="#F03145" stroke="#C91226" stroke-width="0.2"/>
<path d="M40.0707 39.7387V39.8131L40.142 39.8345L47.4552 42.0285C49.6514 42.6873 51.1265 44.6698 51.1265 46.9627V51.4112C51.1265 52.4227 50.3033 53.2459 49.2918 53.2459H44.1001C44.3153 53.0758 44.4533 52.8124 44.4533 52.5168C44.4533 52.2211 44.3152 51.9578 44.1001 51.7876H49.2918C49.4994 51.7876 49.6682 51.6189 49.6682 51.4112V46.9627C49.6682 45.3195 48.6102 43.8975 47.0363 43.4253L47.0076 43.5211L47.0363 43.4253L39.2487 41.089L39.2347 41.0848H39.22H30.6189H30.6042L30.5901 41.089L22.8027 43.4253L22.8314 43.5211L22.8026 43.4253C21.2288 43.8975 20.1708 45.3195 20.1708 46.9627V51.4112C20.1708 51.619 20.3397 51.7876 20.5472 51.7876H25.7986H25.8986V51.6876V49.2001C25.8986 48.7973 26.2251 48.4709 26.6278 48.4709C27.0304 48.4709 27.3569 48.7973 27.3569 49.2001V51.6876V51.7876H27.4569H42.282V52.5168C42.282 52.8125 42.4201 53.0758 42.6352 53.2459H20.547C19.5356 53.2459 18.7123 52.4228 18.7123 51.4112V46.9627C18.7123 44.6698 20.1874 42.6873 22.3835 42.0285L29.6967 39.8345L29.768 39.8131V39.7387V37.1453V37.0821L29.7109 37.055C29.1258 36.7769 28.5758 36.4211 28.0774 35.9936C26.7435 34.8492 25.8616 33.2623 25.5944 31.5252L24.6728 25.5345L24.664 25.4771L24.6098 25.4564C23.7478 25.1262 23.1346 24.2902 23.1346 23.3142C23.1346 22.7016 23.373 22.1261 23.8061 21.693L25.4209 20.0783L25.4376 20.0616L25.4451 20.0392L26.5863 16.6153C26.5863 16.6153 26.5863 16.6153 26.5863 16.6153C27.2338 14.6731 28.9536 13.3184 30.9581 13.1185L31.0152 13.1128L31.0391 13.0606C31.3291 12.4278 31.9685 11.9875 32.7083 11.9875H37.1305C37.8703 11.9875 38.5097 12.4278 38.7997 13.0606L38.8235 13.1128L38.8806 13.1185C40.8852 13.3184 42.605 14.6731 43.2524 16.6153L44.3937 20.0392L44.4012 20.0616L44.4178 20.0783L46.0034 21.6637V21.6638L46.0327 21.6931C46.4658 22.1262 46.7041 22.7016 46.7041 23.3142C46.7041 24.2902 46.0909 25.1261 45.2289 25.4564L45.1747 25.4771L45.1658 25.5345L44.2443 31.5252C43.977 33.2622 43.0953 34.8492 41.7613 35.9936C41.2629 36.4212 40.7129 36.7771 40.1278 37.055L40.0707 37.0821V37.1453V39.7387ZM43.5241 51.5876H42.482V49.2001C42.482 48.7973 42.8085 48.4709 43.2112 48.4709C43.6138 48.4709 43.9403 48.7973 43.9403 49.2001V51.6858C43.8151 51.623 43.6737 51.5876 43.5241 51.5876ZM42.482 51.7876H43.5241C43.9268 51.7876 44.2533 52.114 44.2533 52.5168C44.2533 52.9196 43.9269 53.2459 43.5241 53.2459H43.2112C42.8085 53.2459 42.482 52.9196 42.482 52.5168V51.7876ZM24.8374 22.7242L24.8374 22.7242C24.6801 22.8816 24.5932 23.0915 24.5932 23.3141C24.5932 23.7742 24.9673 24.1485 25.4275 24.1485H44.3116V24.1486H44.4116C44.8718 24.1486 45.2459 23.7745 45.2459 23.3142C45.2459 23.0944 45.1569 22.8797 45.0014 22.7242L43.2484 20.9712C43.1684 20.8912 43.108 20.7936 43.0722 20.6862L41.869 17.0767C41.443 15.7987 40.3697 14.8755 39.0848 14.6217L38.9654 14.5981V14.7198V18.2444C38.9654 18.6472 38.6389 18.9736 38.2363 18.9736C37.8336 18.9736 37.5071 18.6473 37.5071 18.2444V13.8222C37.5071 13.6144 37.3382 13.4457 37.1307 13.4457H32.7085C32.5008 13.4457 32.332 13.6145 32.332 13.8222V18.2444C32.332 18.6472 32.0056 18.9736 31.6029 18.9736C31.2002 18.9736 30.8737 18.6472 30.8737 18.2444V14.7197V14.598L30.7544 14.6216C29.4695 14.8754 28.396 15.7986 27.97 17.0766L26.7668 20.6861L26.7668 20.6861C26.7311 20.7934 26.6707 20.891 26.5906 20.9712L24.8374 22.7242ZM38.6127 37.7063V37.5829L38.492 37.6084C37.9939 37.7139 37.483 37.7681 36.9676 37.7681C36.5648 37.7681 36.2383 37.4417 36.2385 37.039V37.039C36.2385 36.6361 36.5649 36.3098 36.9676 36.3098C39.9024 36.3098 42.357 34.2038 42.8032 31.3033L43.6618 25.7222L43.6796 25.607H43.563H26.2762H26.1596L26.1774 25.7222L27.036 31.3032C27.4822 34.2039 29.9369 36.3098 32.8716 36.3098H33.8141C34.2168 36.3098 34.5433 36.6361 34.5433 37.039C34.5433 37.4418 34.2169 37.7681 33.8141 37.7681H32.8716C32.3561 37.7681 31.8454 37.7139 31.3473 37.6084L31.2266 37.5829V37.7063V39.5264V39.6264H31.3266H38.5127H38.6127V39.5264V37.7063Z" fill="#F03145" stroke="#C91226" stroke-width="0.2"/>
<path d="M4.33828 37.0391C4.33828 35.4179 5.65734 34.0988 7.27856 34.0988H15.0175C16.6388 34.0988 17.9578 35.4179 17.9578 37.0391C17.9578 38.6602 16.6388 39.9793 15.0175 39.9793H7.27856C5.65734 39.9793 4.33828 38.6602 4.33828 37.0391ZM15.0174 38.521C15.8347 38.521 16.4994 37.8564 16.4994 37.0391C16.4994 36.2219 15.8347 35.5572 15.0175 35.5571H7.27856C6.46126 35.5571 5.79658 36.2218 5.79658 37.0391C5.79658 37.8564 6.46126 38.521 7.27856 38.521H15.0174Z" fill="#F03145" stroke="#C91226" stroke-width="0.2"/>
<path d="M12.0784 11.3346V11.2346H11.9784H8.93814C8.23129 11.2346 7.65615 10.6594 7.65615 9.95259V6.63589C7.65615 5.92905 8.23129 5.35391 8.93814 5.35391H16.6771C17.3839 5.35391 17.9591 5.92905 17.9591 6.63589V7.46504V7.56504H18.0591H45.9745C46.3771 7.56504 46.7036 7.89137 46.7036 8.29419V17.1386C46.7036 17.5414 46.3772 17.8678 45.9745 17.8678C45.5718 17.8678 45.2453 17.5414 45.2453 17.1386V9.12334V9.02334H45.1453H18.0591H17.9591V9.12334V9.95249C17.9591 10.6593 17.3839 11.2345 16.6771 11.2345H13.6367H13.5367V11.3345V13.3095V13.3713L13.592 13.3989L17.2503 15.2281L17.2504 15.2281C17.6876 15.4466 17.959 15.8857 17.959 16.3747V16.7971C17.959 17.2861 17.6877 17.7252 17.2502 17.9437L17.2501 17.9438L13.5921 19.7728L13.5368 19.8005V19.8623V21.8374V21.9374H13.6368H16.6771C17.3839 21.9374 17.9591 22.5125 17.9591 23.2194V24.0485V24.1485H18.0591H20.5466C20.9493 24.1485 21.2758 24.4749 21.2758 24.8777C21.2758 25.2805 20.9494 25.6068 20.5466 25.6068H18.0591H17.9591V25.7068V26.536C17.9591 27.2428 17.3839 27.818 16.6771 27.818H8.93814C8.23129 27.818 7.65615 27.2428 7.65615 26.536V23.2193C7.65615 22.5124 8.23129 21.9373 8.93814 21.9373H11.9785H12.0785V21.8373V19.8625V19.8007L12.0232 19.773L8.36489 17.9439L8.36486 17.9439C7.92759 17.7254 7.65626 17.2863 7.65626 16.7973V16.3749C7.65626 15.8859 7.92759 15.4468 8.36507 15.2282L8.3651 15.2282L12.0231 13.3991L12.0784 13.3715V13.3097V11.3346ZM16.5007 23.4956V23.3956H16.4007H9.21455H9.11455V23.4956V26.2595V26.3595H9.21455H16.4007H16.5007V26.2595V23.4956ZM16.5007 16.5457V16.4839L16.4454 16.4562L12.8523 14.6597L12.8076 14.6373L12.7628 14.6597L9.16973 16.4562L9.11445 16.4839V16.5457V16.6263V16.6881L9.16973 16.7157L12.7628 18.5123L12.8076 18.5347L12.8523 18.5123L16.4454 16.7157L16.5007 16.6881V16.6263V16.5457ZM16.4007 9.77617H16.5007V9.67617V6.9122V6.8122H16.4007H9.21455H9.11455V6.9122V9.67617V9.77617H9.21455H12.8076H16.4007Z" fill="#F03145" stroke="#C91226" stroke-width="0.2"/>
<path d="M22.7571 39.9793C21.1359 39.9793 19.8168 38.6602 19.8168 37.0391C19.8168 35.4179 21.1359 34.0988 22.7571 34.0988C24.3783 34.0988 25.6974 35.4179 25.6974 37.0391C25.6974 38.6602 24.3783 39.9793 22.7571 39.9793ZM22.7571 38.521C23.5744 38.521 24.2391 37.8564 24.2391 37.0391C24.2391 36.2219 23.5744 35.5571 22.7571 35.5571C21.9398 35.5571 21.2751 36.2218 21.2751 37.0391C21.2751 37.8564 21.9398 38.521 22.7571 38.521Z" fill="#F03145" stroke="#C91226" stroke-width="0.2"/>
</svg>
