<svg width="60" height="56" viewBox="0 0 60 56" fill="none" xmlns="http://www.w3.org/2000/svg">
<path d="M29.4292 35.273C32.0729 35.273 37.4439 33.6033 37.7778 26.9244" stroke="#AFAFAF" stroke-width="2.1" stroke-linecap="round"/>
<path d="M29.2202 40.0734C33.4502 40.0734 42.0437 37.4018 42.578 26.7156" stroke="#AFAFAF" stroke-width="2.1" stroke-linecap="round"/>
<path d="M29.6772 19.6593C27.0335 19.6593 21.6626 21.3291 21.3286 28.008" stroke="#AFAFAF" stroke-width="2.1" stroke-linecap="round"/>
<path d="M29.8862 14.8589C25.6563 14.8589 17.0627 17.5305 16.5284 28.2167" stroke="#AFAFAF" stroke-width="2.1" stroke-linecap="round"/>
<circle cx="29.6377" cy="27.9679" r="2.70688" stroke="#AFAFAF" stroke-width="2.1"/>
<path d="M43.8301 8.76605L50.9264 20.8716" stroke="#AFAFAF" stroke-width="2.1" stroke-linecap="round"/>
<circle cx="42.1607" cy="6.26149" r="2.70688" stroke="#AFAFAF" stroke-width="2.1"/>
<path d="M53.061 30.3716L46.1255 42.57" stroke="#AFAFAF" stroke-width="2.1" stroke-linecap="round"/>
<circle cx="54.3959" cy="27.6733" r="2.70688" transform="rotate(60 54.3959 27.6733)" stroke="#AFAFAF" stroke-width="2.1"/>
<path d="M39.0771 49.4656L25.0453 49.5585" stroke="#AFAFAF" stroke-width="2.1" stroke-linecap="round"/>
<circle cx="42.0819" cy="49.2718" r="2.70688" transform="rotate(120 42.0819 49.2718)" stroke="#AFAFAF" stroke-width="2.1"/>
<path d="M15.4448 46.3349L8.34849 34.2294" stroke="#AFAFAF" stroke-width="2.1" stroke-linecap="round"/>
<circle cx="17.1147" cy="48.8394" r="2.70688" transform="rotate(-180 17.1147 48.8394)" stroke="#AFAFAF" stroke-width="2.1"/>
<path d="M6.46631 24.7213L13.4018 12.523" stroke="#AFAFAF" stroke-width="2.1" stroke-linecap="round"/>
<circle cx="5.13195" cy="27.4195" r="2.70688" transform="rotate(-120 5.13195 27.4195)" stroke="#AFAFAF" stroke-width="2.1"/>
<path d="M20.6587 6.1456L34.6905 6.05275" stroke="#AFAFAF" stroke-width="2.1" stroke-linecap="round"/>
<circle cx="17.6549" cy="6.33933" r="2.70688" transform="rotate(-60 17.6549 6.33933)" stroke="#AFAFAF" stroke-width="2.1"/>
</svg>
