<svg width="48" height="51" viewBox="0 0 48 51" fill="none" xmlns="http://www.w3.org/2000/svg">
<path d="M47.5221 22.4197C47.2497 20.2956 46.338 18.6041 45.9552 17.9698C46.2322 13.5504 45.3322 10.2227 43.2793 8.07584C41.6789 6.40242 39.8093 5.92896 38.8599 5.79531C37.4119 2.81522 34.9504 2.23868 33.4543 2.3788C30.6531 -0.161253 28.062 -0.221601 26.3544 0.193064C25.2283 0.46709 24.3467 0.980694 23.7998 1.3679C23.2531 0.980176 22.371 0.46709 21.2452 0.193064C19.5376 -0.222378 16.9465 -0.161771 14.1453 2.3788C12.6476 2.23816 10.1871 2.81522 8.73971 5.79531C7.79028 5.9287 5.92067 6.40216 4.32028 8.07584C2.26685 10.2227 1.36742 13.5504 1.64435 17.9698C1.26155 18.6036 0.35042 20.2956 0.0774804 22.4197C-0.23084 24.8266 0.24002 28.2209 4.10533 30.9749C3.65735 33.5494 4.08139 37.9812 8.3045 40.1604C8.12919 41.097 8.01294 42.7215 8.87166 44.11C9.54682 45.2022 10.6623 45.9207 12.1908 46.2491C12.9626 47.4087 15.6228 51 18.9425 51C18.9635 51 18.985 51 19.0061 50.9995C20.7858 50.9746 22.3939 49.9505 23.7995 47.9507C25.2057 49.95 26.8138 50.9746 28.593 50.9995C31.9372 51.0471 34.6317 47.4159 35.4085 46.2491C36.9371 45.9207 38.0528 45.2025 38.7277 44.11C39.5866 42.7215 39.4699 41.0967 39.2948 40.1604C43.5185 37.9812 43.9425 33.5494 43.4945 30.9749C47.3601 28.2209 47.8312 24.8269 47.5221 22.4197ZM41.98 29.849C41.6608 30.0562 41.5097 30.4364 41.6028 30.799C41.6645 31.0394 43.0529 36.7027 37.8836 38.8595C37.4492 39.0408 37.2302 39.5155 37.3797 39.9517C37.3861 39.9706 37.9982 41.8631 37.1717 43.1988C36.7237 43.9238 35.8908 44.3897 34.6977 44.5832C34.4317 44.6262 34.1992 44.7826 34.0629 45.009C33.3529 46.1887 31.0053 49.232 28.656 49.232C28.643 49.232 28.6292 49.232 28.6156 49.232C27.2028 49.2108 25.8561 48.0756 24.6136 45.858C24.4542 45.5741 24.1142 45.3975 23.7817 45.3975C23.4492 45.3975 23.1438 45.5739 22.9844 45.858C21.7424 48.0756 20.3958 49.2108 18.9824 49.232C16.6305 49.2688 14.2493 46.1957 13.535 45.009C13.3988 44.7826 13.1658 44.6262 12.9003 44.5832C11.7109 44.39 10.8799 43.9263 10.4308 43.2058C9.59418 41.8629 10.2132 39.968 10.2188 39.9514C10.3678 39.5153 10.1494 39.0405 9.71495 38.8592C4.57273 36.7136 5.9361 31.0376 5.99622 30.7988C6.08933 30.4364 5.93823 30.0562 5.619 29.8487C-1.155 25.4519 3.1402 18.9558 3.32535 18.6831C3.43708 18.5199 3.48975 18.3251 3.47565 18.1296C3.17957 14.0987 3.90209 11.1313 5.62272 9.3087C7.27712 7.55654 9.27947 7.51147 9.35795 7.51044C9.72932 7.51044 10.0629 7.29028 10.201 6.95487C11.2172 4.48216 12.85 4.12888 13.6992 4.12888C13.9724 4.12888 14.165 4.16566 14.2286 4.18017C14.5382 4.25528 14.8651 4.16748 15.0907 3.94758C16.9385 2.14932 18.8377 1.45856 20.7357 1.89265C22.1882 2.22495 23.1339 3.11566 23.1403 3.12188C23.3106 3.28764 23.5417 3.38088 23.7822 3.38088H23.8168C24.0576 3.38088 24.2885 3.28764 24.4587 3.12188C24.4678 3.11307 25.3813 2.2524 26.7947 1.90845C28.7151 1.4412 30.6379 2.12627 32.5083 3.94758C32.7288 4.16281 33.0558 4.24958 33.362 4.18224C33.6331 4.12163 36.0547 3.68547 37.3981 6.95513C37.5343 7.28666 37.8684 7.50629 38.2352 7.51069C38.3196 7.51199 40.3219 7.55654 41.9763 9.30896C43.6967 11.1316 44.4189 14.0992 44.1234 18.1298C44.1093 18.3251 44.162 18.5202 44.2737 18.6833C44.2854 18.7002 45.4309 20.3946 45.7193 22.6396C46.0952 25.5687 44.8371 27.9945 41.98 29.849Z" fill="#C91226"/>
<path d="M39.0687 6.34727C38.9099 5.88391 38.3946 5.63423 37.9201 5.78808C32.2732 7.6208 32.208 12.2153 32.208 12.4098C32.208 12.8957 32.6108 13.2876 33.1096 13.2907C33.112 13.2907 33.1141 13.2907 33.1159 13.2907C33.6121 13.2907 34.0172 12.8991 34.0239 12.4158C34.0263 12.272 34.1242 8.88345 38.4941 7.4654C38.97 7.31103 39.227 6.81063 39.0687 6.34727Z" fill="#C91226"/>
<path d="M43.1713 30.0478C42.8672 29.6598 42.2982 29.5844 41.8987 29.8807C40.419 30.9784 39.0809 31.3695 37.9243 31.045C35.8634 30.4671 34.8251 27.8242 34.8153 27.7973C34.641 27.3401 34.1183 27.1062 33.6498 27.2761C33.1795 27.445 32.9388 27.9537 33.1127 28.4116C33.1667 28.5541 34.4694 31.9083 37.4109 32.741C37.8495 32.8653 38.2967 32.9272 38.7516 32.9272C40.1054 32.9272 41.5292 32.3786 42.9997 31.2869C43.3985 30.9911 43.4751 30.4358 43.1713 30.0478Z" fill="#C91226"/>
<path d="M27.8188 30.7852C27.4647 30.44 26.8891 30.44 26.535 30.7852C26.1804 31.1305 26.1804 31.6902 26.535 32.0352C29.4833 34.9058 28.8717 37.6793 28.8403 37.8106C28.7222 38.2827 29.0178 38.7591 29.5022 38.8772C29.5756 38.8948 29.6499 38.9036 29.7227 38.9036C30.1295 38.9036 30.5001 38.6353 30.603 38.2335C30.6432 38.0789 31.5336 34.402 27.8188 30.7852Z" fill="#C91226"/>
<path d="M41.9071 22.5002C41.7363 22.0423 41.2157 21.8053 40.7448 21.9703C40.561 22.0343 36.2315 23.5082 33.932 20.5284C32.7375 18.9809 32.2244 17.6556 31.8118 16.5909C31.3055 15.2847 30.828 14.0506 29.2407 13.9232C28.7453 13.8825 28.3021 14.2448 28.2614 14.7315C28.2202 15.2176 28.5918 15.6447 29.0917 15.6849C29.4718 15.7149 29.6147 15.9296 30.1124 17.2143C30.542 18.3225 31.1299 19.8403 32.48 21.5898C34.0623 23.6401 36.2698 24.155 38.0899 24.155C39.852 24.155 41.2508 23.6719 41.366 23.6315C41.8363 23.4645 42.0778 22.9584 41.9071 22.5002Z" fill="#C91226"/>
<path d="M23.7829 1.61261C23.2818 1.61261 22.875 2.00862 22.875 2.49658V46.2801C22.875 46.7681 23.2818 47.1641 23.7829 47.1641C24.2841 47.1641 24.6909 46.7686 24.6909 46.2804V2.49658C24.6909 2.00862 24.2841 1.61261 23.7829 1.61261Z" fill="#C91226"/>
<path d="M30.4219 9.22876C30.4147 8.7408 30.0173 8.34478 29.5007 8.35747C28.9989 8.36447 28.5986 8.76644 28.6057 9.2544C28.6065 9.30957 28.656 14.8216 25.825 18.3174C25.5146 18.701 25.5816 19.2568 25.9759 19.559C26.1424 19.6873 26.3403 19.7492 26.5374 19.7492C26.8058 19.7492 27.0719 19.6339 27.2506 19.4125C30.4767 15.4295 30.4253 9.48025 30.4219 9.22876Z" fill="#C91226"/>
<path d="M32.2679 36.3088C28.2654 36.3088 26.3931 41.6425 26.3154 41.8699C26.1569 42.3328 26.4136 42.8321 26.889 42.9872C26.9842 43.0186 27.0816 43.0331 27.1768 43.0331C27.5564 43.0331 27.9105 42.7997 28.0382 42.4296C28.4564 41.2188 30.0318 38.0767 32.2682 38.0767C32.7694 38.0767 33.1762 37.6807 33.1762 37.1927C33.1762 36.7048 32.7691 36.3088 32.2679 36.3088Z" fill="#C91226"/>
<path d="M33.2908 2.24126C32.8894 1.94987 32.3201 2.03094 32.0206 2.42282L29.8421 5.27271C29.5428 5.66382 29.6264 6.21784 30.0286 6.50948C30.1911 6.62785 30.3808 6.68457 30.5697 6.68457C30.8471 6.68457 31.1209 6.5618 31.2988 6.32792L33.4773 3.47803C33.7766 3.08693 33.6931 2.53316 33.2908 2.24126Z" fill="#C91226"/>
<path d="M14.7013 7.9552C12.6987 7.9552 11.0693 9.5416 11.0693 11.4914C11.0693 13.4411 12.6987 15.0275 14.7013 15.0275C16.704 15.0275 18.3333 13.4411 18.3333 11.4914C18.3333 9.5416 16.704 7.9552 14.7013 7.9552ZM14.7013 13.2596C13.6998 13.2596 12.8852 12.4665 12.8852 11.4914C12.8852 10.5162 13.6998 9.72316 14.7013 9.72316C15.7029 9.72316 16.5175 10.5162 16.5175 11.4914C16.5172 12.4665 15.7027 13.2596 14.7013 13.2596Z" fill="#C91226"/>
<path d="M8.3449 19.4479C6.34228 19.4479 4.71289 21.0343 4.71289 22.9841C4.71289 24.9339 6.34228 26.5203 8.3449 26.5203C10.3475 26.5203 11.9769 24.9339 11.9769 22.9841C11.9772 21.0343 10.3475 19.4479 8.3449 19.4479ZM8.3449 24.7523C7.34332 24.7523 6.52876 23.9593 6.52876 22.9841C6.52876 22.009 7.34332 21.2159 8.3449 21.2159C9.34647 21.2159 10.161 22.009 10.161 22.9841C10.161 23.9593 9.34647 24.7523 8.3449 24.7523Z" fill="#C91226"/>
<path d="M17.4255 27.4045C15.4228 27.4045 13.7935 28.9909 13.7935 30.9407C13.7935 32.8905 15.4228 34.4769 17.4255 34.4769C19.4281 34.4769 21.0575 32.8905 21.0575 30.9407C21.0575 28.9909 19.4281 27.4045 17.4255 27.4045ZM17.4255 32.7089C16.4239 32.7089 15.6093 31.9159 15.6093 30.9407C15.6093 29.9656 16.4239 29.1725 17.4255 29.1725C18.427 29.1725 19.2416 29.9656 19.2416 30.9407C19.2416 31.9159 18.4268 32.7089 17.4255 32.7089Z" fill="#C91226"/>
<path d="M17.4255 37.1292C15.4228 37.1292 13.7935 38.7156 13.7935 40.6654C13.7935 42.6152 15.4228 44.2016 17.4255 44.2016C19.4281 44.2016 21.0575 42.6152 21.0575 40.6654C21.0575 38.7156 19.4281 37.1292 17.4255 37.1292ZM17.4255 42.4336C16.4239 42.4336 15.6093 41.6405 15.6093 40.6654C15.6093 39.6902 16.4239 38.8972 17.4255 38.8972C18.427 38.8972 19.2416 39.6902 19.2416 40.6654C19.2413 41.6405 18.4268 42.4336 17.4255 42.4336Z" fill="#C91226"/>
<path d="M14.7014 13.2595C14.2002 13.2595 13.7935 13.6555 13.7935 14.1435V22.9842C13.7935 23.4722 14.2002 23.8682 14.7014 23.8682C15.2031 23.8682 15.6093 23.4727 15.6093 22.9842V14.1435C15.6093 13.6555 15.2026 13.2595 14.7014 13.2595Z" fill="#C91226"/>
<path d="M17.4254 22.1002H11.0691C10.5679 22.1002 10.1611 22.4962 10.1611 22.9842C10.1611 23.4721 10.5679 23.8682 11.0691 23.8682H17.4251C17.9269 23.8682 18.3331 23.4721 18.3331 22.9842C18.3333 22.4962 17.9266 22.1002 17.4254 22.1002Z" fill="#C91226"/>
<path d="M17.4255 22.1002C16.9243 22.1002 16.5176 22.4962 16.5176 22.9841V28.2885C16.5176 28.7765 16.9243 29.1725 17.4255 29.1725C17.9272 29.1725 18.3334 28.777 18.3334 28.2885V22.9841C18.3334 22.4962 17.9267 22.1002 17.4255 22.1002Z" fill="#C91226"/>
<path d="M17.4255 32.7089C16.9243 32.7089 16.5176 33.1049 16.5176 33.5928V38.0133C16.5176 38.5012 16.9243 38.8973 17.4255 38.8973C17.9272 38.8973 18.3334 38.5018 18.3334 38.0133V33.5928C18.3334 33.1049 17.9267 32.7089 17.4255 32.7089Z" fill="#C91226"/>
</svg>
