<svg width="55" height="55" viewBox="0 0 55 55" fill="none" xmlns="http://www.w3.org/2000/svg">
<mask id="path-1-outside-1_681_421" maskUnits="userSpaceOnUse" x="0" y="0.00012207" width="55" height="55" fill="black">
<rect fill="white" y="0.00012207" width="55" height="55"/>
<path d="M53.2232 26.7237H40.7229V24.9573H44.0955C44.5243 24.9573 44.8719 24.6097 44.8719 24.1809C44.8719 23.7521 44.5243 23.4045 44.0955 23.4045H40.7229V21.6381H43.0644C43.9367 21.6381 44.7569 21.2984 45.3736 20.6816L50.4796 15.5756C50.8123 15.7413 51.1811 15.8295 51.5637 15.8295C52.2144 15.8295 52.8261 15.5761 53.2862 15.1161C53.7463 14.656 53.9997 14.0443 53.9997 13.3936C53.9997 12.7429 53.7463 12.1312 53.2862 11.6711C52.8262 11.211 52.2144 10.9576 51.5637 10.9576C50.913 10.9576 50.3013 11.211 49.8412 11.671C49.3811 12.1311 49.1277 12.7428 49.1277 13.3935C49.1277 13.7761 49.2159 14.1449 49.3816 14.4776L44.2756 19.5836C43.9521 19.9071 43.5219 20.0853 43.0643 20.0853H40.7228V18.3724C40.7228 16.1141 38.8855 14.2769 36.6273 14.2769H34.9143V7.40399C35.8778 7.07905 36.5739 6.16739 36.5739 5.0956C36.5739 3.75238 35.4811 2.65968 34.1379 2.65968C32.7948 2.65968 31.702 3.75249 31.702 5.0956C31.702 6.16739 32.3981 7.07895 33.3616 7.40399V14.2768H31.5952V10.9041C31.5952 10.4754 31.2476 10.1278 30.8188 10.1278C30.3901 10.1278 30.0425 10.4754 30.0425 10.9041V14.2768H28.276V1.77649C28.276 1.34773 27.9284 1.00012 27.4996 1.00012C27.0709 1.00012 26.7233 1.34773 26.7233 1.77649V14.2768H24.9569V10.9041C24.9569 10.4754 24.6093 10.1278 24.1805 10.1278C23.7517 10.1278 23.4041 10.4754 23.4041 10.9041V14.2768H21.6378V11.9354C21.6378 11.063 21.298 10.2429 20.6812 9.62615L15.5734 4.5184C16.0246 3.60736 15.8734 2.47138 15.1158 1.71365C14.1659 0.7639 12.6206 0.764004 11.6708 1.71365C10.721 2.6634 10.721 4.20878 11.6708 5.15864C12.1457 5.63346 12.7695 5.87093 13.3933 5.87093C13.7647 5.87093 14.1355 5.7847 14.4755 5.61628L19.5833 10.7241C19.9069 11.0476 20.085 11.4778 20.085 11.9354V14.2768H18.3721C18.0258 14.2768 17.6814 14.3203 17.3485 14.4059C16.9333 14.5127 16.6833 14.936 16.7901 15.3513C16.897 15.7666 17.3204 16.0166 17.7355 15.9096C17.9421 15.8565 18.1561 15.8295 18.372 15.8295H36.6273C38.0294 15.8295 39.17 16.9702 39.17 18.3723V36.6277C39.17 36.8433 39.1431 37.0573 39.0901 37.2636C38.9834 37.6789 39.2335 38.102 39.6487 38.2088C39.7135 38.2254 39.7785 38.2334 39.8426 38.2334C40.1884 38.2334 40.5038 38.0006 40.5939 37.6501C40.6794 37.3176 40.7228 36.9735 40.7228 36.6276V34.9146H47.5956C47.9205 35.8781 48.8321 36.5742 49.9039 36.5742C51.2472 36.5742 52.3399 35.4815 52.3399 34.1382C52.3399 32.795 51.247 31.7023 49.9039 31.7023C48.8321 31.7023 47.9206 32.3984 47.5956 33.3619H40.7228V31.5954H44.0954C44.5241 31.5954 44.8717 31.2478 44.8717 30.819C44.8717 30.3903 44.5241 30.0427 44.0954 30.0427H40.7228V28.2764H53.2232C53.6519 28.2764 53.9995 27.9288 53.9995 27.5C53.9995 27.0713 53.6519 26.7237 53.2232 26.7237ZM50.9391 12.7691C51.106 12.6022 51.3277 12.5104 51.5636 12.5104C51.7995 12.5104 52.0212 12.6022 52.1881 12.7691C52.355 12.9359 52.4468 13.1577 52.4468 13.3936C52.4468 13.6295 52.355 13.8512 52.1881 14.0181C52.0212 14.185 51.7995 14.2768 51.5636 14.2768C51.3277 14.2768 51.106 14.185 50.9391 14.0181C50.7722 13.8512 50.6804 13.6295 50.6804 13.3936C50.6804 13.1577 50.7722 12.9358 50.9391 12.7691ZM14.0177 4.06076C13.6734 4.40494 13.1131 4.40505 12.7686 4.06065C12.4242 3.71626 12.4242 3.15593 12.7686 2.81164C12.9408 2.63939 13.1669 2.55337 13.3932 2.55337C13.6194 2.55337 13.8456 2.63949 14.0177 2.81164C14.3621 3.15603 14.3621 3.71636 14.0177 4.06076ZM34.1379 5.97879C33.651 5.97879 33.2548 5.58253 33.2548 5.0956C33.2548 4.60866 33.6509 4.21241 34.1379 4.21241C34.625 4.21241 35.0211 4.60866 35.0211 5.0956C35.0211 5.58253 34.6249 5.97879 34.1379 5.97879ZM49.904 33.2551C50.3911 33.2551 50.7872 33.6514 50.7872 34.1383C50.7872 34.6254 50.391 35.0215 49.904 35.0215C49.4171 35.0215 49.0208 34.6253 49.0208 34.1383C49.0207 33.6513 49.417 33.2551 49.904 33.2551Z"/>
<path d="M43.3288 49.8415C42.5712 49.0838 41.4351 48.9325 40.5241 49.3838L35.4163 44.2759C35.0927 43.9524 34.9146 43.5222 34.9146 43.0647V40.7232H36.6276C36.9738 40.7232 37.3181 40.6798 37.6509 40.5942C38.0661 40.4873 38.3161 40.0641 38.2093 39.6488C38.1024 39.2336 37.6794 38.9836 37.2639 39.0904C37.0575 39.1435 36.8434 39.1704 36.6276 39.1704H18.3722C16.9701 39.1704 15.8295 38.0297 15.8295 36.6277V18.3723C15.8295 18.1565 15.8564 17.9424 15.9095 17.7361C16.0164 17.3209 15.7664 16.8976 15.3512 16.7907C14.9359 16.6838 14.5127 16.9338 14.4058 17.349C14.3201 17.6817 14.2768 18.026 14.2768 18.3723V20.0853H7.40386C7.07893 19.1218 6.16727 18.4257 5.09548 18.4257C3.75226 18.4257 2.65956 19.5184 2.65956 20.8617C2.65956 22.2049 3.75237 23.2976 5.09548 23.2976C6.16727 23.2976 7.07883 22.6015 7.40386 21.638H14.2767V23.4045H10.904C10.4753 23.4045 10.1277 23.7521 10.1277 24.1809C10.1277 24.6096 10.4753 24.9572 10.904 24.9572H14.2767V26.7236H1.77636C1.3476 26.7236 1 27.0712 1 27.5C1 27.9288 1.3476 28.2764 1.77636 28.2764H14.2767V30.0427H10.904C10.4753 30.0427 10.1277 30.3903 10.1277 30.8191C10.1277 31.2479 10.4753 31.5955 10.904 31.5955H14.2767V33.362H11.9351C11.0628 33.362 10.2427 33.7016 9.62592 34.3184L4.51993 39.4244C4.18723 39.2587 3.81841 39.1705 3.43582 39.1705C2.78512 39.1705 2.17345 39.4239 1.71332 39.8839C1.25341 40.3441 1 40.9558 1 41.6064C1 42.257 1.25341 42.8688 1.71353 43.3289C2.17355 43.7891 2.78533 44.0424 3.43602 44.0424C4.08672 44.0424 4.69839 43.789 5.15852 43.3289C5.61864 42.8688 5.87205 42.2571 5.87205 41.6064C5.87205 41.2238 5.78385 40.855 5.61812 40.5223L10.7241 35.4163C11.0476 35.0928 11.4778 34.9146 11.9354 34.9146H14.277V36.6276C14.277 38.8858 16.1143 40.723 18.3724 40.723H20.0854V47.5958C19.1219 47.9208 18.4259 48.8324 18.4259 49.9042C18.4259 51.2474 19.5187 52.3401 20.8618 52.3401C22.2049 52.3401 23.2977 51.2473 23.2977 49.9042C23.2977 48.8324 22.6017 47.9209 21.6381 47.5958V40.723H23.4045V44.0957C23.4045 44.5244 23.7521 44.872 24.1809 44.872C24.6096 44.872 24.9572 44.5244 24.9572 44.0957V40.723H26.7235V53.2235C26.7235 53.6523 27.0711 53.9999 27.4999 53.9999C27.9287 53.9999 28.2763 53.6523 28.2763 53.2235V40.7232H30.0426V44.0959C30.0426 44.5246 30.3902 44.8722 30.819 44.8722C31.2478 44.8722 31.5954 44.5246 31.5954 44.0959V40.7232H33.3618V43.0647C33.3618 43.937 33.7015 44.7571 34.3183 45.3739L39.4261 50.4816C38.9749 51.3927 39.1261 52.5286 39.8838 53.2864C40.3587 53.7613 40.9825 53.9987 41.6063 53.9987C42.2301 53.9987 42.854 53.7613 43.3288 53.2864C44.2786 52.3366 44.2786 50.7912 43.3288 49.8415ZM5.09548 21.7449C4.60844 21.7449 4.21228 21.3486 4.21228 20.8617C4.21228 20.3746 4.60854 19.9785 5.09548 19.9785C5.58241 19.9785 5.97867 20.3747 5.97867 20.8617C5.97877 21.3487 5.58251 21.7449 5.09548 21.7449ZM4.06043 42.2309C3.89356 42.3978 3.67183 42.4896 3.43592 42.4896C3.20001 42.4896 2.97828 42.3978 2.81141 42.2309C2.64455 42.0641 2.55273 41.8424 2.55273 41.6064C2.55273 41.3705 2.64455 41.1488 2.81141 40.9819C2.97828 40.8151 3.20001 40.7232 3.43592 40.7232C3.67183 40.7232 3.89356 40.8151 4.06043 40.9819C4.22729 41.1488 4.31911 41.3705 4.31911 41.6064C4.31911 41.8424 4.22729 42.0642 4.06043 42.2309ZM21.7448 49.9044C21.7448 50.3914 21.3486 50.7876 20.8616 50.7876C20.3745 50.7876 19.9784 50.3914 19.9784 49.9044C19.9784 49.4175 20.3746 49.0212 20.8616 49.0212C21.3485 49.0212 21.7448 49.4175 21.7448 49.9044ZM42.2309 52.1885C41.8865 52.5329 41.3262 52.5328 40.9818 52.1885C40.6374 51.8441 40.6374 51.2838 40.9818 50.9395C41.1541 50.7673 41.3802 50.6812 41.6064 50.6812C41.8326 50.6812 42.0588 50.7673 42.2309 50.9395C42.5752 51.2838 42.5752 51.8441 42.2309 52.1885Z"/>
<path d="M24.302 32V22.116H30.056V23.32H25.688V26.414H29.23V27.618H25.688V30.796H30.294V32H24.302Z"/>
</mask>
<path d="M53.2232 26.7237H40.7229V24.9573H44.0955C44.5243 24.9573 44.8719 24.6097 44.8719 24.1809C44.8719 23.7521 44.5243 23.4045 44.0955 23.4045H40.7229V21.6381H43.0644C43.9367 21.6381 44.7569 21.2984 45.3736 20.6816L50.4796 15.5756C50.8123 15.7413 51.1811 15.8295 51.5637 15.8295C52.2144 15.8295 52.8261 15.5761 53.2862 15.1161C53.7463 14.656 53.9997 14.0443 53.9997 13.3936C53.9997 12.7429 53.7463 12.1312 53.2862 11.6711C52.8262 11.211 52.2144 10.9576 51.5637 10.9576C50.913 10.9576 50.3013 11.211 49.8412 11.671C49.3811 12.1311 49.1277 12.7428 49.1277 13.3935C49.1277 13.7761 49.2159 14.1449 49.3816 14.4776L44.2756 19.5836C43.9521 19.9071 43.5219 20.0853 43.0643 20.0853H40.7228V18.3724C40.7228 16.1141 38.8855 14.2769 36.6273 14.2769H34.9143V7.40399C35.8778 7.07905 36.5739 6.16739 36.5739 5.0956C36.5739 3.75238 35.4811 2.65968 34.1379 2.65968C32.7948 2.65968 31.702 3.75249 31.702 5.0956C31.702 6.16739 32.3981 7.07895 33.3616 7.40399V14.2768H31.5952V10.9041C31.5952 10.4754 31.2476 10.1278 30.8188 10.1278C30.3901 10.1278 30.0425 10.4754 30.0425 10.9041V14.2768H28.276V1.77649C28.276 1.34773 27.9284 1.00012 27.4996 1.00012C27.0709 1.00012 26.7233 1.34773 26.7233 1.77649V14.2768H24.9569V10.9041C24.9569 10.4754 24.6093 10.1278 24.1805 10.1278C23.7517 10.1278 23.4041 10.4754 23.4041 10.9041V14.2768H21.6378V11.9354C21.6378 11.063 21.298 10.2429 20.6812 9.62615L15.5734 4.5184C16.0246 3.60736 15.8734 2.47138 15.1158 1.71365C14.1659 0.7639 12.6206 0.764004 11.6708 1.71365C10.721 2.6634 10.721 4.20878 11.6708 5.15864C12.1457 5.63346 12.7695 5.87093 13.3933 5.87093C13.7647 5.87093 14.1355 5.7847 14.4755 5.61628L19.5833 10.7241C19.9069 11.0476 20.085 11.4778 20.085 11.9354V14.2768H18.3721C18.0258 14.2768 17.6814 14.3203 17.3485 14.4059C16.9333 14.5127 16.6833 14.936 16.7901 15.3513C16.897 15.7666 17.3204 16.0166 17.7355 15.9096C17.9421 15.8565 18.1561 15.8295 18.372 15.8295H36.6273C38.0294 15.8295 39.17 16.9702 39.17 18.3723V36.6277C39.17 36.8433 39.1431 37.0573 39.0901 37.2636C38.9834 37.6789 39.2335 38.102 39.6487 38.2088C39.7135 38.2254 39.7785 38.2334 39.8426 38.2334C40.1884 38.2334 40.5038 38.0006 40.5939 37.6501C40.6794 37.3176 40.7228 36.9735 40.7228 36.6276V34.9146H47.5956C47.9205 35.8781 48.8321 36.5742 49.9039 36.5742C51.2472 36.5742 52.3399 35.4815 52.3399 34.1382C52.3399 32.795 51.247 31.7023 49.9039 31.7023C48.8321 31.7023 47.9206 32.3984 47.5956 33.3619H40.7228V31.5954H44.0954C44.5241 31.5954 44.8717 31.2478 44.8717 30.819C44.8717 30.3903 44.5241 30.0427 44.0954 30.0427H40.7228V28.2764H53.2232C53.6519 28.2764 53.9995 27.9288 53.9995 27.5C53.9995 27.0713 53.6519 26.7237 53.2232 26.7237ZM50.9391 12.7691C51.106 12.6022 51.3277 12.5104 51.5636 12.5104C51.7995 12.5104 52.0212 12.6022 52.1881 12.7691C52.355 12.9359 52.4468 13.1577 52.4468 13.3936C52.4468 13.6295 52.355 13.8512 52.1881 14.0181C52.0212 14.185 51.7995 14.2768 51.5636 14.2768C51.3277 14.2768 51.106 14.185 50.9391 14.0181C50.7722 13.8512 50.6804 13.6295 50.6804 13.3936C50.6804 13.1577 50.7722 12.9358 50.9391 12.7691ZM14.0177 4.06076C13.6734 4.40494 13.1131 4.40505 12.7686 4.06065C12.4242 3.71626 12.4242 3.15593 12.7686 2.81164C12.9408 2.63939 13.1669 2.55337 13.3932 2.55337C13.6194 2.55337 13.8456 2.63949 14.0177 2.81164C14.3621 3.15603 14.3621 3.71636 14.0177 4.06076ZM34.1379 5.97879C33.651 5.97879 33.2548 5.58253 33.2548 5.0956C33.2548 4.60866 33.6509 4.21241 34.1379 4.21241C34.625 4.21241 35.0211 4.60866 35.0211 5.0956C35.0211 5.58253 34.6249 5.97879 34.1379 5.97879ZM49.904 33.2551C50.3911 33.2551 50.7872 33.6514 50.7872 34.1383C50.7872 34.6254 50.391 35.0215 49.904 35.0215C49.4171 35.0215 49.0208 34.6253 49.0208 34.1383C49.0207 33.6513 49.417 33.2551 49.904 33.2551Z" fill="#AFAFAF"/>
<path d="M43.3288 49.8415C42.5712 49.0838 41.4351 48.9325 40.5241 49.3838L35.4163 44.2759C35.0927 43.9524 34.9146 43.5222 34.9146 43.0647V40.7232H36.6276C36.9738 40.7232 37.3181 40.6798 37.6509 40.5942C38.0661 40.4873 38.3161 40.0641 38.2093 39.6488C38.1024 39.2336 37.6794 38.9836 37.2639 39.0904C37.0575 39.1435 36.8434 39.1704 36.6276 39.1704H18.3722C16.9701 39.1704 15.8295 38.0297 15.8295 36.6277V18.3723C15.8295 18.1565 15.8564 17.9424 15.9095 17.7361C16.0164 17.3209 15.7664 16.8976 15.3512 16.7907C14.9359 16.6838 14.5127 16.9338 14.4058 17.349C14.3201 17.6817 14.2768 18.026 14.2768 18.3723V20.0853H7.40386C7.07893 19.1218 6.16727 18.4257 5.09548 18.4257C3.75226 18.4257 2.65956 19.5184 2.65956 20.8617C2.65956 22.2049 3.75237 23.2976 5.09548 23.2976C6.16727 23.2976 7.07883 22.6015 7.40386 21.638H14.2767V23.4045H10.904C10.4753 23.4045 10.1277 23.7521 10.1277 24.1809C10.1277 24.6096 10.4753 24.9572 10.904 24.9572H14.2767V26.7236H1.77636C1.3476 26.7236 1 27.0712 1 27.5C1 27.9288 1.3476 28.2764 1.77636 28.2764H14.2767V30.0427H10.904C10.4753 30.0427 10.1277 30.3903 10.1277 30.8191C10.1277 31.2479 10.4753 31.5955 10.904 31.5955H14.2767V33.362H11.9351C11.0628 33.362 10.2427 33.7016 9.62592 34.3184L4.51993 39.4244C4.18723 39.2587 3.81841 39.1705 3.43582 39.1705C2.78512 39.1705 2.17345 39.4239 1.71332 39.8839C1.25341 40.3441 1 40.9558 1 41.6064C1 42.257 1.25341 42.8688 1.71353 43.3289C2.17355 43.7891 2.78533 44.0424 3.43602 44.0424C4.08672 44.0424 4.69839 43.789 5.15852 43.3289C5.61864 42.8688 5.87205 42.2571 5.87205 41.6064C5.87205 41.2238 5.78385 40.855 5.61812 40.5223L10.7241 35.4163C11.0476 35.0928 11.4778 34.9146 11.9354 34.9146H14.277V36.6276C14.277 38.8858 16.1143 40.723 18.3724 40.723H20.0854V47.5958C19.1219 47.9208 18.4259 48.8324 18.4259 49.9042C18.4259 51.2474 19.5187 52.3401 20.8618 52.3401C22.2049 52.3401 23.2977 51.2473 23.2977 49.9042C23.2977 48.8324 22.6017 47.9209 21.6381 47.5958V40.723H23.4045V44.0957C23.4045 44.5244 23.7521 44.872 24.1809 44.872C24.6096 44.872 24.9572 44.5244 24.9572 44.0957V40.723H26.7235V53.2235C26.7235 53.6523 27.0711 53.9999 27.4999 53.9999C27.9287 53.9999 28.2763 53.6523 28.2763 53.2235V40.7232H30.0426V44.0959C30.0426 44.5246 30.3902 44.8722 30.819 44.8722C31.2478 44.8722 31.5954 44.5246 31.5954 44.0959V40.7232H33.3618V43.0647C33.3618 43.937 33.7015 44.7571 34.3183 45.3739L39.4261 50.4816C38.9749 51.3927 39.1261 52.5286 39.8838 53.2864C40.3587 53.7613 40.9825 53.9987 41.6063 53.9987C42.2301 53.9987 42.854 53.7613 43.3288 53.2864C44.2786 52.3366 44.2786 50.7912 43.3288 49.8415ZM5.09548 21.7449C4.60844 21.7449 4.21228 21.3486 4.21228 20.8617C4.21228 20.3746 4.60854 19.9785 5.09548 19.9785C5.58241 19.9785 5.97867 20.3747 5.97867 20.8617C5.97877 21.3487 5.58251 21.7449 5.09548 21.7449ZM4.06043 42.2309C3.89356 42.3978 3.67183 42.4896 3.43592 42.4896C3.20001 42.4896 2.97828 42.3978 2.81141 42.2309C2.64455 42.0641 2.55273 41.8424 2.55273 41.6064C2.55273 41.3705 2.64455 41.1488 2.81141 40.9819C2.97828 40.8151 3.20001 40.7232 3.43592 40.7232C3.67183 40.7232 3.89356 40.8151 4.06043 40.9819C4.22729 41.1488 4.31911 41.3705 4.31911 41.6064C4.31911 41.8424 4.22729 42.0642 4.06043 42.2309ZM21.7448 49.9044C21.7448 50.3914 21.3486 50.7876 20.8616 50.7876C20.3745 50.7876 19.9784 50.3914 19.9784 49.9044C19.9784 49.4175 20.3746 49.0212 20.8616 49.0212C21.3485 49.0212 21.7448 49.4175 21.7448 49.9044ZM42.2309 52.1885C41.8865 52.5329 41.3262 52.5328 40.9818 52.1885C40.6374 51.8441 40.6374 51.2838 40.9818 50.9395C41.1541 50.7673 41.3802 50.6812 41.6064 50.6812C41.8326 50.6812 42.0588 50.7673 42.2309 50.9395C42.5752 51.2838 42.5752 51.8441 42.2309 52.1885Z" fill="#AFAFAF"/>
<path d="M24.302 32V22.116H30.056V23.32H25.688V26.414H29.23V27.618H25.688V30.796H30.294V32H24.302Z" fill="#AFAFAF"/>
<path d="M53.2232 26.7237H40.7229V24.9573H44.0955C44.5243 24.9573 44.8719 24.6097 44.8719 24.1809C44.8719 23.7521 44.5243 23.4045 44.0955 23.4045H40.7229V21.6381H43.0644C43.9367 21.6381 44.7569 21.2984 45.3736 20.6816L50.4796 15.5756C50.8123 15.7413 51.1811 15.8295 51.5637 15.8295C52.2144 15.8295 52.8261 15.5761 53.2862 15.1161C53.7463 14.656 53.9997 14.0443 53.9997 13.3936C53.9997 12.7429 53.7463 12.1312 53.2862 11.6711C52.8262 11.211 52.2144 10.9576 51.5637 10.9576C50.913 10.9576 50.3013 11.211 49.8412 11.671C49.3811 12.1311 49.1277 12.7428 49.1277 13.3935C49.1277 13.7761 49.2159 14.1449 49.3816 14.4776L44.2756 19.5836C43.9521 19.9071 43.5219 20.0853 43.0643 20.0853H40.7228V18.3724C40.7228 16.1141 38.8855 14.2769 36.6273 14.2769H34.9143V7.40399C35.8778 7.07905 36.5739 6.16739 36.5739 5.0956C36.5739 3.75238 35.4811 2.65968 34.1379 2.65968C32.7948 2.65968 31.702 3.75249 31.702 5.0956C31.702 6.16739 32.3981 7.07895 33.3616 7.40399V14.2768H31.5952V10.9041C31.5952 10.4754 31.2476 10.1278 30.8188 10.1278C30.3901 10.1278 30.0425 10.4754 30.0425 10.9041V14.2768H28.276V1.77649C28.276 1.34773 27.9284 1.00012 27.4996 1.00012C27.0709 1.00012 26.7233 1.34773 26.7233 1.77649V14.2768H24.9569V10.9041C24.9569 10.4754 24.6093 10.1278 24.1805 10.1278C23.7517 10.1278 23.4041 10.4754 23.4041 10.9041V14.2768H21.6378V11.9354C21.6378 11.063 21.298 10.2429 20.6812 9.62615L15.5734 4.5184C16.0246 3.60736 15.8734 2.47138 15.1158 1.71365C14.1659 0.7639 12.6206 0.764004 11.6708 1.71365C10.721 2.6634 10.721 4.20878 11.6708 5.15864C12.1457 5.63346 12.7695 5.87093 13.3933 5.87093C13.7647 5.87093 14.1355 5.7847 14.4755 5.61628L19.5833 10.7241C19.9069 11.0476 20.085 11.4778 20.085 11.9354V14.2768H18.3721C18.0258 14.2768 17.6814 14.3203 17.3485 14.4059C16.9333 14.5127 16.6833 14.936 16.7901 15.3513C16.897 15.7666 17.3204 16.0166 17.7355 15.9096C17.9421 15.8565 18.1561 15.8295 18.372 15.8295H36.6273C38.0294 15.8295 39.17 16.9702 39.17 18.3723V36.6277C39.17 36.8433 39.1431 37.0573 39.0901 37.2636C38.9834 37.6789 39.2335 38.102 39.6487 38.2088C39.7135 38.2254 39.7785 38.2334 39.8426 38.2334C40.1884 38.2334 40.5038 38.0006 40.5939 37.6501C40.6794 37.3176 40.7228 36.9735 40.7228 36.6276V34.9146H47.5956C47.9205 35.8781 48.8321 36.5742 49.9039 36.5742C51.2472 36.5742 52.3399 35.4815 52.3399 34.1382C52.3399 32.795 51.247 31.7023 49.9039 31.7023C48.8321 31.7023 47.9206 32.3984 47.5956 33.3619H40.7228V31.5954H44.0954C44.5241 31.5954 44.8717 31.2478 44.8717 30.819C44.8717 30.3903 44.5241 30.0427 44.0954 30.0427H40.7228V28.2764H53.2232C53.6519 28.2764 53.9995 27.9288 53.9995 27.5C53.9995 27.0713 53.6519 26.7237 53.2232 26.7237ZM50.9391 12.7691C51.106 12.6022 51.3277 12.5104 51.5636 12.5104C51.7995 12.5104 52.0212 12.6022 52.1881 12.7691C52.355 12.9359 52.4468 13.1577 52.4468 13.3936C52.4468 13.6295 52.355 13.8512 52.1881 14.0181C52.0212 14.185 51.7995 14.2768 51.5636 14.2768C51.3277 14.2768 51.106 14.185 50.9391 14.0181C50.7722 13.8512 50.6804 13.6295 50.6804 13.3936C50.6804 13.1577 50.7722 12.9358 50.9391 12.7691ZM14.0177 4.06076C13.6734 4.40494 13.1131 4.40505 12.7686 4.06065C12.4242 3.71626 12.4242 3.15593 12.7686 2.81164C12.9408 2.63939 13.1669 2.55337 13.3932 2.55337C13.6194 2.55337 13.8456 2.63949 14.0177 2.81164C14.3621 3.15603 14.3621 3.71636 14.0177 4.06076ZM34.1379 5.97879C33.651 5.97879 33.2548 5.58253 33.2548 5.0956C33.2548 4.60866 33.6509 4.21241 34.1379 4.21241C34.625 4.21241 35.0211 4.60866 35.0211 5.0956C35.0211 5.58253 34.6249 5.97879 34.1379 5.97879ZM49.904 33.2551C50.3911 33.2551 50.7872 33.6514 50.7872 34.1383C50.7872 34.6254 50.391 35.0215 49.904 35.0215C49.4171 35.0215 49.0208 34.6253 49.0208 34.1383C49.0207 33.6513 49.417 33.2551 49.904 33.2551Z" stroke="#AFAFAF" stroke-width="0.4" mask="url(#path-1-outside-1_681_421)"/>
<path d="M43.3288 49.8415C42.5712 49.0838 41.4351 48.9325 40.5241 49.3838L35.4163 44.2759C35.0927 43.9524 34.9146 43.5222 34.9146 43.0647V40.7232H36.6276C36.9738 40.7232 37.3181 40.6798 37.6509 40.5942C38.0661 40.4873 38.3161 40.0641 38.2093 39.6488C38.1024 39.2336 37.6794 38.9836 37.2639 39.0904C37.0575 39.1435 36.8434 39.1704 36.6276 39.1704H18.3722C16.9701 39.1704 15.8295 38.0297 15.8295 36.6277V18.3723C15.8295 18.1565 15.8564 17.9424 15.9095 17.7361C16.0164 17.3209 15.7664 16.8976 15.3512 16.7907C14.9359 16.6838 14.5127 16.9338 14.4058 17.349C14.3201 17.6817 14.2768 18.026 14.2768 18.3723V20.0853H7.40386C7.07893 19.1218 6.16727 18.4257 5.09548 18.4257C3.75226 18.4257 2.65956 19.5184 2.65956 20.8617C2.65956 22.2049 3.75237 23.2976 5.09548 23.2976C6.16727 23.2976 7.07883 22.6015 7.40386 21.638H14.2767V23.4045H10.904C10.4753 23.4045 10.1277 23.7521 10.1277 24.1809C10.1277 24.6096 10.4753 24.9572 10.904 24.9572H14.2767V26.7236H1.77636C1.3476 26.7236 1 27.0712 1 27.5C1 27.9288 1.3476 28.2764 1.77636 28.2764H14.2767V30.0427H10.904C10.4753 30.0427 10.1277 30.3903 10.1277 30.8191C10.1277 31.2479 10.4753 31.5955 10.904 31.5955H14.2767V33.362H11.9351C11.0628 33.362 10.2427 33.7016 9.62592 34.3184L4.51993 39.4244C4.18723 39.2587 3.81841 39.1705 3.43582 39.1705C2.78512 39.1705 2.17345 39.4239 1.71332 39.8839C1.25341 40.3441 1 40.9558 1 41.6064C1 42.257 1.25341 42.8688 1.71353 43.3289C2.17355 43.7891 2.78533 44.0424 3.43602 44.0424C4.08672 44.0424 4.69839 43.789 5.15852 43.3289C5.61864 42.8688 5.87205 42.2571 5.87205 41.6064C5.87205 41.2238 5.78385 40.855 5.61812 40.5223L10.7241 35.4163C11.0476 35.0928 11.4778 34.9146 11.9354 34.9146H14.277V36.6276C14.277 38.8858 16.1143 40.723 18.3724 40.723H20.0854V47.5958C19.1219 47.9208 18.4259 48.8324 18.4259 49.9042C18.4259 51.2474 19.5187 52.3401 20.8618 52.3401C22.2049 52.3401 23.2977 51.2473 23.2977 49.9042C23.2977 48.8324 22.6017 47.9209 21.6381 47.5958V40.723H23.4045V44.0957C23.4045 44.5244 23.7521 44.872 24.1809 44.872C24.6096 44.872 24.9572 44.5244 24.9572 44.0957V40.723H26.7235V53.2235C26.7235 53.6523 27.0711 53.9999 27.4999 53.9999C27.9287 53.9999 28.2763 53.6523 28.2763 53.2235V40.7232H30.0426V44.0959C30.0426 44.5246 30.3902 44.8722 30.819 44.8722C31.2478 44.8722 31.5954 44.5246 31.5954 44.0959V40.7232H33.3618V43.0647C33.3618 43.937 33.7015 44.7571 34.3183 45.3739L39.4261 50.4816C38.9749 51.3927 39.1261 52.5286 39.8838 53.2864C40.3587 53.7613 40.9825 53.9987 41.6063 53.9987C42.2301 53.9987 42.854 53.7613 43.3288 53.2864C44.2786 52.3366 44.2786 50.7912 43.3288 49.8415ZM5.09548 21.7449C4.60844 21.7449 4.21228 21.3486 4.21228 20.8617C4.21228 20.3746 4.60854 19.9785 5.09548 19.9785C5.58241 19.9785 5.97867 20.3747 5.97867 20.8617C5.97877 21.3487 5.58251 21.7449 5.09548 21.7449ZM4.06043 42.2309C3.89356 42.3978 3.67183 42.4896 3.43592 42.4896C3.20001 42.4896 2.97828 42.3978 2.81141 42.2309C2.64455 42.0641 2.55273 41.8424 2.55273 41.6064C2.55273 41.3705 2.64455 41.1488 2.81141 40.9819C2.97828 40.8151 3.20001 40.7232 3.43592 40.7232C3.67183 40.7232 3.89356 40.8151 4.06043 40.9819C4.22729 41.1488 4.31911 41.3705 4.31911 41.6064C4.31911 41.8424 4.22729 42.0642 4.06043 42.2309ZM21.7448 49.9044C21.7448 50.3914 21.3486 50.7876 20.8616 50.7876C20.3745 50.7876 19.9784 50.3914 19.9784 49.9044C19.9784 49.4175 20.3746 49.0212 20.8616 49.0212C21.3485 49.0212 21.7448 49.4175 21.7448 49.9044ZM42.2309 52.1885C41.8865 52.5329 41.3262 52.5328 40.9818 52.1885C40.6374 51.8441 40.6374 51.2838 40.9818 50.9395C41.1541 50.7673 41.3802 50.6812 41.6064 50.6812C41.8326 50.6812 42.0588 50.7673 42.2309 50.9395C42.5752 51.2838 42.5752 51.8441 42.2309 52.1885Z" stroke="#AFAFAF" stroke-width="0.4" mask="url(#path-1-outside-1_681_421)"/>
<path d="M24.302 32V22.116H30.056V23.32H25.688V26.414H29.23V27.618H25.688V30.796H30.294V32H24.302Z" stroke="#AFAFAF" stroke-width="0.4" mask="url(#path-1-outside-1_681_421)"/>
</svg>
